<svg width="852" height="592" viewBox="0 0 852 592" fill="none" xmlns="http://www.w3.org/2000/svg">
<path opacity="0.4" d="M720.007 251.149C765.793 275.258 802.92 247.905 803.039 190.065C803.039 132.225 765.912 65.7363 720.125 41.6273C674.339 17.5183 637.212 44.8706 637.093 102.711C637.093 115.468 638.873 128.549 642.194 141.523L473.402 198.93C458.456 172.659 437.935 150.496 415.398 138.604C369.612 114.495 332.484 141.847 332.366 199.687C332.366 257.527 369.493 324.016 415.279 348.125C436.986 359.585 456.795 359.369 471.622 349.963L637.093 580.35C637.093 581.756 636.975 583.053 636.975 584.458C636.975 642.298 674.102 708.787 719.888 732.896C765.674 757.005 802.802 729.653 802.92 671.813C802.92 613.973 765.793 547.484 720.007 523.375C689.878 507.591 663.545 513.969 648.955 536.565L493.448 320.016C496.651 310.61 498.311 299.583 498.311 287.042C498.311 275.582 496.888 263.906 494.16 252.23L664.138 194.39C678.847 219.147 698.537 239.797 720.007 251.149Z" fill="url(#paint0_linear)"/>
<path opacity="0.07" d="M850.011 157.2C850.011 215.04 812.884 242.392 766.979 218.283C721.193 194.174 684.066 127.794 684.066 69.8454C684.066 12.0054 721.193 -15.347 767.098 8.76203C812.884 32.871 850.011 99.36 850.011 157.2Z" fill="url(#paint1_linear)"/>
<path opacity="0.07" d="M545.164 252.34C545.164 310.18 508.037 337.532 462.132 313.423C416.346 289.314 379.219 222.825 379.219 164.985C379.219 107.145 416.346 79.7927 462.251 103.902C508.037 128.011 545.164 194.5 545.164 252.34Z" fill="url(#paint2_linear)"/>
<path opacity="0.07" d="M851.197 639.379C851.197 697.219 814.07 724.571 768.165 700.462C722.379 676.353 685.252 609.864 685.252 552.024C685.252 494.184 722.379 466.832 768.284 490.941C814.07 515.05 851.197 581.539 851.197 639.379Z" fill="url(#paint3_linear)"/>
<path opacity="0.2" d="M149.101 460.562L384.675 584.567L384.794 775.709L149.22 651.705L149.101 460.562Z" fill="url(#paint4_linear)"/>
<path opacity="0.15" d="M149.101 460.562L267.007 637.218L384.794 584.459L149.101 460.562Z" fill="url(#paint5_linear)"/>
<path opacity="0.3" d="M390.488 367.263L37.6016 181.742L37.7202 345.316L359.529 514.511L390.725 555.918L390.488 367.263Z" fill="url(#paint6_linear)"/>
<path fill-rule="evenodd" clip-rule="evenodd" d="M0 245.096V200.662L133.207 270.719V315.153L0 245.096Z" fill="#8BC29A"/>
<path opacity="0.15" d="M299.746 359.37L222.407 318.72V333.099L299.746 373.749V359.37Z" fill="#666666"/>
<path opacity="0.15" d="M299.864 388.127L150.763 309.746V324.125L299.864 402.506V388.127Z" fill="#666666"/>
<path opacity="0.15" d="M299.864 416.885L119.21 321.963V336.342L299.864 431.264V416.885Z" fill="#666666"/>
<path fill-rule="evenodd" clip-rule="evenodd" d="M318.843 384.345C318.843 397.859 327.858 413.427 338.89 419.265C349.921 425.103 358.936 418.833 358.936 405.427C358.936 391.913 349.921 376.345 338.89 370.507C327.74 364.669 318.843 370.939 318.843 384.345Z" fill="#8BC29A"/>
<path opacity="0.3" d="M422.514 476.672L775.4 662.192L775.519 825.766L453.71 656.571L422.633 665.219L422.514 476.672Z" fill="url(#paint7_linear)"/>
<path opacity="0.15" d="M513.257 564.136L590.595 604.786V619.165L513.257 578.515V564.136Z" fill="#666666"/>
<path fill-rule="evenodd" clip-rule="evenodd" d="M494.278 569.106C494.278 582.62 485.382 588.782 474.232 582.944C463.2 577.106 454.186 561.43 454.186 548.024C454.186 534.51 463.082 528.348 474.232 534.186C485.263 540.024 494.16 555.7 494.278 569.106Z" fill="#76A482"/>
<path opacity="0.2" d="M231.185 147.688L180.417 120.984V105.416L231.185 132.12C235.337 134.282 241.386 138.715 246.487 145.526C252.062 152.769 255.976 161.959 255.976 171.905C255.976 182.932 252.892 189.203 247.08 190.933C241.623 192.554 235.099 189.744 231.185 187.689L210.308 176.662L210.19 176.554C208.411 175.581 205.564 174.608 203.31 175.256C201.412 175.797 199.396 177.419 199.396 183.581C199.396 189.744 201.531 193.419 203.191 195.69C205.326 198.501 208.173 200.447 209.953 201.312L210.19 201.42L274.006 235.043V250.611L210.546 217.204C206.157 215.15 199.87 210.717 194.414 203.798C188.483 196.122 184.45 186.5 184.45 175.797C184.45 165.094 188.483 159.688 194.295 158.175C199.751 156.769 206.038 158.823 210.427 161.202L231.066 172.121C234.032 173.743 236.286 174.392 237.828 173.959C239.014 173.635 241.149 172.121 241.149 164.229C241.149 159.04 239.37 155.688 237.59 153.526C235.574 150.607 232.964 148.553 231.185 147.688Z" fill="#666666"/>
<path fill-rule="evenodd" clip-rule="evenodd" d="M189.788 117.632C189.788 131.579 180.773 138.174 169.742 132.444C158.71 126.606 149.695 110.605 149.695 96.5505C149.695 82.604 158.71 76.0091 169.742 81.7391C180.773 87.5772 189.788 103.686 189.788 117.632Z" fill="#8BC29A"/>
<path fill-rule="evenodd" clip-rule="evenodd" d="M300.102 256.015C300.102 269.962 291.087 276.556 280.055 270.827C269.024 264.988 260.009 248.988 260.009 234.933C260.009 220.987 269.024 214.392 280.055 220.122C291.087 225.96 300.102 242.069 300.102 256.015Z" fill="#76A482"/>
<defs>
<linearGradient id="paint0_linear" x1="739.403" y1="-71.425" x2="344.356" y2="90.5566" gradientUnits="userSpaceOnUse">
<stop stop-color="#596A5E"/>
<stop offset="1" stop-color="white" stop-opacity="0.01"/>
</linearGradient>
<linearGradient id="paint1_linear" x1="695.038" y1="-153.639" x2="303.298" y2="40.9497" gradientUnits="userSpaceOnUse">
<stop stop-color="#596A5E"/>
<stop offset="1" stop-color="white" stop-opacity="0.01"/>
</linearGradient>
<linearGradient id="paint2_linear" x1="390.191" y1="-58.4996" x2="-1.54881" y2="136.09" gradientUnits="userSpaceOnUse">
<stop stop-color="#596A5E"/>
<stop offset="1" stop-color="white" stop-opacity="0.01"/>
</linearGradient>
<linearGradient id="paint3_linear" x1="696.225" y1="328.54" x2="304.485" y2="523.128" gradientUnits="userSpaceOnUse">
<stop stop-color="#596A5E"/>
<stop offset="1" stop-color="white" stop-opacity="0.01"/>
</linearGradient>
<linearGradient id="paint4_linear" x1="214.459" y1="466.002" x2="170.239" y2="650.346" gradientUnits="userSpaceOnUse">
<stop stop-color="#596A5E"/>
<stop offset="1" stop-color="white" stop-opacity="0.01"/>
</linearGradient>
<linearGradient id="paint5_linear" x1="129.023" y1="472.91" x2="134.697" y2="675.803" gradientUnits="userSpaceOnUse">
<stop stop-color="#596A5E"/>
<stop offset="1" stop-color="white" stop-opacity="0.01"/>
</linearGradient>
<linearGradient id="paint6_linear" x1="250.563" y1="203.925" x2="65.7747" y2="323.016" gradientUnits="userSpaceOnUse">
<stop stop-color="#596A5E"/>
<stop offset="1" stop-color="white" stop-opacity="0.01"/>
</linearGradient>
<linearGradient id="paint7_linear" x1="410.85" y1="502.568" x2="448.707" y2="833.068" gradientUnits="userSpaceOnUse">
<stop stop-color="#596A5E"/>
<stop offset="1" stop-color="white" stop-opacity="0.01"/>
</linearGradient>
</defs>
</svg>
