<svg width="508" height="485" viewBox="0 0 508 485" fill="none" xmlns="http://www.w3.org/2000/svg">
<path d="M105.672 125.107C105.672 131.136 100.705 132.324 95.0302 132.324C89.3554 132.324 86.5899 131.136 86.5899 125.107C86.5899 119.077 95.2269 109.319 100.902 109.319C106.576 109.319 105.672 115.948 105.672 125.107Z" fill="#72A2CF"/>
<path d="M203.819 400.801C211.937 405.177 210.142 413.147 206.265 421.267C202.387 429.387 198.899 432.483 190.781 428.106C182.663 423.73 175.426 404.29 179.303 396.169C183.18 388.049 191.487 394.154 203.819 400.801Z" fill="#72A2CF"/>
<path d="M433.128 99.0669C437.438 101.39 436.485 105.622 434.427 109.934C432.368 114.245 430.516 115.889 426.205 113.565C421.894 111.242 418.052 100.919 420.11 96.6076C422.169 92.296 426.58 95.5374 433.128 99.0669Z" fill="#72A2CF"/>
<path d="M254.862 73.1642C314.037 70.0733 365.667 72.0948 406.633 90.4322C447.38 108.672 477.837 143.182 494.458 205.749C500.468 322.957 410.383 422.898 293.155 429.021C234.58 432.081 164.955 404.551 109.141 361.376C53.3041 318.184 11.7829 259.726 8.73391 201.354C7.20927 172.166 14.4321 150.108 27.7975 133.263C41.1953 116.377 60.9138 104.543 84.6957 96.117C131.301 79.6035 192.809 76.3982 250.981 73.3666C252.276 73.2991 253.57 73.2317 254.862 73.1642Z" stroke="#ABD2B5" stroke-width="4"/>
<path d="M132.562 282.07C116.671 235.124 106.63 193.157 112.106 156.1C117.546 119.279 138.358 87.0228 184.885 59.5128C277.724 28.2069 378.399 78.0182 409.819 170.846C425.517 217.224 419.139 279.44 397.033 334.116C374.917 388.818 337.301 435.391 291.117 451.024C268.022 458.841 248.708 458.015 232.2 451.103C215.645 444.171 201.694 431.025 189.543 413.813C165.718 380.064 149.218 331.3 133.595 285.123C133.25 284.104 132.906 283.086 132.562 282.07Z" stroke="#ABD2B5" stroke-width="4"/>
</svg>
