<svg width="70" height="70" viewBox="0 0 70 70" fill="none" xmlns="http://www.w3.org/2000/svg">
<rect width="70" height="70" rx="15" fill="#9DC8AD"/>
<path d="M36.4063 44.9165C35.9032 44.9159 35.4206 44.7176 35.0625 44.3644L28.3854 37.6769C28.2141 37.5065 28.1073 37.2819 28.0833 37.0415L27.1667 27.3019C27.1526 27.1493 27.1724 26.9955 27.2247 26.8515C27.2769 26.7075 27.3602 26.5767 27.4688 26.4686C27.5769 26.36 27.7076 26.2767 27.8517 26.2245C27.9957 26.1723 28.1495 26.1525 28.3021 26.1665L38.0417 27.0832C38.2821 27.1071 38.5067 27.2139 38.6771 27.3852L45.3646 34.0623C45.7189 34.4177 45.9179 34.899 45.9179 35.4009C45.9179 35.9027 45.7189 36.384 45.3646 36.7394L37.7396 44.3644C37.3853 44.717 36.9061 44.9154 36.4063 44.9165ZM30.1563 36.4686L36.4063 42.7186L43.75 35.3748L37.5 29.1248L29.3646 28.3644L30.1563 36.4686Z" fill="#149211"/>
<path d="M33.9375 34.5C34.8004 34.5 35.5 33.8004 35.5 32.9375C35.5 32.0746 34.8004 31.375 33.9375 31.375C33.0746 31.375 32.375 32.0746 32.375 32.9375C32.375 33.8004 33.0746 34.5 33.9375 34.5Z" fill="#149211"/>
</svg>
