<svg width="616" height="446" viewBox="0 0 616 446" fill="none" xmlns="http://www.w3.org/2000/svg">
<path d="M120.922 37.2666C213.196 37.2666 277.436 37.6798 531.911 37.2666C641.659 49.7202 641.659 183.93 531.911 197.754C408.187 197.754 66.3019 197.153 66.3019 197.153C-19.2892 211.579 -21.6954 341.532 66.3019 365.455C139.693 365.455 408.281 365.455 508.375 365.455" stroke="#9DC8AD" stroke-linecap="round" stroke-linejoin="round"/>
<path d="M474.381 436.44V425.065H477.592C478.581 425.065 479.456 425.284 480.217 425.722C480.977 426.159 481.563 426.782 481.974 427.589C482.391 428.396 482.602 429.323 482.607 430.37V431.097C482.607 432.17 482.399 433.11 481.982 433.917C481.571 434.724 480.98 435.344 480.209 435.776C479.443 436.209 478.55 436.43 477.529 436.44H474.381ZM475.881 426.3V435.214H477.459C478.615 435.214 479.513 434.854 480.154 434.136C480.8 433.417 481.123 432.394 481.123 431.065V430.401C481.123 429.11 480.818 428.107 480.209 427.394C479.605 426.675 478.745 426.31 477.631 426.3H475.881ZM484.271 432.136C484.271 431.308 484.433 430.563 484.756 429.901C485.084 429.24 485.537 428.729 486.115 428.37C486.698 428.011 487.362 427.831 488.107 427.831C489.258 427.831 490.188 428.229 490.896 429.026C491.61 429.823 491.967 430.883 491.967 432.206V432.308C491.967 433.131 491.808 433.87 491.49 434.526C491.177 435.177 490.727 435.685 490.138 436.05C489.555 436.414 488.883 436.597 488.123 436.597C486.977 436.597 486.047 436.198 485.334 435.401C484.625 434.604 484.271 433.55 484.271 432.237V432.136ZM485.724 432.308C485.724 433.245 485.941 433.998 486.373 434.565C486.81 435.133 487.394 435.417 488.123 435.417C488.857 435.417 489.441 435.131 489.873 434.558C490.305 433.979 490.521 433.172 490.521 432.136C490.521 431.209 490.3 430.459 489.857 429.886C489.42 429.308 488.836 429.019 488.107 429.019C487.394 429.019 486.818 429.302 486.381 429.87C485.943 430.438 485.724 431.25 485.724 432.308ZM501.263 434.448L502.888 427.987H504.334L501.873 436.44H500.701L498.646 430.034L496.646 436.44H495.474L493.021 427.987H494.459L496.123 434.315L498.092 427.987H499.256L501.263 434.448ZM507.177 427.987L507.224 429.05C507.87 428.237 508.714 427.831 509.756 427.831C511.542 427.831 512.443 428.839 512.459 430.854V436.44H511.013V430.847C511.008 430.237 510.868 429.787 510.592 429.495C510.321 429.203 509.896 429.058 509.318 429.058C508.849 429.058 508.438 429.183 508.084 429.433C507.73 429.683 507.454 430.011 507.256 430.417V436.44H505.81V427.987H507.177ZM516.209 436.44H514.763V424.44H516.209V436.44ZM518.146 432.136C518.146 431.308 518.308 430.563 518.631 429.901C518.959 429.24 519.412 428.729 519.99 428.37C520.573 428.011 521.237 427.831 521.982 427.831C523.133 427.831 524.063 428.229 524.771 429.026C525.485 429.823 525.842 430.883 525.842 432.206V432.308C525.842 433.131 525.683 433.87 525.365 434.526C525.052 435.177 524.602 435.685 524.013 436.05C523.43 436.414 522.758 436.597 521.998 436.597C520.852 436.597 519.922 436.198 519.209 435.401C518.5 434.604 518.146 433.55 518.146 432.237V432.136ZM519.599 432.308C519.599 433.245 519.816 433.998 520.248 434.565C520.685 435.133 521.269 435.417 521.998 435.417C522.732 435.417 523.316 435.131 523.748 434.558C524.18 433.979 524.396 433.172 524.396 432.136C524.396 431.209 524.175 430.459 523.732 429.886C523.295 429.308 522.711 429.019 521.982 429.019C521.269 429.019 520.693 429.302 520.256 429.87C519.818 430.438 519.599 431.25 519.599 432.308ZM532.873 436.44C532.789 436.274 532.722 435.977 532.67 435.55C531.998 436.248 531.196 436.597 530.263 436.597C529.43 436.597 528.745 436.362 528.209 435.894C527.677 435.42 527.412 434.821 527.412 434.097C527.412 433.216 527.745 432.534 528.412 432.05C529.084 431.56 530.026 431.315 531.24 431.315H532.646V430.651C532.646 430.146 532.495 429.745 532.193 429.448C531.891 429.146 531.446 428.995 530.857 428.995C530.342 428.995 529.909 429.125 529.56 429.386C529.211 429.646 529.037 429.961 529.037 430.331H527.584C527.584 429.909 527.732 429.503 528.029 429.112C528.331 428.716 528.737 428.404 529.248 428.175C529.763 427.946 530.329 427.831 530.943 427.831C531.917 427.831 532.68 428.076 533.232 428.565C533.784 429.05 534.071 429.719 534.092 430.573V434.464C534.092 435.24 534.191 435.857 534.388 436.315V436.44H532.873ZM530.474 435.339C530.927 435.339 531.357 435.222 531.763 434.987C532.17 434.753 532.464 434.448 532.646 434.073V432.339H531.513C529.743 432.339 528.857 432.857 528.857 433.894C528.857 434.347 529.008 434.701 529.31 434.956C529.612 435.211 530 435.339 530.474 435.339ZM536.006 432.144C536.006 430.847 536.313 429.805 536.927 429.019C537.542 428.227 538.347 427.831 539.342 427.831C540.331 427.831 541.115 428.17 541.693 428.847V424.44H543.138V436.44H541.81L541.74 435.534C541.162 436.243 540.357 436.597 539.326 436.597C538.347 436.597 537.547 436.196 536.927 435.394C536.313 434.591 536.006 433.545 536.006 432.253V432.144ZM537.451 432.308C537.451 433.266 537.649 434.016 538.045 434.558C538.441 435.099 538.987 435.37 539.685 435.37C540.602 435.37 541.271 434.959 541.693 434.136V430.253C541.261 429.456 540.597 429.058 539.701 429.058C538.993 429.058 538.441 429.331 538.045 429.878C537.649 430.425 537.451 431.235 537.451 432.308Z" fill="#4C4D5F"/>
<path fill-rule="evenodd" clip-rule="evenodd" d="M303.125 411.015C286.542 411.015 273.109 397.637 273.109 381.126V368.729C273.109 352.217 286.542 338.84 303.125 338.84C319.707 338.84 333.14 352.217 333.14 368.729V381.126C333.14 397.637 319.707 411.015 303.125 411.015Z" fill="#A4D0B4"/>
<path fill-rule="evenodd" clip-rule="evenodd" d="M310.492 403.695C293.91 403.695 280.478 390.318 280.478 373.806V361.41C280.478 344.898 293.91 331.521 310.492 331.521C327.076 331.521 340.508 344.898 340.508 361.41V373.806C340.492 390.318 327.056 403.695 310.492 403.695Z" fill="white"/>
<path fill-rule="evenodd" clip-rule="evenodd" d="M299.485 332.466C289.515 332.466 281.409 340.538 281.409 350.466V384.75C281.409 394.678 289.515 402.75 299.485 402.75H321.465C331.435 402.75 339.542 394.678 339.542 384.75V350.466C339.542 340.538 331.435 332.466 321.465 332.466H299.485ZM321.483 404.624H299.503C288.495 404.624 279.545 395.711 279.545 384.75V350.466C279.545 339.505 288.495 330.593 299.503 330.593H321.483C332.492 330.593 341.441 339.505 341.441 350.466V384.75C341.425 395.711 332.473 404.624 321.483 404.624Z" fill="#9DC8AD"/>
<path fill-rule="evenodd" clip-rule="evenodd" d="M300.646 358.17L293.471 365.314L289.339 361.182" fill="white"/>
<path fill-rule="evenodd" clip-rule="evenodd" d="M293.471 366.242C293.225 366.242 292.979 366.137 292.803 365.961L288.673 361.829C288.302 361.463 288.302 360.884 288.673 360.516C289.04 360.15 289.62 360.15 289.991 360.516L293.471 363.983L299.977 357.504C300.347 357.137 300.927 357.137 301.296 357.504C301.665 357.872 301.665 358.45 301.296 358.818L294.122 365.961C293.964 366.137 293.717 366.242 293.471 366.242Z" fill="#9DC8AD"/>
<path fill-rule="evenodd" clip-rule="evenodd" d="M332.649 362.495H307.924C307.414 362.495 306.994 362.074 306.994 361.567C306.994 361.059 307.414 360.639 307.924 360.639H332.649C333.159 360.639 333.579 361.059 333.579 361.567C333.599 362.074 333.177 362.495 332.649 362.495Z" fill="#9DC8AD"/>
<path fill-rule="evenodd" clip-rule="evenodd" d="M300.646 376.538L293.471 383.682L289.339 379.55" fill="white"/>
<path fill-rule="evenodd" clip-rule="evenodd" d="M293.471 384.61C293.225 384.61 292.979 384.505 292.803 384.33L288.673 380.197C288.302 379.83 288.302 379.234 288.673 378.884C289.04 378.516 289.62 378.516 289.991 378.884L293.471 382.351L299.977 375.872C300.347 375.505 300.927 375.505 301.296 375.872C301.665 376.24 301.665 376.818 301.296 377.186L294.122 384.33C293.964 384.522 293.717 384.61 293.471 384.61Z" fill="#9DC8AD"/>
<path fill-rule="evenodd" clip-rule="evenodd" d="M323.857 380.863H307.944C307.434 380.863 307.012 380.443 307.012 379.935C307.012 379.427 307.434 379.007 307.944 379.007H323.857C324.367 379.007 324.787 379.427 324.787 379.935C324.787 380.443 324.367 380.863 323.857 380.863Z" fill="#9DC8AD"/>
<path fill-rule="evenodd" clip-rule="evenodd" d="M282.095 349.626H338.98V343.13H282.095V349.626Z" fill="#9DC8AD"/>
<path d="M287.88 431.934H283.106V436.957H281.606V425.582H288.653V426.816H283.106V430.707H287.88V431.934ZM291.794 436.957H290.348V428.504H291.794V436.957ZM290.231 426.262C290.231 426.027 290.302 425.829 290.442 425.668C290.588 425.507 290.802 425.426 291.083 425.426C291.364 425.426 291.578 425.507 291.723 425.668C291.869 425.829 291.942 426.027 291.942 426.262C291.942 426.496 291.869 426.691 291.723 426.848C291.578 427.004 291.364 427.082 291.083 427.082C290.802 427.082 290.588 427.004 290.442 426.848C290.302 426.691 290.231 426.496 290.231 426.262ZM295.684 436.957H294.239V424.957H295.684V436.957ZM299.575 436.957H298.13V424.957H299.575V436.957ZM307.7 436.957H306.2V425.582H307.7V436.957ZM311.591 428.504L311.637 429.566C312.283 428.754 313.127 428.348 314.169 428.348C315.955 428.348 316.856 429.355 316.872 431.371V436.957H315.427V431.363C315.421 430.754 315.281 430.303 315.005 430.012C314.734 429.72 314.309 429.574 313.731 429.574C313.262 429.574 312.851 429.699 312.497 429.949C312.143 430.199 311.867 430.527 311.669 430.934V436.957H310.223V428.504H311.591Z" fill="#4C4D5F"/>
<g clip-path="url(#clip0)">
<path d="M511.179 335.334C510.87 335.007 510.445 334.812 510.005 334.812H483.656C478.794 334.812 474.781 338.811 474.781 343.675V393.524C474.781 398.388 478.794 402.387 483.656 402.387H519.418C524.28 402.387 528.294 398.388 528.294 393.524V353.941C528.294 353.517 528.098 353.109 527.82 352.799L511.179 335.334ZM511.652 340.573L522.796 352.277H515.552C513.398 352.277 511.652 350.547 511.652 348.392V340.573ZM519.418 399.123H483.656C480.605 399.123 478.044 396.593 478.044 393.524V343.675C478.044 340.622 480.589 338.076 483.656 338.076H508.389V348.392C508.389 352.358 511.587 355.541 515.552 355.541H525.031V393.524C525.031 396.593 522.485 399.123 519.418 399.123Z" fill="#A4D0B4"/>
<path d="M514.964 387.86H488.11C487.213 387.86 486.478 388.595 486.478 389.493C486.478 390.39 487.213 391.125 488.11 391.125H514.981C515.878 391.125 516.612 390.39 516.612 389.493C516.612 388.595 515.878 387.86 514.964 387.86Z" fill="#9DC8AD"/>
<path d="M500.346 382.001C500.656 382.327 501.08 382.523 501.537 382.523C501.994 382.523 502.418 382.327 502.728 382.001L512.289 371.734C512.909 371.08 512.86 370.036 512.207 369.432C511.554 368.812 510.51 368.86 509.907 369.514L503.168 376.744V358.92C503.168 358.022 502.434 357.288 501.537 357.288C500.64 357.288 499.905 358.022 499.905 358.92V376.744L493.184 369.514C492.564 368.861 491.536 368.812 490.883 369.432C490.231 370.052 490.182 371.081 490.802 371.734L500.346 382.001Z" fill="#9DC8AD"/>
</g>
<path fill-rule="evenodd" clip-rule="evenodd" d="M73.2233 354.48V396.412C73.2233 396.776 73.5112 397.06 73.8759 397.06H134.717C143.891 397.06 151.318 389.693 151.318 380.597V332.231C151.318 331.868 151.031 331.584 150.668 331.584H73.8759" fill="white"/>
<path fill-rule="evenodd" clip-rule="evenodd" d="M134.698 398.069H73.8573C72.936 398.069 72.1875 397.326 72.1875 396.413V354.481C72.1875 353.929 72.6481 353.472 73.2047 353.472C73.7613 353.472 74.2219 353.929 74.2219 354.481V396.051H134.679C143.277 396.051 150.263 389.123 150.263 380.595V332.61H73.8381C73.2815 332.61 72.8209 332.154 72.8209 331.602C72.8209 331.05 73.2815 330.593 73.8381 330.593H150.628C151.549 330.593 152.298 331.335 152.298 332.249V380.595C152.317 390.227 144.41 398.069 134.698 398.069Z" fill="#9DC8AD"/>
<path fill-rule="evenodd" clip-rule="evenodd" d="M81.6503 376.52H96.9833V343.326H81.6503V376.52Z" fill="#A4D0B4"/>
<path fill-rule="evenodd" clip-rule="evenodd" d="M104.95 363.464H120.285V343.326H104.95V363.464Z" fill="white"/>
<path fill-rule="evenodd" clip-rule="evenodd" d="M105.967 362.456H119.249V344.336H105.967V362.456ZM120.285 364.474H104.95C104.394 364.474 103.931 364.017 103.931 363.465V343.327C103.931 342.775 104.394 342.318 104.95 342.318H120.285C120.842 342.318 121.3 342.775 121.3 343.327V363.465C121.3 364.017 120.842 364.474 120.285 364.474Z" fill="#9DC8AD"/>
<path fill-rule="evenodd" clip-rule="evenodd" d="M127.615 369.327H142.95V343.326H127.615V369.327Z" fill="white"/>
<path fill-rule="evenodd" clip-rule="evenodd" d="M128.632 368.299H141.913V344.335H128.632V368.299ZM142.933 370.317H127.596C127.039 370.317 126.578 369.86 126.578 369.308V343.308C126.578 342.756 127.039 342.299 127.596 342.299H142.933C143.489 342.299 143.95 342.756 143.95 343.308V369.308C143.95 369.879 143.506 370.317 142.933 370.317Z" fill="#9DC8AD"/>
<path fill-rule="evenodd" clip-rule="evenodd" d="M81.6503 353.395H96.9833V343.326H81.6503V353.395Z" fill="#9DC8AD"/>
<path fill-rule="evenodd" clip-rule="evenodd" d="M104.95 349.436H120.285V343.326H104.95V349.436Z" fill="#9DC8AD"/>
<path fill-rule="evenodd" clip-rule="evenodd" d="M127.615 351.206H142.95V343.326H127.615V351.206Z" fill="#9DC8AD"/>
<path d="M80.5692 431.119C80.5692 432.234 80.3817 433.208 80.0067 434.041C79.6317 434.869 79.1005 435.502 78.413 435.939C77.7255 436.377 76.9234 436.596 76.0067 436.596C75.1109 436.596 74.3166 436.377 73.6239 435.939C72.9312 435.497 72.3921 434.869 72.0067 434.057C71.6265 433.239 71.4312 432.294 71.4208 431.221V430.4C71.4208 429.307 71.6109 428.34 71.9911 427.502C72.3713 426.663 72.9078 426.023 73.6005 425.58C74.2984 425.132 75.0953 424.908 75.9911 424.908C76.9025 424.908 77.7046 425.13 78.3973 425.572C79.0953 426.01 79.6317 426.648 80.0067 427.486C80.3817 428.32 80.5692 429.291 80.5692 430.4V431.119ZM79.077 430.385C79.077 429.036 78.8062 428.002 78.2645 427.283C77.7229 426.559 76.965 426.197 75.9911 426.197C75.0432 426.197 74.2958 426.559 73.7489 427.283C73.2072 428.002 72.9286 429.002 72.913 430.283V431.119C72.913 432.426 73.1864 433.455 73.7333 434.205C74.2854 434.95 75.0432 435.322 76.0067 435.322C76.9755 435.322 77.7255 434.971 78.2567 434.268C78.788 433.559 79.0614 432.546 79.077 431.229V430.385ZM85.3817 434.479L87.4755 427.986H88.952L85.9208 436.439H84.8192L81.7567 427.986H83.2333L85.3817 434.479ZM93.7411 436.596C92.5953 436.596 91.663 436.221 90.9442 435.471C90.2255 434.715 89.8661 433.708 89.8661 432.447V432.182C89.8661 431.343 90.0249 430.596 90.3427 429.939C90.6656 429.278 91.1135 428.762 91.6864 428.393C92.2645 428.018 92.8895 427.83 93.5614 427.83C94.6604 427.83 95.5145 428.192 96.1239 428.916C96.7333 429.64 97.038 430.676 97.038 432.025V432.627H91.3114C91.3322 433.46 91.5744 434.135 92.038 434.65C92.5067 435.161 93.1005 435.416 93.8192 435.416C94.3296 435.416 94.7619 435.312 95.1161 435.104C95.4703 434.895 95.7802 434.619 96.0458 434.275L96.9286 434.963C96.2203 436.051 95.1578 436.596 93.7411 436.596ZM93.5614 429.018C92.9781 429.018 92.4885 429.231 92.0927 429.658C91.6968 430.08 91.452 430.674 91.3583 431.439H95.5927V431.33C95.551 430.596 95.3531 430.028 94.9989 429.627C94.6447 429.221 94.1656 429.018 93.5614 429.018ZM102.804 429.283C102.585 429.247 102.348 429.229 102.093 429.229C101.145 429.229 100.502 429.632 100.163 430.439V436.439H98.7177V427.986H100.124L100.147 428.963C100.621 428.208 101.293 427.83 102.163 427.83C102.444 427.83 102.658 427.867 102.804 427.939V429.283ZM107.069 434.479L109.163 427.986H110.64L107.608 436.439H106.507L103.444 427.986H104.921L107.069 434.479ZM113.6 436.439H112.155V427.986H113.6V436.439ZM112.038 425.744C112.038 425.51 112.108 425.312 112.249 425.15C112.395 424.989 112.608 424.908 112.89 424.908C113.171 424.908 113.384 424.989 113.53 425.15C113.676 425.312 113.749 425.51 113.749 425.744C113.749 425.979 113.676 426.174 113.53 426.33C113.384 426.486 113.171 426.564 112.89 426.564C112.608 426.564 112.395 426.486 112.249 426.33C112.108 426.174 112.038 425.979 112.038 425.744ZM119.429 436.596C118.283 436.596 117.35 436.221 116.632 435.471C115.913 434.715 115.554 433.708 115.554 432.447V432.182C115.554 431.343 115.712 430.596 116.03 429.939C116.353 429.278 116.801 428.762 117.374 428.393C117.952 428.018 118.577 427.83 119.249 427.83C120.348 427.83 121.202 428.192 121.811 428.916C122.421 429.64 122.725 430.676 122.725 432.025V432.627H116.999C117.02 433.46 117.262 434.135 117.725 434.65C118.194 435.161 118.788 435.416 119.507 435.416C120.017 435.416 120.449 435.312 120.804 435.104C121.158 434.895 121.468 434.619 121.733 434.275L122.616 434.963C121.908 436.051 120.845 436.596 119.429 436.596ZM119.249 429.018C118.666 429.018 118.176 429.231 117.78 429.658C117.384 430.08 117.14 430.674 117.046 431.439H121.28V431.33C121.238 430.596 121.041 430.028 120.686 429.627C120.332 429.221 119.853 429.018 119.249 429.018ZM131.89 434.447L133.515 427.986H134.96L132.499 436.439H131.327L129.272 430.033L127.272 436.439H126.1L123.647 427.986H125.085L126.749 434.314L128.718 427.986H129.882L131.89 434.447Z" fill="#4C4D5F"/>
<path fill-rule="evenodd" clip-rule="evenodd" d="M503.948 230.915C502.436 231.106 500.88 231.209 499.31 231.209C479.568 231.209 463.569 215.194 463.569 195.432C463.569 175.67 479.568 159.654 499.31 159.654C519.052 159.654 535.05 175.67 535.05 195.432C535.05 199.546 534.361 203.513 533.07 207.201" fill="white"/>
<path fill-rule="evenodd" clip-rule="evenodd" d="M499.31 231.988C498.884 231.988 498.517 231.636 498.517 231.21C498.517 230.784 498.855 230.431 499.28 230.431C500.836 230.431 502.363 230.328 503.86 230.137C504.286 230.078 504.682 230.387 504.741 230.813C504.799 231.239 504.491 231.636 504.065 231.695C502.495 231.886 500.895 231.988 499.31 231.988Z" fill="#9DC8AD"/>
<mask id="mask0" mask-type="alpha" maskUnits="userSpaceOnUse" x="462" y="159" width="73" height="70">
<path d="M462.92 159.437H534.625V228.211H462.92V159.437Z" fill="white"/>
</mask>
<g mask="url(#mask0)">
<path fill-rule="evenodd" clip-rule="evenodd" d="M483.677 164.047C483.385 164.047 483.105 163.886 482.974 163.606C482.783 163.224 482.943 162.754 483.341 162.563C486.394 161.079 489.623 160.021 492.968 159.448C493.394 159.375 493.805 159.654 493.878 160.08C493.952 160.506 493.674 160.918 493.249 160.991C490.049 161.549 486.95 162.563 484.029 163.974C483.912 164.018 483.794 164.047 483.677 164.047ZM518.508 166.045C518.363 166.045 518.215 166.001 518.082 165.928C515.338 164.179 512.374 162.828 509.276 161.902C508.865 161.784 508.63 161.344 508.747 160.932C508.865 160.521 509.306 160.286 509.716 160.403C512.96 161.373 516.058 162.784 518.921 164.62C519.288 164.855 519.389 165.34 519.154 165.693C519.007 165.913 518.758 166.045 518.508 166.045ZM466.079 183.06C465.975 183.06 465.889 183.045 465.786 183.001C465.388 182.84 465.183 182.384 465.345 181.987C466.592 178.843 468.281 175.875 470.349 173.172C470.615 172.834 471.099 172.76 471.45 173.025C471.788 173.289 471.861 173.774 471.598 174.127C469.615 176.713 468.001 179.548 466.813 182.56C466.68 182.869 466.388 183.06 466.079 183.06ZM533.832 186.954C533.495 186.954 533.173 186.718 533.084 186.381C532.248 183.251 530.971 180.239 529.297 177.462C529.078 177.095 529.195 176.61 529.562 176.389C529.929 176.169 530.414 176.286 530.632 176.654C532.38 179.563 533.715 182.707 534.595 185.984C534.714 186.395 534.465 186.836 534.039 186.939C533.966 186.939 533.891 186.954 533.832 186.954ZM465.916 208.978C465.608 208.978 465.3 208.787 465.183 208.479C463.979 205.305 463.217 201.985 462.922 198.605C462.894 198.179 463.202 197.797 463.628 197.753C464.054 197.709 464.435 198.032 464.478 198.473C464.757 201.72 465.478 204.894 466.637 207.921C466.782 208.317 466.592 208.773 466.181 208.934C466.107 208.964 466.005 208.978 465.916 208.978ZM483.295 228.212C483.178 228.212 483.06 228.182 482.943 228.123C479.919 226.595 477.116 224.671 474.621 222.364C474.298 222.07 474.284 221.57 474.578 221.262C474.87 220.939 475.371 220.924 475.679 221.218C478.071 223.422 480.757 225.273 483.648 226.728C484.029 226.919 484.192 227.389 484.001 227.771C483.853 228.05 483.576 228.212 483.295 228.212Z" fill="#9DC8AD"/>
</g>
<path fill-rule="evenodd" clip-rule="evenodd" d="M533.069 207.994C532.981 207.994 532.893 207.98 532.805 207.95C532.394 207.803 532.189 207.363 532.321 206.951C532.82 205.511 533.231 204.027 533.539 202.529C533.627 202.102 534.038 201.838 534.464 201.926C534.89 202.014 535.154 202.426 535.066 202.852C534.743 204.424 534.317 205.967 533.789 207.465C533.686 207.789 533.392 207.994 533.069 207.994Z" fill="#9DC8AD"/>
<path fill-rule="evenodd" clip-rule="evenodd" d="M522.853 212.373C529.638 212.373 535.139 217.88 535.139 224.671C535.139 231.464 529.638 236.969 522.853 236.969C516.068 236.969 510.568 231.464 510.568 224.671C510.568 217.88 516.068 212.373 522.853 212.373Z" fill="#A4D0B4"/>
<path fill-rule="evenodd" clip-rule="evenodd" d="M498.898 174.993V196.078L508.19 205.378" fill="white"/>
<path fill-rule="evenodd" clip-rule="evenodd" d="M508.19 206.172C507.984 206.172 507.793 206.099 507.632 205.937L498.341 196.636C498.194 196.489 498.106 196.284 498.106 196.078V174.994C498.106 174.567 498.458 174.215 498.884 174.215C499.309 174.215 499.662 174.567 499.662 174.994V195.755L508.733 204.82C509.041 205.129 509.041 205.614 508.733 205.922C508.587 206.099 508.397 206.172 508.19 206.172Z" fill="#9DC8AD"/>
<path fill-rule="evenodd" clip-rule="evenodd" d="M499.31 191.317C501.588 191.317 503.434 193.166 503.434 195.446C503.434 197.726 501.588 199.575 499.31 199.575C497.032 199.575 495.185 197.726 495.185 195.446C495.185 193.166 497.032 191.317 499.31 191.317Z" fill="#9DC8AD"/>
<path fill-rule="evenodd" clip-rule="evenodd" d="M521.856 228.917C521.649 228.917 521.445 228.829 521.298 228.682L517.849 225.214C517.54 224.906 517.54 224.421 517.849 224.112C518.155 223.804 518.641 223.804 518.95 224.112L521.856 227.021L527.285 221.585C527.594 221.276 528.078 221.276 528.386 221.585C528.694 221.893 528.694 222.378 528.386 222.687L522.399 228.682C522.265 228.843 522.061 228.917 521.856 228.917Z" fill="#9DC8AD"/>
<path d="M472.784 261.415H469.128V271.556H467.635V261.415H463.987V260.181H472.784V261.415ZM478.573 271.556C478.49 271.389 478.422 271.092 478.37 270.665C477.698 271.363 476.896 271.712 475.964 271.712C475.13 271.712 474.445 271.478 473.909 271.009C473.378 270.535 473.112 269.936 473.112 269.212C473.112 268.332 473.445 267.649 474.112 267.165C474.784 266.675 475.727 266.431 476.94 266.431H478.346V265.767C478.346 265.261 478.195 264.86 477.893 264.563C477.591 264.261 477.146 264.11 476.557 264.11C476.042 264.11 475.609 264.241 475.26 264.501C474.911 264.761 474.737 265.076 474.737 265.446H473.284C473.284 265.024 473.432 264.618 473.729 264.228C474.031 263.832 474.438 263.519 474.948 263.29C475.464 263.061 476.029 262.946 476.643 262.946C477.617 262.946 478.38 263.191 478.932 263.681C479.484 264.165 479.771 264.834 479.792 265.688V269.579C479.792 270.355 479.891 270.972 480.089 271.431V271.556H478.573ZM476.174 270.454C476.628 270.454 477.057 270.337 477.464 270.103C477.87 269.868 478.164 269.563 478.346 269.188V267.454H477.214C475.443 267.454 474.557 267.972 474.557 269.009C474.557 269.462 474.708 269.816 475.01 270.071C475.313 270.326 475.701 270.454 476.174 270.454ZM484.417 267.642L483.51 268.587V271.556H482.065V259.556H483.51V266.813L484.284 265.884L486.917 263.103H488.674L485.385 266.634L489.057 271.556H487.362L484.417 267.642ZM493.518 271.712C492.372 271.712 491.44 271.337 490.721 270.587C490.003 269.832 489.643 268.824 489.643 267.563V267.298C489.643 266.459 489.802 265.712 490.12 265.056C490.443 264.394 490.891 263.879 491.464 263.509C492.042 263.134 492.667 262.946 493.339 262.946C494.438 262.946 495.292 263.308 495.901 264.032C496.51 264.756 496.815 265.793 496.815 267.142V267.743H491.089C491.109 268.576 491.352 269.251 491.815 269.767C492.284 270.277 492.878 270.532 493.596 270.532C494.107 270.532 494.539 270.428 494.893 270.22C495.247 270.011 495.557 269.735 495.823 269.392L496.706 270.079C495.997 271.168 494.935 271.712 493.518 271.712ZM493.339 264.134C492.755 264.134 492.266 264.347 491.87 264.774C491.474 265.196 491.229 265.79 491.135 266.556H495.37V266.446C495.328 265.712 495.13 265.144 494.776 264.743C494.422 264.337 493.943 264.134 493.339 264.134ZM506.042 266.485C504.755 266.116 503.818 265.662 503.229 265.126C502.646 264.584 502.354 263.918 502.354 263.126C502.354 262.23 502.711 261.491 503.424 260.907C504.143 260.319 505.076 260.024 506.221 260.024C507.003 260.024 507.698 260.175 508.307 260.478C508.922 260.78 509.396 261.196 509.729 261.728C510.068 262.259 510.237 262.84 510.237 263.47H508.729C508.729 262.782 508.51 262.243 508.073 261.853C507.635 261.457 507.018 261.259 506.221 261.259C505.482 261.259 504.904 261.423 504.487 261.751C504.076 262.074 503.87 262.524 503.87 263.103C503.87 263.566 504.065 263.959 504.456 264.282C504.852 264.6 505.521 264.892 506.464 265.157C507.411 265.423 508.151 265.717 508.682 266.04C509.219 266.358 509.615 266.73 509.87 267.157C510.13 267.584 510.26 268.087 510.26 268.665C510.26 269.587 509.901 270.326 509.182 270.884C508.464 271.436 507.503 271.712 506.299 271.712C505.518 271.712 504.789 271.563 504.112 271.267C503.435 270.965 502.911 270.553 502.542 270.032C502.177 269.511 501.995 268.92 501.995 268.259H503.503C503.503 268.946 503.755 269.491 504.26 269.892C504.771 270.287 505.451 270.485 506.299 270.485C507.091 270.485 507.698 270.324 508.12 270.001C508.542 269.678 508.753 269.238 508.753 268.681C508.753 268.123 508.557 267.694 508.167 267.392C507.776 267.084 507.068 266.782 506.042 266.485ZM511.581 267.251C511.581 266.423 511.742 265.678 512.065 265.017C512.393 264.355 512.846 263.845 513.424 263.485C514.008 263.126 514.672 262.946 515.417 262.946C516.568 262.946 517.497 263.345 518.206 264.142C518.919 264.938 519.276 265.998 519.276 267.321V267.423C519.276 268.246 519.117 268.985 518.799 269.642C518.487 270.293 518.036 270.8 517.448 271.165C516.865 271.53 516.193 271.712 515.432 271.712C514.286 271.712 513.357 271.313 512.643 270.517C511.935 269.72 511.581 268.665 511.581 267.353V267.251ZM513.034 267.423C513.034 268.36 513.25 269.113 513.682 269.681C514.12 270.248 514.703 270.532 515.432 270.532C516.167 270.532 516.75 270.246 517.182 269.673C517.615 269.095 517.831 268.287 517.831 267.251C517.831 266.324 517.609 265.574 517.167 265.001C516.729 264.423 516.146 264.134 515.417 264.134C514.703 264.134 514.128 264.418 513.69 264.985C513.253 265.553 513.034 266.366 513.034 267.423ZM522.448 263.103L522.487 264.04C523.107 263.311 523.943 262.946 524.995 262.946C526.177 262.946 526.982 263.399 527.409 264.306C527.69 263.899 528.055 263.571 528.503 263.321C528.956 263.071 529.49 262.946 530.104 262.946C531.958 262.946 532.901 263.928 532.932 265.892V271.556H531.487V265.978C531.487 265.373 531.349 264.923 531.073 264.626C530.797 264.324 530.333 264.173 529.682 264.173C529.146 264.173 528.701 264.334 528.346 264.657C527.992 264.975 527.786 265.405 527.729 265.946V271.556H526.276V266.017C526.276 264.787 525.674 264.173 524.471 264.173C523.523 264.173 522.875 264.576 522.526 265.384V271.556H521.081V263.103H522.448ZM538.628 271.712C537.482 271.712 536.549 271.337 535.831 270.587C535.112 269.832 534.753 268.824 534.753 267.563V267.298C534.753 266.459 534.911 265.712 535.229 265.056C535.552 264.394 536 263.879 536.573 263.509C537.151 263.134 537.776 262.946 538.448 262.946C539.547 262.946 540.401 263.308 541.01 264.032C541.62 264.756 541.924 265.793 541.924 267.142V267.743H536.198C536.219 268.576 536.461 269.251 536.924 269.767C537.393 270.277 537.987 270.532 538.706 270.532C539.216 270.532 539.648 270.428 540.003 270.22C540.357 270.011 540.667 269.735 540.932 269.392L541.815 270.079C541.107 271.168 540.044 271.712 538.628 271.712ZM538.448 264.134C537.865 264.134 537.375 264.347 536.979 264.774C536.583 265.196 536.339 265.79 536.245 266.556H540.479V266.446C540.438 265.712 540.24 265.144 539.885 264.743C539.531 264.337 539.052 264.134 538.448 264.134ZM555.346 261.415H551.69V271.556H550.198V261.415H546.549V260.181H555.346V261.415ZM558.378 271.556H556.932V263.103H558.378V271.556ZM556.815 260.86C556.815 260.626 556.885 260.428 557.026 260.267C557.172 260.105 557.385 260.024 557.667 260.024C557.948 260.024 558.161 260.105 558.307 260.267C558.453 260.428 558.526 260.626 558.526 260.86C558.526 261.095 558.453 261.29 558.307 261.446C558.161 261.603 557.948 261.681 557.667 261.681C557.385 261.681 557.172 261.603 557.026 261.446C556.885 261.29 556.815 261.095 556.815 260.86ZM562.057 263.103L562.096 264.04C562.716 263.311 563.552 262.946 564.604 262.946C565.786 262.946 566.591 263.399 567.018 264.306C567.299 263.899 567.664 263.571 568.112 263.321C568.565 263.071 569.099 262.946 569.714 262.946C571.568 262.946 572.51 263.928 572.542 265.892V271.556H571.096V265.978C571.096 265.373 570.958 264.923 570.682 264.626C570.406 264.324 569.943 264.173 569.292 264.173C568.755 264.173 568.31 264.334 567.956 264.657C567.602 264.975 567.396 265.405 567.339 265.946V271.556H565.885V266.017C565.885 264.787 565.284 264.173 564.081 264.173C563.133 264.173 562.484 264.576 562.135 265.384V271.556H560.69V263.103H562.057ZM578.237 271.712C577.091 271.712 576.159 271.337 575.44 270.587C574.721 269.832 574.362 268.824 574.362 267.563V267.298C574.362 266.459 574.521 265.712 574.839 265.056C575.161 264.394 575.609 263.879 576.182 263.509C576.76 263.134 577.385 262.946 578.057 262.946C579.156 262.946 580.01 263.308 580.62 264.032C581.229 264.756 581.534 265.793 581.534 267.142V267.743H575.807C575.828 268.576 576.07 269.251 576.534 269.767C577.003 270.277 577.596 270.532 578.315 270.532C578.826 270.532 579.258 270.428 579.612 270.22C579.966 270.011 580.276 269.735 580.542 269.392L581.424 270.079C580.716 271.168 579.654 271.712 578.237 271.712ZM578.057 264.134C577.474 264.134 576.984 264.347 576.589 264.774C576.193 265.196 575.948 265.79 575.854 266.556H580.089V266.446C580.047 265.712 579.849 265.144 579.495 264.743C579.141 264.337 578.661 264.134 578.057 264.134Z" fill="#4C4D5F"/>
<path fill-rule="evenodd" clip-rule="evenodd" d="M304.352 155.078H325.666C334.195 155.078 341.095 161.988 341.095 170.491V221.851L334.162 229.499L327.227 221.851L319.75 229.499L312.403 221.851L305.059 229.499L297.993 221.851L290.647 229.499L284.598 221.851V155.62" fill="#A4D0B4"/>
<path fill-rule="evenodd" clip-rule="evenodd" d="M294.953 164.319H316.267C324.794 164.319 331.696 171.23 331.696 179.732V231.092L324.763 238.741L317.828 231.092L310.349 238.741L303.004 231.092L295.66 238.741L288.594 231.092L281.247 238.741L275.199 231.092V164.861" fill="white"/>
<path fill-rule="evenodd" clip-rule="evenodd" d="M324.762 239.611C324.515 239.611 324.285 239.513 324.122 239.332L317.81 232.372L310.976 239.365C310.81 239.529 310.547 239.627 310.35 239.627C310.12 239.627 309.89 239.529 309.725 239.365L303.004 232.372L296.283 239.365C296.121 239.529 295.889 239.627 295.659 239.627H295.644C295.396 239.627 295.168 239.529 295.002 239.348L288.56 232.389L281.855 239.365C281.676 239.545 281.428 239.644 281.181 239.627C280.935 239.611 280.688 239.496 280.541 239.299L274.493 231.65C274.378 231.503 274.312 231.306 274.312 231.109V164.878C274.312 164.402 274.707 164.008 275.183 164.008C275.66 164.008 276.054 164.402 276.054 164.878V230.797L281.28 237.412L287.935 230.485C288.1 230.321 288.33 230.222 288.56 230.222H288.576C288.823 230.222 289.053 230.321 289.217 230.501L295.659 237.461L302.364 230.485C302.694 230.14 303.3 230.14 303.629 230.485L310.35 237.477L317.202 230.468C317.367 230.304 317.613 230.222 317.843 230.206C318.09 230.206 318.32 230.321 318.468 230.485L324.762 237.412L330.825 230.731V179.7C330.825 171.673 324.285 165.157 316.266 165.157H294.954C294.477 165.157 294.081 164.763 294.081 164.287C294.081 163.811 294.477 163.417 294.954 163.417H316.266C325.255 163.417 332.584 170.721 332.584 179.716V231.076C332.584 231.289 332.501 231.503 332.354 231.667L325.419 239.316C325.238 239.513 325.01 239.611 324.762 239.611Z" fill="#9DC8AD"/>
<path fill-rule="evenodd" clip-rule="evenodd" d="M319.258 209.49H287.624C287.148 209.49 286.753 209.096 286.753 208.62C286.753 208.144 287.148 207.75 287.624 207.75H319.258C319.732 207.75 320.127 208.144 320.127 208.62C320.143 209.096 319.751 209.49 319.258 209.49Z" fill="#9DC8AD"/>
<path fill-rule="evenodd" clip-rule="evenodd" d="M319.144 196.126H287.51C287.034 196.126 286.639 195.732 286.639 195.256C286.639 194.78 287.034 194.386 287.51 194.386H319.144C319.619 194.386 320.013 194.78 320.013 195.256C320.029 195.732 319.637 196.126 319.144 196.126Z" fill="#9DC8AD"/>
<path fill-rule="evenodd" clip-rule="evenodd" d="M319.144 182.611H287.51C287.034 182.611 286.639 182.217 286.639 181.741C286.639 181.265 287.034 180.871 287.51 180.871H319.144C319.619 180.871 320.013 181.265 320.013 181.741C320.029 182.217 319.637 182.611 319.144 182.611Z" fill="#9DC8AD"/>
<path fill-rule="evenodd" clip-rule="evenodd" d="M316.201 216.368H290.68C290.204 216.368 289.808 215.974 289.808 215.498C289.808 215.022 290.204 214.628 290.68 214.628H316.201C316.677 214.628 317.071 215.022 317.071 215.498C317.071 215.974 316.677 216.368 316.201 216.368Z" fill="#9DC8AD"/>
<path fill-rule="evenodd" clip-rule="evenodd" d="M316.087 203.004H290.566C290.09 203.004 289.694 202.61 289.694 202.134C289.694 201.658 290.09 201.264 290.566 201.264H316.087C316.563 201.264 316.958 201.658 316.958 202.134C316.958 202.61 316.563 203.004 316.087 203.004Z" fill="#9DC8AD"/>
<path fill-rule="evenodd" clip-rule="evenodd" d="M316.087 189.488H290.566C290.09 189.488 289.694 189.094 289.694 188.618C289.694 188.142 290.09 187.748 290.566 187.748H316.087C316.563 187.748 316.958 188.142 316.958 188.618C316.958 189.094 316.563 189.488 316.087 189.488Z" fill="#9DC8AD"/>
<path d="M282.556 271.555V260.18H285.767C286.757 260.18 287.632 260.398 288.392 260.836C289.152 261.273 289.738 261.896 290.15 262.703C290.566 263.51 290.777 264.438 290.783 265.484V266.211C290.783 267.284 290.574 268.224 290.158 269.031C289.746 269.839 289.155 270.458 288.384 270.891C287.619 271.323 286.725 271.544 285.704 271.555H282.556ZM284.056 261.414V270.328H285.634C286.79 270.328 287.689 269.969 288.329 269.25C288.975 268.531 289.298 267.508 289.298 266.18V265.516C289.298 264.224 288.994 263.221 288.384 262.508C287.78 261.789 286.921 261.424 285.806 261.414H284.056ZM296.915 264.398C296.697 264.362 296.46 264.344 296.204 264.344C295.257 264.344 294.613 264.747 294.275 265.555V271.555H292.829V263.102H294.236L294.259 264.078C294.733 263.323 295.405 262.945 296.275 262.945C296.556 262.945 296.77 262.982 296.915 263.055V264.398ZM303.158 271.555C303.074 271.388 303.007 271.091 302.954 270.664C302.283 271.362 301.481 271.711 300.548 271.711C299.715 271.711 299.03 271.477 298.494 271.008C297.962 270.534 297.697 269.935 297.697 269.211C297.697 268.331 298.03 267.648 298.697 267.164C299.369 266.674 300.311 266.43 301.525 266.43H302.931V265.766C302.931 265.26 302.78 264.859 302.478 264.562C302.176 264.26 301.731 264.109 301.142 264.109C300.626 264.109 300.194 264.24 299.845 264.5C299.496 264.76 299.322 265.076 299.322 265.445H297.869C297.869 265.023 298.017 264.617 298.314 264.227C298.616 263.831 299.022 263.518 299.533 263.289C300.048 263.06 300.613 262.945 301.228 262.945C302.202 262.945 302.965 263.19 303.517 263.68C304.069 264.164 304.356 264.833 304.376 265.688V269.578C304.376 270.354 304.475 270.971 304.673 271.43V271.555H303.158ZM300.759 270.453C301.212 270.453 301.642 270.336 302.048 270.102C302.454 269.867 302.749 269.562 302.931 269.188V267.453H301.798C300.027 267.453 299.142 267.971 299.142 269.008C299.142 269.461 299.293 269.815 299.595 270.07C299.897 270.326 300.285 270.453 300.759 270.453ZM307.353 271.555V264.219H306.017V263.102H307.353V262.234C307.353 261.328 307.595 260.628 308.079 260.133C308.564 259.638 309.249 259.391 310.134 259.391C310.468 259.391 310.798 259.435 311.126 259.523L311.048 260.695C310.803 260.648 310.543 260.625 310.267 260.625C309.798 260.625 309.436 260.763 309.181 261.039C308.926 261.31 308.798 261.701 308.798 262.211V263.102H310.603V264.219H308.798V271.555H307.353ZM314.165 261.055V263.102H315.744V264.219H314.165V269.461C314.165 269.799 314.236 270.055 314.376 270.227C314.517 270.393 314.757 270.477 315.095 270.477C315.262 270.477 315.491 270.445 315.783 270.383V271.555C315.402 271.659 315.033 271.711 314.673 271.711C314.027 271.711 313.54 271.516 313.212 271.125C312.884 270.734 312.72 270.18 312.72 269.461V264.219H311.181V263.102H312.72V261.055H314.165ZM322.361 269.312C322.361 268.922 322.212 268.62 321.915 268.406C321.624 268.188 321.111 268 320.376 267.844C319.647 267.688 319.066 267.5 318.634 267.281C318.207 267.062 317.889 266.802 317.681 266.5C317.478 266.198 317.376 265.839 317.376 265.422C317.376 264.729 317.668 264.143 318.251 263.664C318.84 263.185 319.59 262.945 320.501 262.945C321.46 262.945 322.236 263.193 322.829 263.688C323.428 264.182 323.728 264.815 323.728 265.586H322.275C322.275 265.19 322.106 264.849 321.767 264.562C321.434 264.276 321.012 264.133 320.501 264.133C319.975 264.133 319.564 264.247 319.267 264.477C318.97 264.706 318.822 265.005 318.822 265.375C318.822 265.724 318.96 265.987 319.236 266.164C319.512 266.341 320.009 266.51 320.728 266.672C321.452 266.833 322.038 267.026 322.486 267.25C322.934 267.474 323.264 267.745 323.478 268.062C323.697 268.375 323.806 268.758 323.806 269.211C323.806 269.966 323.504 270.573 322.9 271.031C322.296 271.484 321.512 271.711 320.548 271.711C319.871 271.711 319.272 271.591 318.751 271.352C318.231 271.112 317.822 270.779 317.525 270.352C317.233 269.919 317.087 269.453 317.087 268.953H318.533C318.559 269.438 318.751 269.823 319.111 270.109C319.475 270.391 319.954 270.531 320.548 270.531C321.095 270.531 321.533 270.422 321.861 270.203C322.194 269.979 322.361 269.682 322.361 269.312Z" fill="#4C4D5F"/>
<path d="M86.9408 267.946C86.8002 269.149 86.3549 270.079 85.6049 270.735C84.8601 271.386 83.8679 271.712 82.6283 271.712C81.2845 271.712 80.2064 271.23 79.3939 270.267C78.5866 269.303 78.183 268.014 78.183 266.399V265.306C78.183 264.248 78.3705 263.319 78.7455 262.517C79.1257 261.715 79.6622 261.1 80.3549 260.673C81.0476 260.241 81.8497 260.024 82.7611 260.024C83.9694 260.024 84.9382 260.363 85.6674 261.04C86.3965 261.712 86.821 262.644 86.9408 263.837H85.433C85.3028 262.931 85.0189 262.274 84.5814 261.868C84.1491 261.462 83.5424 261.259 82.7611 261.259C81.8028 261.259 81.0502 261.613 80.5033 262.321C79.9616 263.03 79.6908 264.037 79.6908 265.345V266.446C79.6908 267.681 79.9486 268.662 80.4642 269.392C80.9799 270.121 81.7012 270.485 82.6283 270.485C83.4616 270.485 84.0997 270.298 84.5424 269.923C84.9903 269.543 85.2872 268.884 85.433 267.946H86.9408ZM90.2142 264.126C90.8549 263.34 91.6882 262.946 92.7142 262.946C94.5007 262.946 95.4017 263.954 95.4174 265.97V271.556H93.972V265.962C93.9668 265.353 93.8262 264.902 93.5502 264.61C93.2793 264.319 92.8549 264.173 92.2767 264.173C91.808 264.173 91.3965 264.298 91.0424 264.548C90.6882 264.798 90.4122 265.126 90.2142 265.532V271.556H88.7689V259.556H90.2142V264.126ZM97.1986 267.251C97.1986 266.423 97.3601 265.678 97.683 265.017C98.0111 264.355 98.4642 263.845 99.0424 263.485C99.6257 263.126 100.29 262.946 101.035 262.946C102.186 262.946 103.115 263.345 103.824 264.142C104.537 264.938 104.894 265.998 104.894 267.321V267.423C104.894 268.246 104.735 268.985 104.417 269.642C104.105 270.293 103.654 270.8 103.066 271.165C102.482 271.53 101.811 271.712 101.05 271.712C99.9043 271.712 98.9747 271.313 98.2611 270.517C97.5528 269.72 97.1986 268.665 97.1986 267.353V267.251ZM98.6517 267.423C98.6517 268.36 98.8679 269.113 99.3002 269.681C99.7377 270.248 100.321 270.532 101.05 270.532C101.785 270.532 102.368 270.246 102.8 269.673C103.232 269.095 103.449 268.287 103.449 267.251C103.449 266.324 103.227 265.574 102.785 265.001C102.347 264.423 101.764 264.134 101.035 264.134C100.321 264.134 99.7455 264.418 99.308 264.985C98.8705 265.553 98.6517 266.366 98.6517 267.423ZM106.324 267.251C106.324 266.423 106.485 265.678 106.808 265.017C107.136 264.355 107.589 263.845 108.167 263.485C108.751 263.126 109.415 262.946 110.16 262.946C111.311 262.946 112.24 263.345 112.949 264.142C113.662 264.938 114.019 265.998 114.019 267.321V267.423C114.019 268.246 113.86 268.985 113.542 269.642C113.23 270.293 112.779 270.8 112.191 271.165C111.607 271.53 110.936 271.712 110.175 271.712C109.029 271.712 108.1 271.313 107.386 270.517C106.678 269.72 106.324 268.665 106.324 267.353V267.251ZM107.777 267.423C107.777 268.36 107.993 269.113 108.425 269.681C108.863 270.248 109.446 270.532 110.175 270.532C110.91 270.532 111.493 270.246 111.925 269.673C112.357 269.095 112.574 268.287 112.574 267.251C112.574 266.324 112.352 265.574 111.91 265.001C111.472 264.423 110.889 264.134 110.16 264.134C109.446 264.134 108.87 264.418 108.433 264.985C107.995 265.553 107.777 266.366 107.777 267.423ZM120.753 269.313C120.753 268.923 120.605 268.621 120.308 268.407C120.016 268.188 119.503 268.001 118.769 267.845C118.04 267.688 117.459 267.501 117.027 267.282C116.6 267.063 116.282 266.803 116.074 266.501C115.87 266.199 115.769 265.84 115.769 265.423C115.769 264.73 116.061 264.144 116.644 263.665C117.232 263.186 117.982 262.946 118.894 262.946C119.852 262.946 120.628 263.194 121.222 263.688C121.821 264.183 122.12 264.816 122.12 265.587H120.667C120.667 265.191 120.498 264.85 120.16 264.563C119.826 264.277 119.404 264.134 118.894 264.134C118.368 264.134 117.956 264.248 117.66 264.478C117.363 264.707 117.214 265.006 117.214 265.376C117.214 265.725 117.352 265.988 117.628 266.165C117.904 266.342 118.402 266.511 119.12 266.673C119.844 266.834 120.43 267.027 120.878 267.251C121.326 267.475 121.657 267.746 121.87 268.063C122.089 268.376 122.199 268.759 122.199 269.212C122.199 269.967 121.897 270.574 121.292 271.032C120.688 271.485 119.904 271.712 118.941 271.712C118.264 271.712 117.665 271.592 117.144 271.353C116.623 271.113 116.214 270.78 115.917 270.353C115.626 269.92 115.48 269.454 115.48 268.954H116.925C116.951 269.438 117.144 269.824 117.503 270.11C117.868 270.392 118.347 270.532 118.941 270.532C119.488 270.532 119.925 270.423 120.253 270.204C120.587 269.98 120.753 269.683 120.753 269.313ZM125.652 271.556H124.206V263.103H125.652V271.556ZM124.089 260.86C124.089 260.626 124.16 260.428 124.3 260.267C124.446 260.105 124.66 260.024 124.941 260.024C125.222 260.024 125.436 260.105 125.581 260.267C125.727 260.428 125.8 260.626 125.8 260.86C125.8 261.095 125.727 261.29 125.581 261.446C125.436 261.603 125.222 261.681 124.941 261.681C124.66 261.681 124.446 261.603 124.3 261.446C124.16 261.29 124.089 261.095 124.089 260.86ZM129.339 263.103L129.386 264.165C130.032 263.353 130.876 262.946 131.917 262.946C133.704 262.946 134.605 263.954 134.62 265.97V271.556H133.175V265.962C133.17 265.353 133.029 264.902 132.753 264.61C132.482 264.319 132.058 264.173 131.48 264.173C131.011 264.173 130.6 264.298 130.245 264.548C129.891 264.798 129.615 265.126 129.417 265.532V271.556H127.972V263.103H129.339ZM136.456 267.259C136.456 265.941 136.761 264.894 137.37 264.118C137.98 263.337 138.787 262.946 139.792 262.946C140.824 262.946 141.628 263.311 142.206 264.04L142.277 263.103H143.597V271.353C143.597 272.446 143.272 273.308 142.62 273.938C141.975 274.569 141.105 274.884 140.011 274.884C139.402 274.884 138.805 274.754 138.222 274.493C137.639 274.233 137.193 273.876 136.886 273.423L137.636 272.556C138.256 273.321 139.014 273.704 139.91 273.704C140.613 273.704 141.16 273.506 141.55 273.11C141.946 272.715 142.144 272.157 142.144 271.438V270.712C141.566 271.379 140.777 271.712 139.777 271.712C138.787 271.712 137.985 271.313 137.37 270.517C136.761 269.72 136.456 268.634 136.456 267.259ZM137.91 267.423C137.91 268.376 138.105 269.126 138.495 269.673C138.886 270.215 139.433 270.485 140.136 270.485C141.048 270.485 141.717 270.071 142.144 269.243V265.384C141.701 264.576 141.037 264.173 140.152 264.173C139.449 264.173 138.899 264.446 138.503 264.993C138.107 265.54 137.91 266.35 137.91 267.423Z" fill="#4C4D5F"/>
<path fill-rule="evenodd" clip-rule="evenodd" d="M102.972 160.224H143.501C143.851 160.224 144.127 160.496 144.127 160.841V218.383C144.127 227.059 137.007 234.084 128.213 234.084H81.4834C81.1338 234.084 80.8578 233.812 80.8578 233.467V160.841" fill="white"/>
<path fill-rule="evenodd" clip-rule="evenodd" d="M127.343 235.623H80.9053C80.0277 235.623 79.3147 234.904 79.3147 234.019V160.27C79.3147 159.735 79.7535 159.293 80.2837 159.293C80.8139 159.293 81.2527 159.735 81.2527 160.27V233.669H127.343C135.534 233.669 142.189 226.959 142.189 218.701V160.638H102.259C101.729 160.638 101.29 160.196 101.29 159.662C101.29 159.127 101.729 158.685 102.259 158.685H142.536C143.414 158.685 144.127 159.403 144.127 160.288V218.72C144.127 228.028 136.594 235.623 127.343 235.623Z" fill="#9DC8AD"/>
<path fill-rule="evenodd" clip-rule="evenodd" d="M147.213 192.537V235.622H77.7716V192.537L108.337 222.116C111.119 224.792 115.538 224.738 118.247 221.99L147.213 192.537Z" fill="#A4D0B4"/>
<path fill-rule="evenodd" clip-rule="evenodd" d="M111.417 224.851C109.439 224.851 107.442 224.082 105.931 222.544L79.598 195.738C79.2203 195.353 79.2203 194.749 79.598 194.365C79.9758 193.98 80.5693 193.98 80.9471 194.365L107.28 221.171C109.564 223.496 113.27 223.496 115.536 221.171L133.235 203.154C133.613 202.769 134.207 202.769 134.584 203.154C134.962 203.538 134.962 204.142 134.584 204.527L116.885 222.544C115.392 224.082 113.414 224.851 111.417 224.851Z" fill="#9DC8AD"/>
<path fill-rule="evenodd" clip-rule="evenodd" d="M111.721 169.455C121.095 169.455 128.695 177.032 128.695 186.381C128.695 195.729 121.095 203.308 111.721 203.308C102.347 203.308 94.7461 195.729 94.7461 186.381C94.7461 177.032 102.347 169.455 111.721 169.455Z" fill="#9DC8AD"/>
<path fill-rule="evenodd" clip-rule="evenodd" d="M525.838 26.435H497.466L492.726 16.8301H466.74C465.487 16.8256 464.284 17.3273 463.395 18.2247C462.506 19.1222 462.004 20.3419 462 21.6156V64.9395C462 67.5824 464.107 69.725 466.707 69.725H525.872C527.12 69.725 528.317 69.2208 529.2 68.3233C530.082 67.4259 530.578 66.2087 530.578 64.9395V31.2375C530.569 28.5824 528.45 26.435 525.838 26.435Z" fill="#A4D0B4"/>
<path fill-rule="evenodd" clip-rule="evenodd" d="M520.012 26.4473H536.594V52.9012C536.594 55.5467 534.49 57.694 531.89 57.7033H472.72C470.126 57.694 468.025 55.5571 468.016 52.9182V26.4473H519.912" fill="white"/>
<path d="M520.012 26.4473H536.594V52.9012C536.594 55.5467 534.49 57.694 531.89 57.7033H472.72C470.126 57.694 468.025 55.5571 468.016 52.9182V26.4473H519.912" stroke="#9DC8AD" stroke-linecap="round" stroke-linejoin="round"/>
<path fill-rule="evenodd" clip-rule="evenodd" d="M468.016 24.0431V9.59178C468.025 6.94736 470.136 4.80859 472.737 4.80859H498.743L503.464 14.4258H531.823C533.082 14.4168 534.293 14.918 535.188 15.8187C536.084 16.7194 536.589 17.9455 536.594 19.226V24.0431H468.016Z" fill="white" stroke="#9DC8AD" stroke-linecap="round" stroke-linejoin="round"/>
<path fill-rule="evenodd" clip-rule="evenodd" d="M506.516 26.4473V44.4796L511.32 39.0217L516.141 44.4796V26.4473H506.516Z" fill="#9DC8AD"/>
<path d="M469.096 106.124H466.424V110.726H464.917V99.3506H468.682C469.964 99.3506 470.948 99.6423 471.635 100.226C472.328 100.809 472.674 101.658 472.674 102.772C472.674 103.481 472.482 104.098 472.096 104.624C471.716 105.15 471.185 105.543 470.503 105.804L473.174 110.632V110.726H471.565L469.096 106.124ZM466.424 104.897H468.729C469.474 104.897 470.065 104.705 470.503 104.319C470.945 103.934 471.167 103.418 471.167 102.772C471.167 102.069 470.956 101.53 470.534 101.155C470.117 100.78 469.513 100.59 468.721 100.585H466.424V104.897ZM478.065 110.882C476.919 110.882 475.987 110.507 475.268 109.757C474.549 109.002 474.19 107.994 474.19 106.733V106.468C474.19 105.629 474.349 104.882 474.667 104.226C474.99 103.564 475.438 103.049 476.01 102.679C476.589 102.304 477.214 102.116 477.885 102.116C478.984 102.116 479.839 102.478 480.448 103.202C481.057 103.926 481.362 104.963 481.362 106.312V106.913H475.635C475.656 107.746 475.898 108.421 476.362 108.937C476.831 109.447 477.424 109.702 478.143 109.702C478.654 109.702 479.086 109.598 479.44 109.39C479.794 109.181 480.104 108.905 480.37 108.562L481.253 109.249C480.544 110.338 479.482 110.882 478.065 110.882ZM477.885 103.304C477.302 103.304 476.813 103.517 476.417 103.944C476.021 104.366 475.776 104.96 475.682 105.726H479.917V105.616C479.875 104.882 479.677 104.314 479.323 103.913C478.969 103.507 478.49 103.304 477.885 103.304ZM487.964 108.483C487.964 108.093 487.815 107.791 487.518 107.577C487.227 107.358 486.714 107.171 485.979 107.015C485.25 106.858 484.669 106.671 484.237 106.452C483.81 106.233 483.492 105.973 483.284 105.671C483.081 105.369 482.979 105.009 482.979 104.593C482.979 103.9 483.271 103.314 483.854 102.835C484.443 102.356 485.193 102.116 486.104 102.116C487.063 102.116 487.839 102.364 488.432 102.858C489.031 103.353 489.331 103.986 489.331 104.757H487.878C487.878 104.361 487.708 104.02 487.37 103.733C487.036 103.447 486.615 103.304 486.104 103.304C485.578 103.304 485.167 103.418 484.87 103.647C484.573 103.877 484.424 104.176 484.424 104.546C484.424 104.895 484.563 105.158 484.839 105.335C485.115 105.512 485.612 105.681 486.331 105.843C487.055 106.004 487.641 106.197 488.089 106.421C488.536 106.645 488.867 106.916 489.081 107.233C489.299 107.546 489.409 107.929 489.409 108.382C489.409 109.137 489.107 109.744 488.503 110.202C487.898 110.655 487.115 110.882 486.151 110.882C485.474 110.882 484.875 110.762 484.354 110.522C483.833 110.283 483.424 109.95 483.128 109.522C482.836 109.09 482.69 108.624 482.69 108.124H484.135C484.161 108.608 484.354 108.994 484.714 109.28C485.078 109.562 485.557 109.702 486.151 109.702C486.698 109.702 487.135 109.593 487.464 109.374C487.797 109.15 487.964 108.853 487.964 108.483ZM494.799 110.882C493.654 110.882 492.721 110.507 492.003 109.757C491.284 109.002 490.924 107.994 490.924 106.733V106.468C490.924 105.629 491.083 104.882 491.401 104.226C491.724 103.564 492.172 103.049 492.745 102.679C493.323 102.304 493.948 102.116 494.62 102.116C495.719 102.116 496.573 102.478 497.182 103.202C497.792 103.926 498.096 104.963 498.096 106.312V106.913H492.37C492.391 107.746 492.633 108.421 493.096 108.937C493.565 109.447 494.159 109.702 494.878 109.702C495.388 109.702 495.82 109.598 496.174 109.39C496.529 109.181 496.839 108.905 497.104 108.562L497.987 109.249C497.279 110.338 496.216 110.882 494.799 110.882ZM494.62 103.304C494.036 103.304 493.547 103.517 493.151 103.944C492.755 104.366 492.51 104.96 492.417 105.726H496.651V105.616C496.609 104.882 496.411 104.314 496.057 103.913C495.703 103.507 495.224 103.304 494.62 103.304ZM504.995 110.726C504.911 110.559 504.844 110.262 504.792 109.835C504.12 110.533 503.318 110.882 502.385 110.882C501.552 110.882 500.867 110.647 500.331 110.179C499.799 109.705 499.534 109.106 499.534 108.382C499.534 107.502 499.867 106.819 500.534 106.335C501.206 105.845 502.148 105.601 503.362 105.601H504.768V104.937C504.768 104.431 504.617 104.03 504.315 103.733C504.013 103.431 503.568 103.28 502.979 103.28C502.464 103.28 502.031 103.41 501.682 103.671C501.333 103.931 501.159 104.246 501.159 104.616H499.706C499.706 104.194 499.854 103.788 500.151 103.397C500.453 103.002 500.859 102.689 501.37 102.46C501.885 102.231 502.451 102.116 503.065 102.116C504.039 102.116 504.802 102.361 505.354 102.851C505.906 103.335 506.193 104.004 506.214 104.858V108.749C506.214 109.525 506.313 110.142 506.51 110.601V110.726H504.995ZM502.596 109.624C503.049 109.624 503.479 109.507 503.885 109.272C504.292 109.038 504.586 108.733 504.768 108.358V106.624H503.635C501.865 106.624 500.979 107.142 500.979 108.179C500.979 108.632 501.13 108.986 501.432 109.241C501.734 109.496 502.122 109.624 502.596 109.624ZM512.565 103.569C512.346 103.533 512.109 103.515 511.854 103.515C510.906 103.515 510.263 103.918 509.924 104.726V110.726H508.479V102.272H509.885L509.909 103.249C510.383 102.494 511.055 102.116 511.924 102.116C512.206 102.116 512.419 102.153 512.565 102.226V103.569ZM517.135 109.702C517.651 109.702 518.102 109.546 518.487 109.233C518.872 108.921 519.086 108.53 519.128 108.062H520.495C520.469 108.546 520.302 109.007 519.995 109.444C519.688 109.882 519.276 110.231 518.76 110.491C518.25 110.752 517.708 110.882 517.135 110.882C515.984 110.882 515.068 110.499 514.385 109.733C513.708 108.963 513.37 107.91 513.37 106.577V106.335C513.37 105.512 513.521 104.78 513.823 104.14C514.125 103.499 514.557 103.002 515.12 102.647C515.688 102.293 516.357 102.116 517.128 102.116C518.076 102.116 518.862 102.4 519.487 102.968C520.117 103.535 520.453 104.272 520.495 105.179H519.128C519.086 104.632 518.878 104.184 518.503 103.835C518.133 103.481 517.674 103.304 517.128 103.304C516.393 103.304 515.823 103.569 515.417 104.101C515.016 104.627 514.815 105.39 514.815 106.39V106.663C514.815 107.637 515.016 108.387 515.417 108.913C515.818 109.439 516.391 109.702 517.135 109.702ZM523.565 103.296C524.206 102.509 525.039 102.116 526.065 102.116C527.852 102.116 528.753 103.124 528.768 105.14V110.726H527.323V105.132C527.318 104.522 527.177 104.072 526.901 103.78C526.63 103.489 526.206 103.343 525.628 103.343C525.159 103.343 524.747 103.468 524.393 103.718C524.039 103.968 523.763 104.296 523.565 104.702V110.726H522.12V98.7256H523.565V103.296Z" fill="#4C4D5F"/>
<path d="M276.907 100.585H273.25V110.726H271.758V100.585H268.11V99.3506H276.907V100.585ZM281.094 110.882C279.948 110.882 279.016 110.507 278.297 109.757C277.579 109.002 277.219 107.994 277.219 106.733V106.468C277.219 105.629 277.378 104.882 277.696 104.226C278.019 103.564 278.467 103.049 279.039 102.679C279.618 102.304 280.243 102.116 280.914 102.116C282.013 102.116 282.868 102.478 283.477 103.202C284.086 103.926 284.391 104.963 284.391 106.312V106.913H278.664C278.685 107.746 278.928 108.421 279.391 108.937C279.86 109.447 280.454 109.702 281.172 109.702C281.683 109.702 282.115 109.598 282.469 109.39C282.823 109.181 283.133 108.905 283.399 108.562L284.282 109.249C283.573 110.338 282.511 110.882 281.094 110.882ZM280.914 103.304C280.331 103.304 279.842 103.517 279.446 103.944C279.05 104.366 278.805 104.96 278.711 105.726H282.946V105.616C282.904 104.882 282.706 104.314 282.352 103.913C281.998 103.507 281.519 103.304 280.914 103.304ZM287.43 102.272L287.469 103.21C288.089 102.481 288.925 102.116 289.977 102.116C291.159 102.116 291.964 102.569 292.391 103.476C292.672 103.069 293.037 102.741 293.485 102.491C293.938 102.241 294.472 102.116 295.086 102.116C296.941 102.116 297.883 103.098 297.914 105.062V110.726H296.469V105.147C296.469 104.543 296.331 104.093 296.055 103.796C295.779 103.494 295.316 103.343 294.664 103.343C294.128 103.343 293.683 103.504 293.329 103.827C292.974 104.145 292.769 104.575 292.711 105.116V110.726H291.258V105.187C291.258 103.957 290.657 103.343 289.454 103.343C288.506 103.343 287.857 103.746 287.508 104.554V110.726H286.063V102.272H287.43ZM307.243 106.593C307.243 107.879 306.948 108.916 306.36 109.702C305.771 110.489 304.974 110.882 303.969 110.882C302.943 110.882 302.136 110.556 301.547 109.905V113.976H300.102V102.272H301.422L301.493 103.21C302.081 102.481 302.899 102.116 303.946 102.116C304.961 102.116 305.763 102.499 306.352 103.265C306.946 104.03 307.243 105.095 307.243 106.46V106.593ZM305.797 106.429C305.797 105.476 305.594 104.723 305.188 104.171C304.782 103.619 304.224 103.343 303.516 103.343C302.641 103.343 301.985 103.731 301.547 104.507V108.546C301.98 109.317 302.641 109.702 303.532 109.702C304.224 109.702 304.774 109.429 305.18 108.882C305.592 108.33 305.797 107.512 305.797 106.429ZM310.657 110.726H309.211V98.7256H310.657V110.726ZM318.196 110.726C318.112 110.559 318.045 110.262 317.993 109.835C317.321 110.533 316.519 110.882 315.586 110.882C314.753 110.882 314.068 110.647 313.532 110.179C313 109.705 312.735 109.106 312.735 108.382C312.735 107.502 313.068 106.819 313.735 106.335C314.407 105.845 315.349 105.601 316.563 105.601H317.969V104.937C317.969 104.431 317.818 104.03 317.516 103.733C317.214 103.431 316.769 103.28 316.18 103.28C315.664 103.28 315.232 103.41 314.883 103.671C314.534 103.931 314.36 104.246 314.36 104.616H312.907C312.907 104.194 313.055 103.788 313.352 103.397C313.654 103.002 314.06 102.689 314.571 102.46C315.086 102.231 315.651 102.116 316.266 102.116C317.24 102.116 318.003 102.361 318.555 102.851C319.107 103.335 319.394 104.004 319.414 104.858V108.749C319.414 109.525 319.513 110.142 319.711 110.601V110.726H318.196ZM315.797 109.624C316.25 109.624 316.68 109.507 317.086 109.272C317.493 109.038 317.787 108.733 317.969 108.358V106.624H316.836C315.066 106.624 314.18 107.142 314.18 108.179C314.18 108.632 314.331 108.986 314.633 109.241C314.935 109.496 315.323 109.624 315.797 109.624ZM323.641 100.226V102.272H325.219V103.39H323.641V108.632C323.641 108.97 323.711 109.226 323.852 109.397C323.993 109.564 324.232 109.647 324.571 109.647C324.737 109.647 324.967 109.616 325.258 109.554V110.726C324.878 110.83 324.508 110.882 324.149 110.882C323.503 110.882 323.016 110.687 322.688 110.296C322.36 109.905 322.196 109.351 322.196 108.632V103.39H320.657V102.272H322.196V100.226H323.641ZM330.422 110.882C329.276 110.882 328.344 110.507 327.625 109.757C326.907 109.002 326.547 107.994 326.547 106.733V106.468C326.547 105.629 326.706 104.882 327.024 104.226C327.347 103.564 327.795 103.049 328.368 102.679C328.946 102.304 329.571 102.116 330.243 102.116C331.342 102.116 332.196 102.478 332.805 103.202C333.414 103.926 333.719 104.963 333.719 106.312V106.913H327.993C328.013 107.746 328.256 108.421 328.719 108.937C329.188 109.447 329.782 109.702 330.5 109.702C331.011 109.702 331.443 109.598 331.797 109.39C332.151 109.181 332.461 108.905 332.727 108.562L333.61 109.249C332.901 110.338 331.839 110.882 330.422 110.882ZM330.243 103.304C329.659 103.304 329.17 103.517 328.774 103.944C328.378 104.366 328.133 104.96 328.039 105.726H332.274V105.616C332.232 104.882 332.034 104.314 331.68 103.913C331.326 103.507 330.847 103.304 330.243 103.304Z" fill="#4C4D5F"/>
<path fill-rule="evenodd" clip-rule="evenodd" d="M293.765 12.0342H327.211C327.5 12.0342 327.728 12.2633 327.728 12.5536V60.983C327.728 68.2856 321.852 74.1979 314.595 74.1979H276.032C275.743 74.1979 275.516 73.9688 275.516 73.6785V12.5536" fill="#A4D0B4"/>
<path fill-rule="evenodd" clip-rule="evenodd" d="M292.171 26.6697L298.608 22.285L305.228 26.6697V12.0645H292.171V26.6697Z" fill="#9DC8AD"/>
<path fill-rule="evenodd" clip-rule="evenodd" d="M315.202 55.6057H285.976C285.536 55.6057 285.172 55.2391 285.172 54.796C285.172 54.353 285.536 53.9863 285.976 53.9863H315.202C315.643 53.9863 316.007 54.353 316.007 54.796C316.007 55.2544 315.643 55.6057 315.202 55.6057Z" fill="#9DC8AD"/>
<path fill-rule="evenodd" clip-rule="evenodd" d="M309.539 62.0217H285.961C285.521 62.0217 285.157 61.6551 285.157 61.212C285.157 60.769 285.521 60.4023 285.961 60.4023H309.539C309.98 60.4023 310.344 60.769 310.344 61.212C310.344 61.6551 309.995 62.0217 309.539 62.0217Z" fill="#9DC8AD"/>
<path fill-rule="evenodd" clip-rule="evenodd" d="M303.952 1.99707H337.399C337.687 1.99707 337.915 2.22623 337.915 2.5165V50.9459C337.915 58.2485 332.039 64.1608 324.782 64.1608H286.219C285.931 64.1608 285.703 63.9317 285.703 63.6414V2.5165" fill="white"/>
<path fill-rule="evenodd" clip-rule="evenodd" d="M324.767 64.97H286.204C285.475 64.97 284.883 64.3742 284.883 63.6409V2.51601C284.883 2.07296 285.248 1.7063 285.688 1.7063C286.128 1.7063 286.493 2.07296 286.493 2.51601V63.3506H324.767C331.569 63.3506 337.095 57.7897 337.095 50.9454V2.82155H303.937C303.497 2.82155 303.132 2.4549 303.132 2.01185C303.132 1.56881 303.497 1.20215 303.937 1.20215H337.384C338.112 1.20215 338.705 1.79797 338.705 2.53128V50.9607C338.72 58.6757 332.465 64.97 324.767 64.97Z" fill="#9DC8AD"/>
<path fill-rule="evenodd" clip-rule="evenodd" d="M325.39 45.5833H296.164C295.723 45.5833 295.359 45.2166 295.359 44.7736C295.359 44.3305 295.723 43.9639 296.164 43.9639H325.39C325.83 43.9639 326.194 44.3305 326.194 44.7736C326.194 45.2166 325.845 45.5833 325.39 45.5833Z" fill="#9DC8AD"/>
<path fill-rule="evenodd" clip-rule="evenodd" d="M319.727 52.0003H296.149C295.708 52.0003 295.344 51.6336 295.344 51.1906C295.344 50.7475 295.708 50.3809 296.149 50.3809H319.727C320.167 50.3809 320.531 50.7475 320.531 51.1906C320.546 51.6336 320.182 52.0003 319.727 52.0003Z" fill="#9DC8AD"/>
<path fill-rule="evenodd" clip-rule="evenodd" d="M76.2976 38.1046C73.4568 39.6032 73.5685 41.8108 76.553 43.0193L85.3788 46.5483C88.3633 47.7407 92.8799 47.0962 95.4175 45.098L133.787 14.5459C136.307 12.5316 136.579 12.8378 134.391 15.2066L104.052 47.9824C101.849 50.3512 102.504 53.2356 105.488 54.4119L106.526 54.8148C109.526 55.975 114.41 57.9409 117.378 59.1656L127.178 63.1941C130.146 64.4187 132.59 65.4339 132.59 65.45C132.59 65.4661 132.604 65.5306 132.62 65.5306C132.636 65.5306 133.338 62.9846 134.186 59.8585L149.122 4.42628C149.968 1.30016 148.324 -0.0373015 145.483 1.47742L76.2976 38.1046Z" fill="white"/>
<path fill-rule="evenodd" clip-rule="evenodd" d="M135.844 12.338C136.083 12.338 136.307 12.4347 136.498 12.6442C137.168 13.3854 136.418 14.2717 135.03 15.7864L104.69 48.5623C103.828 49.4969 103.463 50.5282 103.669 51.4467C103.876 52.3813 104.642 53.1387 105.807 53.606L106.845 54.0088C109.813 55.169 114.697 57.135 117.697 58.3596L127.497 62.3881C129.859 63.355 131.247 63.9351 132.093 64.2896C132.364 63.3389 132.811 61.6952 133.37 59.6004L148.308 4.16821C148.612 3.05634 148.548 2.17007 148.165 1.84779C147.766 1.52551 146.904 1.67054 145.898 2.2023L76.7126 38.8294C75.6752 39.3773 75.0847 40.038 75.1003 40.5859C75.1326 41.1499 75.7869 41.7461 76.8881 42.1812L85.7139 45.7101C88.4111 46.7898 92.6229 46.1774 94.9068 44.3727L133.274 13.8205C134.423 12.9503 135.221 12.338 135.844 12.338ZM132.636 66.3844C132.54 66.3844 132.444 66.3683 132.364 66.3361C132.253 66.3038 132.157 66.2233 132.061 66.1427C131.471 65.8849 129.46 65.0469 126.874 63.9995L117.075 59.971C114.075 58.7464 109.191 56.7805 106.238 55.6202L105.201 55.2174C103.493 54.5406 102.36 53.3482 102.009 51.8496C101.674 50.351 102.184 48.7718 103.445 47.4021L130.146 18.5419L95.9601 45.7585C93.215 47.9339 88.3313 48.6429 85.0915 47.3376L76.2497 43.8087C73.8558 42.8418 73.4408 41.456 73.3929 40.7148C73.361 39.9735 73.6323 38.5394 75.8986 37.347L145.084 0.719809C147.367 -0.488742 148.643 0.0913622 149.218 0.542555C149.777 0.993747 150.623 2.13784 149.936 4.65163L134.998 60.0838C133.387 66.0943 133.387 66.0943 133.019 66.2877C132.923 66.3522 132.779 66.3844 132.636 66.3844Z" fill="#9DC8AD"/>
<path fill-rule="evenodd" clip-rule="evenodd" d="M100.557 74.393C100.381 74.9247 106.606 65.3047 106.606 65.3047C108.361 62.5975 107.372 59.3586 104.386 58.1339L97.6027 55.3301C94.6358 54.1054 93.2138 55.5396 94.4443 58.5368C94.4443 58.5368 100.731 73.8451 100.557 74.393Z" fill="#A4D0B4"/>
<path d="M84.8688 111.173H83.3688V99.7979H84.8688V111.173ZM87.0407 106.876C87.0407 105.579 87.348 104.537 87.9626 103.751C88.5772 102.959 89.3819 102.563 90.3766 102.563C91.3662 102.563 92.1501 102.902 92.7282 103.579V99.1729H94.1735V111.173H92.8454L92.7751 110.267C92.197 110.975 91.3923 111.329 90.361 111.329C89.3819 111.329 88.5824 110.928 87.9626 110.126C87.348 109.324 87.0407 108.277 87.0407 106.985V106.876ZM88.486 107.04C88.486 107.998 88.6839 108.748 89.0798 109.29C89.4756 109.832 90.0225 110.103 90.7204 110.103C91.6371 110.103 92.3063 109.691 92.7282 108.868V104.985C92.2959 104.188 91.6319 103.79 90.736 103.79C90.0277 103.79 89.4756 104.063 89.0798 104.61C88.6839 105.157 88.486 105.967 88.486 107.04ZM99.9313 111.329C98.7855 111.329 97.8532 110.954 97.1345 110.204C96.4157 109.449 96.0563 108.441 96.0563 107.181V106.915C96.0563 106.076 96.2152 105.329 96.5329 104.673C96.8558 104.011 97.3037 103.496 97.8766 103.126C98.4548 102.751 99.0798 102.563 99.7516 102.563C100.851 102.563 101.705 102.925 102.314 103.649C102.924 104.373 103.228 105.41 103.228 106.759V107.36H97.5016C97.5225 108.194 97.7647 108.868 98.2282 109.384C98.697 109.894 99.2907 110.149 100.009 110.149C100.52 110.149 100.952 110.045 101.306 109.837C101.661 109.629 101.97 109.353 102.236 109.009L103.119 109.696C102.411 110.785 101.348 111.329 99.9313 111.329ZM99.7516 103.751C99.1683 103.751 98.6787 103.965 98.2829 104.392C97.8871 104.813 97.6423 105.407 97.5485 106.173H101.783V106.063C101.741 105.329 101.543 104.761 101.189 104.36C100.835 103.954 100.356 103.751 99.7516 103.751ZM110.127 111.173C110.043 111.006 109.976 110.709 109.924 110.282C109.252 110.98 108.45 111.329 107.517 111.329C106.684 111.329 105.999 111.095 105.463 110.626C104.931 110.152 104.666 109.553 104.666 108.829C104.666 107.949 104.999 107.267 105.666 106.782C106.338 106.293 107.28 106.048 108.494 106.048H109.9V105.384C109.9 104.879 109.749 104.478 109.447 104.181C109.145 103.879 108.7 103.728 108.111 103.728C107.595 103.728 107.163 103.858 106.814 104.118C106.465 104.379 106.291 104.694 106.291 105.063H104.838C104.838 104.642 104.986 104.235 105.283 103.845C105.585 103.449 105.991 103.136 106.502 102.907C107.017 102.678 107.582 102.563 108.197 102.563C109.171 102.563 109.934 102.808 110.486 103.298C111.038 103.782 111.325 104.451 111.345 105.306V109.196C111.345 109.972 111.444 110.59 111.642 111.048V111.173H110.127ZM107.728 110.071C108.181 110.071 108.611 109.954 109.017 109.72C109.424 109.485 109.718 109.181 109.9 108.806V107.071H108.767C106.996 107.071 106.111 107.59 106.111 108.626C106.111 109.079 106.262 109.433 106.564 109.688C106.866 109.944 107.254 110.071 107.728 110.071Z" fill="#4C4D5F"/>
<defs>
<clipPath id="clip0">
<rect width="67.5439" height="67.5757" fill="white" transform="translate(467.657 334.943)"/>
</clipPath>
</defs>
</svg>
