<svg width="457" height="331" viewBox="0 0 457 331" fill="none" xmlns="http://www.w3.org/2000/svg">
<g clip-path="url(#clip0)">
<path d="M90.3261 27.7461C158.633 27.7461 206.187 28.0519 394.565 27.7461C475.807 36.9606 475.807 136.264 394.565 146.493C302.977 146.493 49.8931 146.048 49.8931 146.048C-13.4665 156.722 -15.2477 252.875 49.8931 270.576C104.221 270.576 303.046 270.576 377.142 270.576" stroke="#9DC8AD" stroke-linecap="round" stroke-linejoin="round"/>
<path d="M352.32 327V315.625H355.531C356.521 315.625 357.396 315.844 358.156 316.281C358.917 316.719 359.503 317.341 359.914 318.148C360.331 318.956 360.542 319.883 360.547 320.93V321.656C360.547 322.729 360.339 323.669 359.922 324.477C359.51 325.284 358.919 325.904 358.148 326.336C357.383 326.768 356.49 326.99 355.469 327H352.32ZM353.82 316.859V325.773H355.398C356.555 325.773 357.453 325.414 358.094 324.695C358.74 323.977 359.062 322.953 359.062 321.625V320.961C359.062 319.669 358.758 318.667 358.148 317.953C357.544 317.234 356.685 316.87 355.57 316.859H353.82ZM362.211 322.695C362.211 321.867 362.372 321.122 362.695 320.461C363.023 319.799 363.477 319.289 364.055 318.93C364.638 318.57 365.302 318.391 366.047 318.391C367.198 318.391 368.128 318.789 368.836 319.586C369.549 320.383 369.906 321.443 369.906 322.766V322.867C369.906 323.69 369.747 324.43 369.43 325.086C369.117 325.737 368.667 326.245 368.078 326.609C367.495 326.974 366.823 327.156 366.062 327.156C364.917 327.156 363.987 326.758 363.273 325.961C362.565 325.164 362.211 324.109 362.211 322.797V322.695ZM363.664 322.867C363.664 323.805 363.88 324.557 364.312 325.125C364.75 325.693 365.333 325.977 366.062 325.977C366.797 325.977 367.38 325.69 367.812 325.117C368.245 324.539 368.461 323.732 368.461 322.695C368.461 321.768 368.24 321.018 367.797 320.445C367.359 319.867 366.776 319.578 366.047 319.578C365.333 319.578 364.758 319.862 364.32 320.43C363.883 320.997 363.664 321.81 363.664 322.867ZM379.203 325.008L380.828 318.547H382.273L379.812 327H378.641L376.586 320.594L374.586 327H373.414L370.961 318.547H372.398L374.062 324.875L376.031 318.547H377.195L379.203 325.008ZM385.117 318.547L385.164 319.609C385.81 318.797 386.654 318.391 387.695 318.391C389.482 318.391 390.383 319.398 390.398 321.414V327H388.953V321.406C388.948 320.797 388.807 320.346 388.531 320.055C388.26 319.763 387.836 319.617 387.258 319.617C386.789 319.617 386.378 319.742 386.023 319.992C385.669 320.242 385.393 320.57 385.195 320.977V327H383.75V318.547H385.117ZM394.148 327H392.703V315H394.148V327ZM396.086 322.695C396.086 321.867 396.247 321.122 396.57 320.461C396.898 319.799 397.352 319.289 397.93 318.93C398.513 318.57 399.177 318.391 399.922 318.391C401.073 318.391 402.003 318.789 402.711 319.586C403.424 320.383 403.781 321.443 403.781 322.766V322.867C403.781 323.69 403.622 324.43 403.305 325.086C402.992 325.737 402.542 326.245 401.953 326.609C401.37 326.974 400.698 327.156 399.938 327.156C398.792 327.156 397.862 326.758 397.148 325.961C396.44 325.164 396.086 324.109 396.086 322.797V322.695ZM397.539 322.867C397.539 323.805 397.755 324.557 398.188 325.125C398.625 325.693 399.208 325.977 399.938 325.977C400.672 325.977 401.255 325.69 401.688 325.117C402.12 324.539 402.336 323.732 402.336 322.695C402.336 321.768 402.115 321.018 401.672 320.445C401.234 319.867 400.651 319.578 399.922 319.578C399.208 319.578 398.633 319.862 398.195 320.43C397.758 320.997 397.539 321.81 397.539 322.867ZM410.812 327C410.729 326.833 410.661 326.536 410.609 326.109C409.938 326.807 409.135 327.156 408.203 327.156C407.37 327.156 406.685 326.922 406.148 326.453C405.617 325.979 405.352 325.38 405.352 324.656C405.352 323.776 405.685 323.094 406.352 322.609C407.023 322.12 407.966 321.875 409.18 321.875H410.586V321.211C410.586 320.706 410.435 320.305 410.133 320.008C409.831 319.706 409.385 319.555 408.797 319.555C408.281 319.555 407.849 319.685 407.5 319.945C407.151 320.206 406.977 320.521 406.977 320.891H405.523C405.523 320.469 405.672 320.062 405.969 319.672C406.271 319.276 406.677 318.964 407.188 318.734C407.703 318.505 408.268 318.391 408.883 318.391C409.857 318.391 410.62 318.635 411.172 319.125C411.724 319.609 412.01 320.279 412.031 321.133V325.023C412.031 325.799 412.13 326.417 412.328 326.875V327H410.812ZM408.414 325.898C408.867 325.898 409.297 325.781 409.703 325.547C410.109 325.312 410.404 325.008 410.586 324.633V322.898H409.453C407.682 322.898 406.797 323.417 406.797 324.453C406.797 324.906 406.948 325.26 407.25 325.516C407.552 325.771 407.94 325.898 408.414 325.898ZM413.945 322.703C413.945 321.406 414.253 320.365 414.867 319.578C415.482 318.786 416.286 318.391 417.281 318.391C418.271 318.391 419.055 318.729 419.633 319.406V315H421.078V327H419.75L419.68 326.094C419.102 326.802 418.297 327.156 417.266 327.156C416.286 327.156 415.487 326.755 414.867 325.953C414.253 325.151 413.945 324.104 413.945 322.812V322.703ZM415.391 322.867C415.391 323.826 415.589 324.576 415.984 325.117C416.38 325.659 416.927 325.93 417.625 325.93C418.542 325.93 419.211 325.518 419.633 324.695V320.812C419.201 320.016 418.536 319.617 417.641 319.617C416.932 319.617 416.38 319.891 415.984 320.438C415.589 320.984 415.391 321.794 415.391 322.867Z" fill="#4C4D5F"/>
<path fill-rule="evenodd" clip-rule="evenodd" d="M225.204 304.286C212.928 304.286 202.984 294.388 202.984 282.171V272.998C202.984 260.781 212.928 250.883 225.204 250.883C237.479 250.883 247.423 260.781 247.423 272.998V282.171C247.423 294.388 237.479 304.286 225.204 304.286Z" fill="#A4D0B4"/>
<path fill-rule="evenodd" clip-rule="evenodd" d="M230.657 298.871C218.383 298.871 208.439 288.973 208.439 276.756V267.583C208.439 255.366 218.383 245.468 230.657 245.468C242.934 245.468 252.877 255.366 252.877 267.583V276.756C252.865 288.973 242.919 298.871 230.657 298.871Z" fill="#FAF9F8"/>
<path fill-rule="evenodd" clip-rule="evenodd" d="M222.509 246.167C215.129 246.167 209.128 252.14 209.128 259.486V284.853C209.128 292.199 215.129 298.171 222.509 298.171H238.78C246.161 298.171 252.162 292.199 252.162 284.853V259.486C252.162 252.14 246.161 246.167 238.78 246.167H222.509ZM238.793 299.557H222.522C214.374 299.557 207.748 292.963 207.748 284.853V259.486C207.748 251.376 214.374 244.781 222.522 244.781H238.793C246.943 244.781 253.567 251.376 253.567 259.486V284.853C253.556 292.963 246.929 299.557 238.793 299.557Z" fill="#9DC8AD"/>
<path fill-rule="evenodd" clip-rule="evenodd" d="M223.368 265.186L218.058 270.471L214.999 267.414" fill="#FAF9F8"/>
<path fill-rule="evenodd" clip-rule="evenodd" d="M218.057 271.158C217.875 271.158 217.693 271.08 217.563 270.951L214.505 267.893C214.231 267.623 214.231 267.194 214.505 266.922C214.777 266.651 215.207 266.651 215.481 266.922L218.057 269.487L222.874 264.693C223.147 264.421 223.577 264.421 223.85 264.693C224.123 264.965 224.123 265.393 223.85 265.665L218.539 270.951C218.422 271.08 218.24 271.158 218.057 271.158Z" fill="#9DC8AD"/>
<path fill-rule="evenodd" clip-rule="evenodd" d="M247.059 268.386H228.756C228.379 268.386 228.068 268.075 228.068 267.699C228.068 267.324 228.379 267.013 228.756 267.013H247.059C247.437 267.013 247.748 267.324 247.748 267.699C247.762 268.075 247.45 268.386 247.059 268.386Z" fill="#9DC8AD"/>
<path fill-rule="evenodd" clip-rule="evenodd" d="M223.368 278.776L218.058 284.062L214.999 281.005" fill="#FAF9F8"/>
<path fill-rule="evenodd" clip-rule="evenodd" d="M218.057 284.749C217.875 284.749 217.693 284.671 217.563 284.542L214.505 281.484C214.231 281.212 214.231 280.772 214.505 280.512C214.777 280.24 215.207 280.24 215.481 280.512L218.057 283.078L222.874 278.284C223.147 278.012 223.577 278.012 223.85 278.284C224.123 278.556 224.123 278.984 223.85 279.256L218.539 284.542C218.422 284.684 218.24 284.749 218.057 284.749Z" fill="#9DC8AD"/>
<path fill-rule="evenodd" clip-rule="evenodd" d="M240.551 281.977H228.771C228.393 281.977 228.081 281.666 228.081 281.29C228.081 280.914 228.393 280.604 228.771 280.604H240.551C240.928 280.604 241.24 280.914 241.24 281.29C241.24 281.666 240.928 281.977 240.551 281.977Z" fill="#9DC8AD"/>
<path fill-rule="evenodd" clip-rule="evenodd" d="M209.636 258.864H251.746V254.058H209.636V258.864Z" fill="#9DC8AD"/>
<path d="M215.891 322.359H211.117V327.383H209.617V316.008H216.664V317.242H211.117V321.133H215.891V322.359ZM219.805 327.383H218.359V318.93H219.805V327.383ZM218.242 316.688C218.242 316.453 218.312 316.255 218.453 316.094C218.599 315.932 218.812 315.852 219.094 315.852C219.375 315.852 219.589 315.932 219.734 316.094C219.88 316.255 219.953 316.453 219.953 316.688C219.953 316.922 219.88 317.117 219.734 317.273C219.589 317.43 219.375 317.508 219.094 317.508C218.812 317.508 218.599 317.43 218.453 317.273C218.312 317.117 218.242 316.922 218.242 316.688ZM223.695 327.383H222.25V315.383H223.695V327.383ZM227.586 327.383H226.141V315.383H227.586V327.383ZM235.711 327.383H234.211V316.008H235.711V327.383ZM239.602 318.93L239.648 319.992C240.294 319.18 241.138 318.773 242.18 318.773C243.966 318.773 244.867 319.781 244.883 321.797V327.383H243.438V321.789C243.432 321.18 243.292 320.729 243.016 320.438C242.745 320.146 242.32 320 241.742 320C241.273 320 240.862 320.125 240.508 320.375C240.154 320.625 239.878 320.953 239.68 321.359V327.383H238.234V318.93H239.602Z" fill="#4C4D5F"/>
<g clip-path="url(#clip1)">
<path d="M379.218 248.289C378.989 248.047 378.674 247.902 378.349 247.902H358.844C355.244 247.902 352.273 250.861 352.273 254.46V291.344C352.273 294.943 355.244 297.902 358.844 297.902H385.317C388.916 297.902 391.887 294.943 391.887 291.344V262.057C391.887 261.743 391.742 261.441 391.537 261.211L379.218 248.289ZM379.568 252.166L387.817 260.825H382.455C380.861 260.825 379.568 259.545 379.568 257.951V252.166ZM385.317 295.487H358.844C356.585 295.487 354.689 293.615 354.689 291.344V254.46C354.689 252.202 356.573 250.318 358.844 250.318H377.153V257.951C377.153 260.885 379.52 263.241 382.455 263.241H389.471V291.344C389.471 293.615 387.587 295.487 385.317 295.487Z" fill="#A4D0B4"/>
<path d="M382.02 287.154H362.141C361.476 287.154 360.933 287.698 360.933 288.362C360.933 289.026 361.476 289.57 362.141 289.57H382.032C382.696 289.57 383.24 289.026 383.24 288.362C383.24 287.698 382.696 287.154 382.02 287.154Z" fill="#9DC8AD"/>
<path d="M371.199 282.818C371.428 283.06 371.742 283.205 372.08 283.205C372.418 283.205 372.732 283.06 372.962 282.818L380.039 275.222C380.498 274.738 380.462 273.965 379.979 273.519C379.496 273.06 378.723 273.096 378.276 273.579L373.288 278.929V265.741C373.288 265.076 372.744 264.533 372.08 264.533C371.416 264.533 370.872 265.076 370.872 265.741V278.929L365.896 273.579C365.438 273.096 364.677 273.06 364.194 273.519C363.711 273.978 363.674 274.739 364.133 275.222L371.199 282.818Z" fill="#9DC8AD"/>
</g>
<path fill-rule="evenodd" clip-rule="evenodd" d="M55.0168 262.456V293.482C55.0168 293.751 55.2299 293.961 55.4998 293.961H100.538C107.329 293.961 112.827 288.51 112.827 281.78V245.993C112.827 245.724 112.614 245.515 112.346 245.515H55.4998" fill="#FAF9F8"/>
<path fill-rule="evenodd" clip-rule="evenodd" d="M100.524 294.707H55.4861C54.8041 294.707 54.25 294.158 54.25 293.482V262.456C54.25 262.048 54.591 261.71 55.003 261.71C55.415 261.71 55.756 262.048 55.756 262.456V293.215H100.51C106.875 293.215 112.046 288.088 112.046 281.779V246.274H55.4719C55.0598 246.274 54.7189 245.936 54.7189 245.528C54.7189 245.119 55.0598 244.781 55.4719 244.781H112.316C112.998 244.781 113.553 245.331 113.553 246.007V281.779C113.567 288.905 107.713 294.707 100.524 294.707Z" fill="#9DC8AD"/>
<path fill-rule="evenodd" clip-rule="evenodd" d="M61.2549 278.763H72.6054V254.203H61.2549V278.763Z" fill="#A4D0B4"/>
<path fill-rule="evenodd" clip-rule="evenodd" d="M78.5029 269.104H89.8548V254.203H78.5029V269.104Z" fill="#FAF9F8"/>
<path fill-rule="evenodd" clip-rule="evenodd" d="M79.2559 268.357H89.0876V254.95H79.2559V268.357ZM89.8548 269.85H78.5029C78.0909 269.85 77.7485 269.512 77.7485 269.104V254.203C77.7485 253.795 78.0909 253.457 78.5029 253.457H89.8548C90.2668 253.457 90.6064 253.795 90.6064 254.203V269.104C90.6064 269.512 90.2668 269.85 89.8548 269.85Z" fill="#9DC8AD"/>
<path fill-rule="evenodd" clip-rule="evenodd" d="M95.2807 273.441H106.633V254.203H95.2807V273.441Z" fill="#FAF9F8"/>
<path fill-rule="evenodd" clip-rule="evenodd" d="M96.0337 272.681H105.865V254.949H96.0337V272.681ZM106.62 274.173H95.2665C94.8544 274.173 94.5135 273.835 94.5135 273.427V254.189C94.5135 253.78 94.8544 253.442 95.2665 253.442H106.62C107.032 253.442 107.373 253.78 107.373 254.189V273.427C107.373 273.849 107.045 274.173 106.62 274.173Z" fill="#9DC8AD"/>
<path fill-rule="evenodd" clip-rule="evenodd" d="M61.2549 261.653H72.6054V254.203H61.2549V261.653Z" fill="#9DC8AD"/>
<path fill-rule="evenodd" clip-rule="evenodd" d="M78.5029 258.724H89.8548V254.203H78.5029V258.724Z" fill="#9DC8AD"/>
<path fill-rule="evenodd" clip-rule="evenodd" d="M95.2807 260.034H106.633V254.203H95.2807V260.034Z" fill="#9DC8AD"/>
<path d="M63.0703 321.68C63.0703 322.794 62.8828 323.768 62.5078 324.602C62.1328 325.43 61.6016 326.062 60.9141 326.5C60.2266 326.938 59.4245 327.156 58.5078 327.156C57.612 327.156 56.8177 326.938 56.125 326.5C55.4323 326.057 54.8932 325.43 54.5078 324.617C54.1276 323.799 53.9323 322.854 53.9219 321.781V320.961C53.9219 319.867 54.112 318.901 54.4922 318.062C54.8724 317.224 55.4089 316.583 56.1016 316.141C56.7995 315.693 57.5964 315.469 58.4922 315.469C59.4036 315.469 60.2057 315.69 60.8984 316.133C61.5964 316.57 62.1328 317.208 62.5078 318.047C62.8828 318.88 63.0703 319.852 63.0703 320.961V321.68ZM61.5781 320.945C61.5781 319.596 61.3073 318.562 60.7656 317.844C60.224 317.12 59.4661 316.758 58.4922 316.758C57.5443 316.758 56.7969 317.12 56.25 317.844C55.7083 318.562 55.4297 319.562 55.4141 320.844V321.68C55.4141 322.987 55.6875 324.016 56.2344 324.766C56.7865 325.51 57.5443 325.883 58.5078 325.883C59.4766 325.883 60.2266 325.531 60.7578 324.828C61.2891 324.12 61.5625 323.107 61.5781 321.789V320.945ZM67.8828 325.039L69.9766 318.547H71.4531L68.4219 327H67.3203L64.2578 318.547H65.7344L67.8828 325.039ZM76.2422 327.156C75.0964 327.156 74.1641 326.781 73.4453 326.031C72.7266 325.276 72.3672 324.268 72.3672 323.008V322.742C72.3672 321.904 72.526 321.156 72.8438 320.5C73.1667 319.839 73.6146 319.323 74.1875 318.953C74.7656 318.578 75.3906 318.391 76.0625 318.391C77.1615 318.391 78.0156 318.753 78.625 319.477C79.2344 320.201 79.5391 321.237 79.5391 322.586V323.188H73.8125C73.8333 324.021 74.0755 324.695 74.5391 325.211C75.0078 325.721 75.6016 325.977 76.3203 325.977C76.8307 325.977 77.263 325.872 77.6172 325.664C77.9714 325.456 78.2812 325.18 78.5469 324.836L79.4297 325.523C78.7214 326.612 77.6589 327.156 76.2422 327.156ZM76.0625 319.578C75.4792 319.578 74.9896 319.792 74.5938 320.219C74.1979 320.641 73.9531 321.234 73.8594 322H78.0938V321.891C78.0521 321.156 77.8542 320.589 77.5 320.188C77.1458 319.781 76.6667 319.578 76.0625 319.578ZM85.3047 319.844C85.0859 319.807 84.849 319.789 84.5938 319.789C83.6458 319.789 83.0026 320.193 82.6641 321V327H81.2188V318.547H82.625L82.6484 319.523C83.1224 318.768 83.7943 318.391 84.6641 318.391C84.9453 318.391 85.1589 318.427 85.3047 318.5V319.844ZM89.5703 325.039L91.6641 318.547H93.1406L90.1094 327H89.0078L85.9453 318.547H87.4219L89.5703 325.039ZM96.1016 327H94.6562V318.547H96.1016V327ZM94.5391 316.305C94.5391 316.07 94.6094 315.872 94.75 315.711C94.8958 315.549 95.1094 315.469 95.3906 315.469C95.6719 315.469 95.8854 315.549 96.0312 315.711C96.1771 315.872 96.25 316.07 96.25 316.305C96.25 316.539 96.1771 316.734 96.0312 316.891C95.8854 317.047 95.6719 317.125 95.3906 317.125C95.1094 317.125 94.8958 317.047 94.75 316.891C94.6094 316.734 94.5391 316.539 94.5391 316.305ZM101.93 327.156C100.784 327.156 99.8516 326.781 99.1328 326.031C98.4141 325.276 98.0547 324.268 98.0547 323.008V322.742C98.0547 321.904 98.2135 321.156 98.5312 320.5C98.8542 319.839 99.3021 319.323 99.875 318.953C100.453 318.578 101.078 318.391 101.75 318.391C102.849 318.391 103.703 318.753 104.312 319.477C104.922 320.201 105.227 321.237 105.227 322.586V323.188H99.5C99.5208 324.021 99.763 324.695 100.227 325.211C100.695 325.721 101.289 325.977 102.008 325.977C102.518 325.977 102.951 325.872 103.305 325.664C103.659 325.456 103.969 325.18 104.234 324.836L105.117 325.523C104.409 326.612 103.346 327.156 101.93 327.156ZM101.75 319.578C101.167 319.578 100.677 319.792 100.281 320.219C99.8854 320.641 99.6406 321.234 99.5469 322H103.781V321.891C103.74 321.156 103.542 320.589 103.188 320.188C102.833 319.781 102.354 319.578 101.75 319.578ZM114.391 325.008L116.016 318.547H117.461L115 327H113.828L111.773 320.594L109.773 327H108.602L106.148 318.547H107.586L109.25 324.875L111.219 318.547H112.383L114.391 325.008Z" fill="#4C4D5F"/>
<path fill-rule="evenodd" clip-rule="evenodd" d="M373.865 171.029C372.746 171.17 371.594 171.246 370.431 171.246C355.817 171.246 343.974 159.396 343.974 144.774C343.974 130.152 355.817 118.302 370.431 118.302C385.046 118.302 396.888 130.152 396.888 144.774C396.888 147.818 396.379 150.753 395.422 153.482" fill="#FAF9F8"/>
<path fill-rule="evenodd" clip-rule="evenodd" d="M370.431 171.822C370.116 171.822 369.845 171.561 369.845 171.246C369.845 170.931 370.095 170.67 370.41 170.67C371.561 170.67 372.691 170.594 373.8 170.453C374.115 170.409 374.408 170.637 374.452 170.953C374.495 171.268 374.267 171.561 373.952 171.605C372.789 171.746 371.605 171.822 370.431 171.822Z" fill="#9DC8AD"/>
<mask id="mask0" mask-type="alpha" maskUnits="userSpaceOnUse" x="343" y="118" width="54" height="52">
<path d="M343.494 118.141H396.574V169.028H343.494V118.141Z" fill="white"/>
</mask>
<g mask="url(#mask0)">
<path fill-rule="evenodd" clip-rule="evenodd" d="M358.859 121.552C358.643 121.552 358.435 121.432 358.339 121.226C358.197 120.943 358.316 120.595 358.61 120.454C360.87 119.356 363.261 118.573 365.737 118.149C366.052 118.095 366.356 118.302 366.411 118.617C366.465 118.932 366.26 119.236 365.945 119.291C363.576 119.704 361.282 120.454 359.12 121.498C359.033 121.53 358.946 121.552 358.859 121.552ZM384.643 123.031C384.536 123.031 384.426 122.998 384.328 122.944C382.296 121.65 380.102 120.65 377.809 119.965C377.504 119.878 377.331 119.552 377.418 119.247C377.504 118.943 377.832 118.769 378.135 118.856C380.536 119.573 382.83 120.617 384.949 121.976C385.22 122.15 385.295 122.509 385.121 122.77C385.013 122.933 384.828 123.031 384.643 123.031ZM345.832 135.62C345.755 135.62 345.691 135.609 345.615 135.576C345.32 135.457 345.168 135.12 345.289 134.826C346.211 132.5 347.462 130.304 348.993 128.303C349.19 128.053 349.548 127.999 349.808 128.195C350.058 128.39 350.112 128.749 349.918 129.01C348.45 130.923 347.255 133.022 346.376 135.25C346.277 135.478 346.06 135.62 345.832 135.62ZM395.987 138.501C395.737 138.501 395.499 138.327 395.433 138.077C394.815 135.761 393.869 133.532 392.629 131.478C392.468 131.206 392.554 130.847 392.826 130.684C393.098 130.521 393.456 130.608 393.618 130.88C394.912 133.032 395.9 135.359 396.552 137.783C396.64 138.088 396.455 138.414 396.14 138.49C396.086 138.49 396.03 138.501 395.987 138.501ZM345.712 154.797C345.483 154.797 345.255 154.656 345.168 154.428C344.277 152.079 343.713 149.622 343.495 147.122C343.474 146.807 343.703 146.524 344.018 146.491C344.333 146.459 344.615 146.698 344.647 147.024C344.853 149.427 345.387 151.775 346.245 154.014C346.353 154.308 346.211 154.645 345.907 154.765C345.853 154.786 345.777 154.797 345.712 154.797ZM358.577 169.028C358.49 169.028 358.403 169.006 358.316 168.963C356.077 167.832 354.002 166.408 352.155 164.701C351.916 164.484 351.906 164.114 352.123 163.886C352.34 163.647 352.71 163.636 352.938 163.853C354.709 165.484 356.698 166.854 358.837 167.93C359.12 168.071 359.24 168.419 359.099 168.702C358.989 168.908 358.784 169.028 358.577 169.028Z" fill="#9DC8AD"/>
</g>
<path fill-rule="evenodd" clip-rule="evenodd" d="M395.422 154.069C395.357 154.069 395.292 154.058 395.227 154.036C394.923 153.928 394.77 153.601 394.868 153.297C395.238 152.232 395.542 151.134 395.77 150.025C395.835 149.709 396.14 149.514 396.455 149.579C396.77 149.644 396.965 149.949 396.9 150.264C396.661 151.427 396.346 152.569 395.955 153.677C395.879 153.917 395.661 154.069 395.422 154.069Z" fill="#9DC8AD"/>
<path fill-rule="evenodd" clip-rule="evenodd" d="M387.86 157.309C392.882 157.309 396.954 161.383 396.954 166.408C396.954 171.434 392.882 175.508 387.86 175.508C382.837 175.508 378.765 171.434 378.765 166.408C378.765 161.383 382.837 157.309 387.86 157.309Z" fill="#A4D0B4"/>
<path fill-rule="evenodd" clip-rule="evenodd" d="M370.127 129.651V145.252L377.005 152.134" fill="#FAF9F8"/>
<path fill-rule="evenodd" clip-rule="evenodd" d="M377.005 152.721C376.853 152.721 376.711 152.666 376.592 152.547L369.714 145.665C369.605 145.556 369.54 145.404 369.54 145.252V129.651C369.54 129.336 369.801 129.075 370.116 129.075C370.431 129.075 370.692 129.336 370.692 129.651V145.013L377.407 151.721C377.635 151.949 377.635 152.308 377.407 152.536C377.299 152.666 377.158 152.721 377.005 152.721Z" fill="#9DC8AD"/>
<path fill-rule="evenodd" clip-rule="evenodd" d="M370.431 141.729C372.118 141.729 373.485 143.097 373.485 144.784C373.485 146.472 372.118 147.839 370.431 147.839C368.745 147.839 367.378 146.472 367.378 144.784C367.378 143.097 368.745 141.729 370.431 141.729Z" fill="#9DC8AD"/>
<path fill-rule="evenodd" clip-rule="evenodd" d="M387.121 169.549C386.968 169.549 386.817 169.484 386.708 169.375L384.155 166.81C383.927 166.581 383.927 166.223 384.155 165.994C384.382 165.766 384.742 165.766 384.97 165.994L387.121 168.147L391.141 164.124C391.369 163.896 391.727 163.896 391.955 164.124C392.184 164.353 392.184 164.711 391.955 164.94L387.523 169.375C387.424 169.495 387.273 169.549 387.121 169.549Z" fill="#9DC8AD"/>
<path d="M353.18 194.859H349.523V205H348.031V194.859H344.383V193.625H353.18V194.859ZM358.969 205C358.885 204.833 358.818 204.536 358.766 204.109C358.094 204.807 357.292 205.156 356.359 205.156C355.526 205.156 354.841 204.922 354.305 204.453C353.773 203.979 353.508 203.38 353.508 202.656C353.508 201.776 353.841 201.094 354.508 200.609C355.18 200.12 356.122 199.875 357.336 199.875H358.742V199.211C358.742 198.706 358.591 198.305 358.289 198.008C357.987 197.706 357.542 197.555 356.953 197.555C356.438 197.555 356.005 197.685 355.656 197.945C355.307 198.206 355.133 198.521 355.133 198.891H353.68C353.68 198.469 353.828 198.062 354.125 197.672C354.427 197.276 354.833 196.964 355.344 196.734C355.859 196.505 356.424 196.391 357.039 196.391C358.013 196.391 358.776 196.635 359.328 197.125C359.88 197.609 360.167 198.279 360.188 199.133V203.023C360.188 203.799 360.286 204.417 360.484 204.875V205H358.969ZM356.57 203.898C357.023 203.898 357.453 203.781 357.859 203.547C358.266 203.312 358.56 203.008 358.742 202.633V200.898H357.609C355.839 200.898 354.953 201.417 354.953 202.453C354.953 202.906 355.104 203.26 355.406 203.516C355.708 203.771 356.096 203.898 356.57 203.898ZM364.812 201.086L363.906 202.031V205H362.461V193H363.906V200.258L364.68 199.328L367.312 196.547H369.07L365.781 200.078L369.453 205H367.758L364.812 201.086ZM373.914 205.156C372.768 205.156 371.836 204.781 371.117 204.031C370.398 203.276 370.039 202.268 370.039 201.008V200.742C370.039 199.904 370.198 199.156 370.516 198.5C370.839 197.839 371.286 197.323 371.859 196.953C372.438 196.578 373.062 196.391 373.734 196.391C374.833 196.391 375.688 196.753 376.297 197.477C376.906 198.201 377.211 199.237 377.211 200.586V201.188H371.484C371.505 202.021 371.747 202.695 372.211 203.211C372.68 203.721 373.273 203.977 373.992 203.977C374.503 203.977 374.935 203.872 375.289 203.664C375.643 203.456 375.953 203.18 376.219 202.836L377.102 203.523C376.393 204.612 375.331 205.156 373.914 205.156ZM373.734 197.578C373.151 197.578 372.661 197.792 372.266 198.219C371.87 198.641 371.625 199.234 371.531 200H375.766V199.891C375.724 199.156 375.526 198.589 375.172 198.188C374.818 197.781 374.339 197.578 373.734 197.578ZM386.438 199.93C385.151 199.56 384.214 199.107 383.625 198.57C383.042 198.029 382.75 197.362 382.75 196.57C382.75 195.674 383.107 194.935 383.82 194.352C384.539 193.763 385.471 193.469 386.617 193.469C387.398 193.469 388.094 193.62 388.703 193.922C389.318 194.224 389.792 194.641 390.125 195.172C390.464 195.703 390.633 196.284 390.633 196.914H389.125C389.125 196.227 388.906 195.688 388.469 195.297C388.031 194.901 387.414 194.703 386.617 194.703C385.878 194.703 385.299 194.867 384.883 195.195C384.471 195.518 384.266 195.969 384.266 196.547C384.266 197.01 384.461 197.404 384.852 197.727C385.247 198.044 385.917 198.336 386.859 198.602C387.807 198.867 388.547 199.161 389.078 199.484C389.615 199.802 390.01 200.174 390.266 200.602C390.526 201.029 390.656 201.531 390.656 202.109C390.656 203.031 390.297 203.771 389.578 204.328C388.859 204.88 387.898 205.156 386.695 205.156C385.914 205.156 385.185 205.008 384.508 204.711C383.831 204.409 383.307 203.997 382.938 203.477C382.573 202.956 382.391 202.365 382.391 201.703H383.898C383.898 202.391 384.151 202.935 384.656 203.336C385.167 203.732 385.846 203.93 386.695 203.93C387.487 203.93 388.094 203.768 388.516 203.445C388.938 203.122 389.148 202.682 389.148 202.125C389.148 201.568 388.953 201.138 388.562 200.836C388.172 200.529 387.464 200.227 386.438 199.93ZM391.977 200.695C391.977 199.867 392.138 199.122 392.461 198.461C392.789 197.799 393.242 197.289 393.82 196.93C394.404 196.57 395.068 196.391 395.812 196.391C396.964 196.391 397.893 196.789 398.602 197.586C399.315 198.383 399.672 199.443 399.672 200.766V200.867C399.672 201.69 399.513 202.43 399.195 203.086C398.883 203.737 398.432 204.245 397.844 204.609C397.26 204.974 396.589 205.156 395.828 205.156C394.682 205.156 393.753 204.758 393.039 203.961C392.331 203.164 391.977 202.109 391.977 200.797V200.695ZM393.43 200.867C393.43 201.805 393.646 202.557 394.078 203.125C394.516 203.693 395.099 203.977 395.828 203.977C396.562 203.977 397.146 203.69 397.578 203.117C398.01 202.539 398.227 201.732 398.227 200.695C398.227 199.768 398.005 199.018 397.562 198.445C397.125 197.867 396.542 197.578 395.812 197.578C395.099 197.578 394.523 197.862 394.086 198.43C393.648 198.997 393.43 199.81 393.43 200.867ZM402.844 196.547L402.883 197.484C403.503 196.755 404.339 196.391 405.391 196.391C406.573 196.391 407.378 196.844 407.805 197.75C408.086 197.344 408.451 197.016 408.898 196.766C409.352 196.516 409.885 196.391 410.5 196.391C412.354 196.391 413.297 197.372 413.328 199.336V205H411.883V199.422C411.883 198.818 411.745 198.367 411.469 198.07C411.193 197.768 410.729 197.617 410.078 197.617C409.542 197.617 409.096 197.779 408.742 198.102C408.388 198.419 408.182 198.849 408.125 199.391V205H406.672V199.461C406.672 198.232 406.07 197.617 404.867 197.617C403.919 197.617 403.271 198.021 402.922 198.828V205H401.477V196.547H402.844ZM419.023 205.156C417.878 205.156 416.945 204.781 416.227 204.031C415.508 203.276 415.148 202.268 415.148 201.008V200.742C415.148 199.904 415.307 199.156 415.625 198.5C415.948 197.839 416.396 197.323 416.969 196.953C417.547 196.578 418.172 196.391 418.844 196.391C419.943 196.391 420.797 196.753 421.406 197.477C422.016 198.201 422.32 199.237 422.32 200.586V201.188H416.594C416.615 202.021 416.857 202.695 417.32 203.211C417.789 203.721 418.383 203.977 419.102 203.977C419.612 203.977 420.044 203.872 420.398 203.664C420.753 203.456 421.062 203.18 421.328 202.836L422.211 203.523C421.503 204.612 420.44 205.156 419.023 205.156ZM418.844 197.578C418.26 197.578 417.771 197.792 417.375 198.219C416.979 198.641 416.734 199.234 416.641 200H420.875V199.891C420.833 199.156 420.635 198.589 420.281 198.188C419.927 197.781 419.448 197.578 418.844 197.578ZM353.18 213.859H349.523V224H348.031V213.859H344.383V212.625H353.18V213.859ZM356.211 224H354.766V215.547H356.211V224ZM354.648 213.305C354.648 213.07 354.719 212.872 354.859 212.711C355.005 212.549 355.219 212.469 355.5 212.469C355.781 212.469 355.995 212.549 356.141 212.711C356.286 212.872 356.359 213.07 356.359 213.305C356.359 213.539 356.286 213.734 356.141 213.891C355.995 214.047 355.781 214.125 355.5 214.125C355.219 214.125 355.005 214.047 354.859 213.891C354.719 213.734 354.648 213.539 354.648 213.305ZM359.891 215.547L359.93 216.484C360.549 215.755 361.385 215.391 362.438 215.391C363.62 215.391 364.424 215.844 364.852 216.75C365.133 216.344 365.497 216.016 365.945 215.766C366.398 215.516 366.932 215.391 367.547 215.391C369.401 215.391 370.344 216.372 370.375 218.336V224H368.93V218.422C368.93 217.818 368.792 217.367 368.516 217.07C368.24 216.768 367.776 216.617 367.125 216.617C366.589 216.617 366.143 216.779 365.789 217.102C365.435 217.419 365.229 217.849 365.172 218.391V224H363.719V218.461C363.719 217.232 363.117 216.617 361.914 216.617C360.966 216.617 360.318 217.021 359.969 217.828V224H358.523V215.547H359.891ZM376.07 224.156C374.924 224.156 373.992 223.781 373.273 223.031C372.555 222.276 372.195 221.268 372.195 220.008V219.742C372.195 218.904 372.354 218.156 372.672 217.5C372.995 216.839 373.443 216.323 374.016 215.953C374.594 215.578 375.219 215.391 375.891 215.391C376.99 215.391 377.844 215.753 378.453 216.477C379.062 217.201 379.367 218.237 379.367 219.586V220.188H373.641C373.661 221.021 373.904 221.695 374.367 222.211C374.836 222.721 375.43 222.977 376.148 222.977C376.659 222.977 377.091 222.872 377.445 222.664C377.799 222.456 378.109 222.18 378.375 221.836L379.258 222.523C378.549 223.612 377.487 224.156 376.07 224.156ZM375.891 216.578C375.307 216.578 374.818 216.792 374.422 217.219C374.026 217.641 373.781 218.234 373.688 219H377.922V218.891C377.88 218.156 377.682 217.589 377.328 217.188C376.974 216.781 376.495 216.578 375.891 216.578Z" fill="#4C4D5F"/>
<path fill-rule="evenodd" clip-rule="evenodd" d="M226.112 114.916H241.89C248.203 114.916 253.311 120.029 253.311 126.32V164.322L248.179 169.981L243.045 164.322L237.511 169.981L232.072 164.322L226.635 169.981L221.405 164.322L215.967 169.981L211.489 164.322V115.317" fill="#A4D0B4"/>
<path fill-rule="evenodd" clip-rule="evenodd" d="M219.155 121.754H234.932C241.244 121.754 246.353 126.867 246.353 133.158V171.159L241.221 176.819L236.088 171.159L230.552 176.819L225.114 171.159L219.678 176.819L214.447 171.159L209.008 176.819L204.531 171.159V122.155" fill="#FAF9F8"/>
<path fill-rule="evenodd" clip-rule="evenodd" d="M241.22 177.463C241.038 177.463 240.868 177.39 240.747 177.256L236.075 172.107L231.016 177.281C230.893 177.402 230.698 177.475 230.552 177.475C230.382 177.475 230.211 177.402 230.09 177.281L225.114 172.107L220.139 177.281C220.019 177.402 219.847 177.475 219.677 177.475H219.666C219.482 177.475 219.313 177.402 219.19 177.268L214.422 172.119L209.459 177.281C209.326 177.414 209.142 177.487 208.96 177.475C208.777 177.463 208.595 177.378 208.485 177.232L204.009 171.572C203.924 171.463 203.875 171.317 203.875 171.172V122.167C203.875 121.815 204.167 121.523 204.52 121.523C204.872 121.523 205.164 121.815 205.164 122.167V170.941L209.033 175.835L213.959 170.71C214.081 170.589 214.251 170.516 214.422 170.516H214.434C214.616 170.516 214.787 170.589 214.908 170.722L219.677 175.872L224.64 170.71C224.885 170.455 225.333 170.455 225.577 170.71L230.552 175.884L235.625 170.698C235.746 170.577 235.929 170.516 236.099 170.504C236.282 170.504 236.452 170.589 236.561 170.71L241.22 175.835L245.709 170.892V133.134C245.709 127.195 240.868 122.373 234.931 122.373H219.155C218.802 122.373 218.509 122.082 218.509 121.73C218.509 121.377 218.802 121.086 219.155 121.086H234.931C241.585 121.086 247.011 126.49 247.011 133.146V171.147C247.011 171.305 246.95 171.463 246.84 171.585L241.707 177.244C241.573 177.39 241.404 177.463 241.22 177.463Z" fill="#9DC8AD"/>
<path fill-rule="evenodd" clip-rule="evenodd" d="M237.146 155.176H213.729C213.376 155.176 213.084 154.885 213.084 154.532C213.084 154.18 213.376 153.889 213.729 153.889H237.146C237.498 153.889 237.79 154.18 237.79 154.532C237.802 154.885 237.511 155.176 237.146 155.176Z" fill="#9DC8AD"/>
<path fill-rule="evenodd" clip-rule="evenodd" d="M237.062 145.287H213.645C213.292 145.287 213 144.996 213 144.644C213 144.291 213.292 144 213.645 144H237.062C237.413 144 237.705 144.291 237.705 144.644C237.717 144.996 237.427 145.287 237.062 145.287Z" fill="#9DC8AD"/>
<path fill-rule="evenodd" clip-rule="evenodd" d="M237.062 135.287H213.645C213.292 135.287 213 134.996 213 134.644C213 134.291 213.292 134 213.645 134H237.062C237.413 134 237.705 134.291 237.705 134.644C237.717 134.996 237.427 135.287 237.062 135.287Z" fill="#9DC8AD"/>
<path fill-rule="evenodd" clip-rule="evenodd" d="M234.883 160.265H215.991C215.639 160.265 215.345 159.973 215.345 159.621C215.345 159.269 215.639 158.978 215.991 158.978H234.883C235.236 158.978 235.528 159.269 235.528 159.621C235.528 159.973 235.236 160.265 234.883 160.265Z" fill="#9DC8AD"/>
<path fill-rule="evenodd" clip-rule="evenodd" d="M234.799 150.376H215.907C215.554 150.376 215.261 150.085 215.261 149.733C215.261 149.38 215.554 149.089 215.907 149.089H234.799C235.151 149.089 235.443 149.38 235.443 149.733C235.443 150.085 235.151 150.376 234.799 150.376Z" fill="#9DC8AD"/>
<path fill-rule="evenodd" clip-rule="evenodd" d="M234.799 140.376H215.907C215.554 140.376 215.261 140.085 215.261 139.733C215.261 139.38 215.554 139.089 215.907 139.089H234.799C235.151 139.089 235.443 139.38 235.443 139.733C235.443 140.085 235.151 140.376 234.799 140.376Z" fill="#9DC8AD"/>
<path d="M210.32 205V193.625H213.531C214.521 193.625 215.396 193.844 216.156 194.281C216.917 194.719 217.503 195.341 217.914 196.148C218.331 196.956 218.542 197.883 218.547 198.93V199.656C218.547 200.729 218.339 201.669 217.922 202.477C217.51 203.284 216.919 203.904 216.148 204.336C215.383 204.768 214.49 204.99 213.469 205H210.32ZM211.82 194.859V203.773H213.398C214.555 203.773 215.453 203.414 216.094 202.695C216.74 201.977 217.062 200.953 217.062 199.625V198.961C217.062 197.669 216.758 196.667 216.148 195.953C215.544 195.234 214.685 194.87 213.57 194.859H211.82ZM224.68 197.844C224.461 197.807 224.224 197.789 223.969 197.789C223.021 197.789 222.378 198.193 222.039 199V205H220.594V196.547H222L222.023 197.523C222.497 196.768 223.169 196.391 224.039 196.391C224.32 196.391 224.534 196.427 224.68 196.5V197.844ZM230.922 205C230.839 204.833 230.771 204.536 230.719 204.109C230.047 204.807 229.245 205.156 228.312 205.156C227.479 205.156 226.794 204.922 226.258 204.453C225.727 203.979 225.461 203.38 225.461 202.656C225.461 201.776 225.794 201.094 226.461 200.609C227.133 200.12 228.076 199.875 229.289 199.875H230.695V199.211C230.695 198.706 230.544 198.305 230.242 198.008C229.94 197.706 229.495 197.555 228.906 197.555C228.391 197.555 227.958 197.685 227.609 197.945C227.26 198.206 227.086 198.521 227.086 198.891H225.633C225.633 198.469 225.781 198.062 226.078 197.672C226.38 197.276 226.786 196.964 227.297 196.734C227.812 196.505 228.378 196.391 228.992 196.391C229.966 196.391 230.729 196.635 231.281 197.125C231.833 197.609 232.12 198.279 232.141 199.133V203.023C232.141 203.799 232.24 204.417 232.438 204.875V205H230.922ZM228.523 203.898C228.977 203.898 229.406 203.781 229.812 203.547C230.219 203.312 230.513 203.008 230.695 202.633V200.898H229.562C227.792 200.898 226.906 201.417 226.906 202.453C226.906 202.906 227.057 203.26 227.359 203.516C227.661 203.771 228.049 203.898 228.523 203.898ZM235.117 205V197.664H233.781V196.547H235.117V195.68C235.117 194.773 235.359 194.073 235.844 193.578C236.328 193.083 237.013 192.836 237.898 192.836C238.232 192.836 238.562 192.88 238.891 192.969L238.812 194.141C238.568 194.094 238.307 194.07 238.031 194.07C237.562 194.07 237.201 194.208 236.945 194.484C236.69 194.755 236.562 195.146 236.562 195.656V196.547H238.367V197.664H236.562V205H235.117ZM241.93 194.5V196.547H243.508V197.664H241.93V202.906C241.93 203.245 242 203.5 242.141 203.672C242.281 203.839 242.521 203.922 242.859 203.922C243.026 203.922 243.255 203.891 243.547 203.828V205C243.167 205.104 242.797 205.156 242.438 205.156C241.792 205.156 241.305 204.961 240.977 204.57C240.648 204.18 240.484 203.625 240.484 202.906V197.664H238.945V196.547H240.484V194.5H241.93ZM250.125 202.758C250.125 202.367 249.977 202.065 249.68 201.852C249.388 201.633 248.875 201.445 248.141 201.289C247.411 201.133 246.831 200.945 246.398 200.727C245.971 200.508 245.654 200.247 245.445 199.945C245.242 199.643 245.141 199.284 245.141 198.867C245.141 198.174 245.432 197.589 246.016 197.109C246.604 196.63 247.354 196.391 248.266 196.391C249.224 196.391 250 196.638 250.594 197.133C251.193 197.628 251.492 198.26 251.492 199.031H250.039C250.039 198.635 249.87 198.294 249.531 198.008C249.198 197.721 248.776 197.578 248.266 197.578C247.74 197.578 247.328 197.693 247.031 197.922C246.734 198.151 246.586 198.451 246.586 198.82C246.586 199.169 246.724 199.432 247 199.609C247.276 199.786 247.773 199.956 248.492 200.117C249.216 200.279 249.802 200.471 250.25 200.695C250.698 200.919 251.029 201.19 251.242 201.508C251.461 201.82 251.57 202.203 251.57 202.656C251.57 203.411 251.268 204.018 250.664 204.477C250.06 204.93 249.276 205.156 248.312 205.156C247.635 205.156 247.036 205.036 246.516 204.797C245.995 204.557 245.586 204.224 245.289 203.797C244.997 203.365 244.852 202.898 244.852 202.398H246.297C246.323 202.883 246.516 203.268 246.875 203.555C247.24 203.836 247.719 203.977 248.312 203.977C248.859 203.977 249.297 203.867 249.625 203.648C249.958 203.424 250.125 203.128 250.125 202.758Z" fill="#4C4D5F"/>
<path d="M67.6875 201.391C67.5469 202.594 67.1016 203.523 66.3516 204.18C65.6068 204.831 64.6146 205.156 63.375 205.156C62.0312 205.156 60.9531 204.674 60.1406 203.711C59.3333 202.747 58.9297 201.458 58.9297 199.844V198.75C58.9297 197.693 59.1172 196.763 59.4922 195.961C59.8724 195.159 60.4089 194.544 61.1016 194.117C61.7943 193.685 62.5964 193.469 63.5078 193.469C64.7161 193.469 65.6849 193.807 66.4141 194.484C67.1432 195.156 67.5677 196.089 67.6875 197.281H66.1797C66.0495 196.375 65.7656 195.719 65.3281 195.312C64.8958 194.906 64.2891 194.703 63.5078 194.703C62.5495 194.703 61.7969 195.057 61.25 195.766C60.7083 196.474 60.4375 197.482 60.4375 198.789V199.891C60.4375 201.125 60.6953 202.107 61.2109 202.836C61.7266 203.565 62.4479 203.93 63.375 203.93C64.2083 203.93 64.8464 203.742 65.2891 203.367C65.737 202.987 66.0339 202.328 66.1797 201.391H67.6875ZM70.9609 197.57C71.6016 196.784 72.4349 196.391 73.4609 196.391C75.2474 196.391 76.1484 197.398 76.1641 199.414V205H74.7188V199.406C74.7135 198.797 74.5729 198.346 74.2969 198.055C74.026 197.763 73.6016 197.617 73.0234 197.617C72.5547 197.617 72.1432 197.742 71.7891 197.992C71.4349 198.242 71.1589 198.57 70.9609 198.977V205H69.5156V193H70.9609V197.57ZM77.9453 200.695C77.9453 199.867 78.1068 199.122 78.4297 198.461C78.7578 197.799 79.2109 197.289 79.7891 196.93C80.3724 196.57 81.0365 196.391 81.7812 196.391C82.9323 196.391 83.862 196.789 84.5703 197.586C85.2839 198.383 85.6406 199.443 85.6406 200.766V200.867C85.6406 201.69 85.4818 202.43 85.1641 203.086C84.8516 203.737 84.401 204.245 83.8125 204.609C83.2292 204.974 82.5573 205.156 81.7969 205.156C80.651 205.156 79.7214 204.758 79.0078 203.961C78.2995 203.164 77.9453 202.109 77.9453 200.797V200.695ZM79.3984 200.867C79.3984 201.805 79.6146 202.557 80.0469 203.125C80.4844 203.693 81.0677 203.977 81.7969 203.977C82.5312 203.977 83.1146 203.69 83.5469 203.117C83.9792 202.539 84.1953 201.732 84.1953 200.695C84.1953 199.768 83.974 199.018 83.5312 198.445C83.0938 197.867 82.5104 197.578 81.7812 197.578C81.0677 197.578 80.4922 197.862 80.0547 198.43C79.6172 198.997 79.3984 199.81 79.3984 200.867ZM87.0703 200.695C87.0703 199.867 87.2318 199.122 87.5547 198.461C87.8828 197.799 88.3359 197.289 88.9141 196.93C89.4974 196.57 90.1615 196.391 90.9062 196.391C92.0573 196.391 92.987 196.789 93.6953 197.586C94.4089 198.383 94.7656 199.443 94.7656 200.766V200.867C94.7656 201.69 94.6068 202.43 94.2891 203.086C93.9766 203.737 93.526 204.245 92.9375 204.609C92.3542 204.974 91.6823 205.156 90.9219 205.156C89.776 205.156 88.8464 204.758 88.1328 203.961C87.4245 203.164 87.0703 202.109 87.0703 200.797V200.695ZM88.5234 200.867C88.5234 201.805 88.7396 202.557 89.1719 203.125C89.6094 203.693 90.1927 203.977 90.9219 203.977C91.6562 203.977 92.2396 203.69 92.6719 203.117C93.1042 202.539 93.3203 201.732 93.3203 200.695C93.3203 199.768 93.099 199.018 92.6562 198.445C92.2188 197.867 91.6354 197.578 90.9062 197.578C90.1927 197.578 89.6172 197.862 89.1797 198.43C88.7422 198.997 88.5234 199.81 88.5234 200.867ZM101.5 202.758C101.5 202.367 101.352 202.065 101.055 201.852C100.763 201.633 100.25 201.445 99.5156 201.289C98.7865 201.133 98.2057 200.945 97.7734 200.727C97.3464 200.508 97.0286 200.247 96.8203 199.945C96.6172 199.643 96.5156 199.284 96.5156 198.867C96.5156 198.174 96.8073 197.589 97.3906 197.109C97.9792 196.63 98.7292 196.391 99.6406 196.391C100.599 196.391 101.375 196.638 101.969 197.133C102.568 197.628 102.867 198.26 102.867 199.031H101.414C101.414 198.635 101.245 198.294 100.906 198.008C100.573 197.721 100.151 197.578 99.6406 197.578C99.1146 197.578 98.7031 197.693 98.4062 197.922C98.1094 198.151 97.9609 198.451 97.9609 198.82C97.9609 199.169 98.099 199.432 98.375 199.609C98.651 199.786 99.1484 199.956 99.8672 200.117C100.591 200.279 101.177 200.471 101.625 200.695C102.073 200.919 102.404 201.19 102.617 201.508C102.836 201.82 102.945 202.203 102.945 202.656C102.945 203.411 102.643 204.018 102.039 204.477C101.435 204.93 100.651 205.156 99.6875 205.156C99.0104 205.156 98.4115 205.036 97.8906 204.797C97.3698 204.557 96.9609 204.224 96.6641 203.797C96.3724 203.365 96.2266 202.898 96.2266 202.398H97.6719C97.6979 202.883 97.8906 203.268 98.25 203.555C98.6146 203.836 99.0938 203.977 99.6875 203.977C100.234 203.977 100.672 203.867 101 203.648C101.333 203.424 101.5 203.128 101.5 202.758ZM106.398 205H104.953V196.547H106.398V205ZM104.836 194.305C104.836 194.07 104.906 193.872 105.047 193.711C105.193 193.549 105.406 193.469 105.688 193.469C105.969 193.469 106.182 193.549 106.328 193.711C106.474 193.872 106.547 194.07 106.547 194.305C106.547 194.539 106.474 194.734 106.328 194.891C106.182 195.047 105.969 195.125 105.688 195.125C105.406 195.125 105.193 195.047 105.047 194.891C104.906 194.734 104.836 194.539 104.836 194.305ZM110.086 196.547L110.133 197.609C110.779 196.797 111.622 196.391 112.664 196.391C114.451 196.391 115.352 197.398 115.367 199.414V205H113.922V199.406C113.917 198.797 113.776 198.346 113.5 198.055C113.229 197.763 112.805 197.617 112.227 197.617C111.758 197.617 111.346 197.742 110.992 197.992C110.638 198.242 110.362 198.57 110.164 198.977V205H108.719V196.547H110.086ZM117.203 200.703C117.203 199.385 117.508 198.339 118.117 197.562C118.727 196.781 119.534 196.391 120.539 196.391C121.57 196.391 122.375 196.755 122.953 197.484L123.023 196.547H124.344V204.797C124.344 205.891 124.018 206.753 123.367 207.383C122.721 208.013 121.852 208.328 120.758 208.328C120.148 208.328 119.552 208.198 118.969 207.938C118.385 207.677 117.94 207.32 117.633 206.867L118.383 206C119.003 206.766 119.76 207.148 120.656 207.148C121.359 207.148 121.906 206.951 122.297 206.555C122.693 206.159 122.891 205.602 122.891 204.883V204.156C122.312 204.823 121.523 205.156 120.523 205.156C119.534 205.156 118.732 204.758 118.117 203.961C117.508 203.164 117.203 202.078 117.203 200.703ZM118.656 200.867C118.656 201.82 118.852 202.57 119.242 203.117C119.633 203.659 120.18 203.93 120.883 203.93C121.794 203.93 122.464 203.516 122.891 202.688V198.828C122.448 198.021 121.784 197.617 120.898 197.617C120.195 197.617 119.646 197.891 119.25 198.438C118.854 198.984 118.656 199.794 118.656 200.867Z" fill="#4C4D5F"/>
<path fill-rule="evenodd" clip-rule="evenodd" d="M77.0382 118.723H107.041C107.299 118.723 107.504 118.924 107.504 119.179V161.755C107.504 168.175 102.233 173.373 95.7233 173.373H61.1313C60.8726 173.373 60.6683 173.171 60.6683 172.916V119.179" fill="#FAF9F8"/>
<path fill-rule="evenodd" clip-rule="evenodd" d="M95.0795 174.511H60.7034C60.0538 174.511 59.526 173.979 59.526 173.325V118.757C59.526 118.361 59.8508 118.034 60.2433 118.034C60.6358 118.034 60.9606 118.361 60.9606 118.757V173.066H95.0795C101.143 173.066 106.069 168.101 106.069 161.991V119.03H76.511C76.1185 119.03 75.7937 118.702 75.7937 118.307C75.7937 117.911 76.1185 117.584 76.511 117.584H106.326C106.976 117.584 107.504 118.116 107.504 118.771V162.005C107.504 168.892 101.928 174.511 95.0795 174.511Z" fill="#9DC8AD"/>
<path fill-rule="evenodd" clip-rule="evenodd" d="M109.788 142.632V174.511H58.3837V142.632L81.0103 164.518C83.0697 166.498 86.3405 166.458 88.3461 164.424L109.788 142.632Z" fill="#A4D0B4"/>
<path fill-rule="evenodd" clip-rule="evenodd" d="M83.2901 166.541C81.8254 166.541 80.3475 165.972 79.229 164.834L59.7357 145C59.4561 144.715 59.4561 144.268 59.7357 143.984C60.0153 143.699 60.4547 143.699 60.7343 143.984L80.2276 163.818C81.9186 165.539 84.6615 165.539 86.3392 163.818L99.4413 150.487C99.7209 150.202 100.16 150.202 100.44 150.487C100.72 150.771 100.72 151.219 100.44 151.503L87.3379 164.834C86.2327 165.972 84.7681 166.541 83.2901 166.541Z" fill="#9DC8AD"/>
<path fill-rule="evenodd" clip-rule="evenodd" d="M83.5148 125.554C90.454 125.554 96.0803 131.16 96.0803 138.078C96.0803 144.994 90.454 150.602 83.5148 150.602C76.5755 150.602 70.9492 144.994 70.9492 138.078C70.9492 131.16 76.5755 125.554 83.5148 125.554Z" fill="#9DC8AD"/>
<path fill-rule="evenodd" clip-rule="evenodd" d="M390.069 19.7308H369.066L365.558 12.624H346.321C345.394 12.6207 344.503 12.9919 343.845 13.6559C343.187 14.32 342.816 15.2225 342.812 16.1649V48.2207C342.812 50.1762 344.372 51.7615 346.297 51.7615H390.094C391.018 51.7615 391.904 51.3885 392.558 50.7244C393.211 50.0604 393.578 49.1598 393.578 48.2207V23.2842C393.571 21.3197 392.002 19.7308 390.069 19.7308Z" fill="#A4D0B4"/>
<path fill-rule="evenodd" clip-rule="evenodd" d="M385.757 19.7402H398.031V39.3138C398.031 41.2712 396.474 42.86 394.549 42.8669H350.748C348.828 42.86 347.272 41.2789 347.266 39.3264V19.7402H385.683" fill="#FAF9F8"/>
<path d="M385.757 19.7402H398.031V39.3138C398.031 41.2712 396.474 42.86 394.549 42.8669H350.748C348.828 42.86 347.272 41.2789 347.266 39.3264V19.7402H385.683" stroke="#9DC8AD" stroke-linecap="round" stroke-linejoin="round"/>
<path fill-rule="evenodd" clip-rule="evenodd" d="M347.266 17.9613V7.26862C347.272 5.31198 348.835 3.72949 350.76 3.72949H370.012L373.507 10.8454H394.5C395.432 10.8387 396.328 11.2096 396.991 11.876C397.654 12.5424 398.028 13.4496 398.031 14.3971V17.9613H347.266Z" fill="#FAF9F8" stroke="#9DC8AD" stroke-linecap="round" stroke-linejoin="round"/>
<path fill-rule="evenodd" clip-rule="evenodd" d="M375.766 19.7402V33.0826L379.322 29.0442L382.891 33.0826V19.7402H375.766Z" fill="#9DC8AD"/>
<path d="M349.492 81.3984H346.82V86H345.312V74.625H349.078C350.359 74.625 351.344 74.9167 352.031 75.5C352.724 76.0833 353.07 76.9323 353.07 78.0469C353.07 78.7552 352.878 79.3724 352.492 79.8984C352.112 80.4245 351.581 80.8177 350.898 81.0781L353.57 85.9062V86H351.961L349.492 81.3984ZM346.82 80.1719H349.125C349.87 80.1719 350.461 79.9792 350.898 79.5938C351.341 79.2083 351.562 78.6927 351.562 78.0469C351.562 77.3438 351.352 76.8047 350.93 76.4297C350.513 76.0547 349.909 75.8646 349.117 75.8594H346.82V80.1719ZM358.461 86.1562C357.315 86.1562 356.383 85.7812 355.664 85.0312C354.945 84.276 354.586 83.2682 354.586 82.0078V81.7422C354.586 80.9036 354.745 80.1562 355.062 79.5C355.385 78.8385 355.833 78.3229 356.406 77.9531C356.984 77.5781 357.609 77.3906 358.281 77.3906C359.38 77.3906 360.234 77.7526 360.844 78.4766C361.453 79.2005 361.758 80.237 361.758 81.5859V82.1875H356.031C356.052 83.0208 356.294 83.6953 356.758 84.2109C357.227 84.7214 357.82 84.9766 358.539 84.9766C359.049 84.9766 359.482 84.8724 359.836 84.6641C360.19 84.4557 360.5 84.1797 360.766 83.8359L361.648 84.5234C360.94 85.612 359.878 86.1562 358.461 86.1562ZM358.281 78.5781C357.698 78.5781 357.208 78.7917 356.812 79.2188C356.417 79.6406 356.172 80.2344 356.078 81H360.312V80.8906C360.271 80.1562 360.073 79.5885 359.719 79.1875C359.365 78.7812 358.885 78.5781 358.281 78.5781ZM368.359 83.7578C368.359 83.3672 368.211 83.0651 367.914 82.8516C367.622 82.6328 367.109 82.4453 366.375 82.2891C365.646 82.1328 365.065 81.9453 364.633 81.7266C364.206 81.5078 363.888 81.2474 363.68 80.9453C363.477 80.6432 363.375 80.2839 363.375 79.8672C363.375 79.1745 363.667 78.5885 364.25 78.1094C364.839 77.6302 365.589 77.3906 366.5 77.3906C367.458 77.3906 368.234 77.638 368.828 78.1328C369.427 78.6276 369.727 79.2604 369.727 80.0312H368.273C368.273 79.6354 368.104 79.2943 367.766 79.0078C367.432 78.7214 367.01 78.5781 366.5 78.5781C365.974 78.5781 365.562 78.6927 365.266 78.9219C364.969 79.151 364.82 79.4505 364.82 79.8203C364.82 80.1693 364.958 80.4323 365.234 80.6094C365.51 80.7865 366.008 80.9557 366.727 81.1172C367.451 81.2786 368.036 81.4714 368.484 81.6953C368.932 81.9193 369.263 82.1901 369.477 82.5078C369.695 82.8203 369.805 83.2031 369.805 83.6562C369.805 84.4115 369.503 85.0182 368.898 85.4766C368.294 85.9297 367.51 86.1562 366.547 86.1562C365.87 86.1562 365.271 86.0365 364.75 85.7969C364.229 85.5573 363.82 85.224 363.523 84.7969C363.232 84.3646 363.086 83.8984 363.086 83.3984H364.531C364.557 83.8828 364.75 84.2682 365.109 84.5547C365.474 84.8359 365.953 84.9766 366.547 84.9766C367.094 84.9766 367.531 84.8672 367.859 84.6484C368.193 84.4245 368.359 84.1276 368.359 83.7578ZM375.195 86.1562C374.049 86.1562 373.117 85.7812 372.398 85.0312C371.68 84.276 371.32 83.2682 371.32 82.0078V81.7422C371.32 80.9036 371.479 80.1562 371.797 79.5C372.12 78.8385 372.568 78.3229 373.141 77.9531C373.719 77.5781 374.344 77.3906 375.016 77.3906C376.115 77.3906 376.969 77.7526 377.578 78.4766C378.188 79.2005 378.492 80.237 378.492 81.5859V82.1875H372.766C372.786 83.0208 373.029 83.6953 373.492 84.2109C373.961 84.7214 374.555 84.9766 375.273 84.9766C375.784 84.9766 376.216 84.8724 376.57 84.6641C376.924 84.4557 377.234 84.1797 377.5 83.8359L378.383 84.5234C377.674 85.612 376.612 86.1562 375.195 86.1562ZM375.016 78.5781C374.432 78.5781 373.943 78.7917 373.547 79.2188C373.151 79.6406 372.906 80.2344 372.812 81H377.047V80.8906C377.005 80.1562 376.807 79.5885 376.453 79.1875C376.099 78.7812 375.62 78.5781 375.016 78.5781ZM385.391 86C385.307 85.8333 385.24 85.5365 385.188 85.1094C384.516 85.8073 383.714 86.1562 382.781 86.1562C381.948 86.1562 381.263 85.9219 380.727 85.4531C380.195 84.9792 379.93 84.3802 379.93 83.6562C379.93 82.776 380.263 82.0938 380.93 81.6094C381.602 81.1198 382.544 80.875 383.758 80.875H385.164V80.2109C385.164 79.7057 385.013 79.3047 384.711 79.0078C384.409 78.7057 383.964 78.5547 383.375 78.5547C382.859 78.5547 382.427 78.6849 382.078 78.9453C381.729 79.2057 381.555 79.5208 381.555 79.8906H380.102C380.102 79.4688 380.25 79.0625 380.547 78.6719C380.849 78.276 381.255 77.9635 381.766 77.7344C382.281 77.5052 382.846 77.3906 383.461 77.3906C384.435 77.3906 385.198 77.6354 385.75 78.125C386.302 78.6094 386.589 79.2786 386.609 80.1328V84.0234C386.609 84.7995 386.708 85.4167 386.906 85.875V86H385.391ZM382.992 84.8984C383.445 84.8984 383.875 84.7812 384.281 84.5469C384.688 84.3125 384.982 84.0078 385.164 83.6328V81.8984H384.031C382.26 81.8984 381.375 82.4167 381.375 83.4531C381.375 83.9062 381.526 84.2604 381.828 84.5156C382.13 84.7708 382.518 84.8984 382.992 84.8984ZM392.961 78.8438C392.742 78.8073 392.505 78.7891 392.25 78.7891C391.302 78.7891 390.659 79.1927 390.32 80V86H388.875V77.5469H390.281L390.305 78.5234C390.779 77.7682 391.451 77.3906 392.32 77.3906C392.602 77.3906 392.815 77.4271 392.961 77.5V78.8438ZM397.531 84.9766C398.047 84.9766 398.497 84.8203 398.883 84.5078C399.268 84.1953 399.482 83.8047 399.523 83.3359H400.891C400.865 83.8203 400.698 84.2812 400.391 84.7188C400.083 85.1562 399.672 85.5052 399.156 85.7656C398.646 86.026 398.104 86.1562 397.531 86.1562C396.38 86.1562 395.464 85.7734 394.781 85.0078C394.104 84.237 393.766 83.1849 393.766 81.8516V81.6094C393.766 80.7865 393.917 80.0547 394.219 79.4141C394.521 78.7734 394.953 78.276 395.516 77.9219C396.083 77.5677 396.753 77.3906 397.523 77.3906C398.471 77.3906 399.258 77.6745 399.883 78.2422C400.513 78.8099 400.849 79.5469 400.891 80.4531H399.523C399.482 79.9062 399.273 79.4583 398.898 79.1094C398.529 78.7552 398.07 78.5781 397.523 78.5781C396.789 78.5781 396.219 78.8438 395.812 79.375C395.411 79.901 395.211 80.6641 395.211 81.6641V81.9375C395.211 82.9115 395.411 83.6615 395.812 84.1875C396.214 84.7135 396.786 84.9766 397.531 84.9766ZM403.961 78.5703C404.602 77.7839 405.435 77.3906 406.461 77.3906C408.247 77.3906 409.148 78.3984 409.164 80.4141V86H407.719V80.4062C407.714 79.7969 407.573 79.3464 407.297 79.0547C407.026 78.763 406.602 78.6172 406.023 78.6172C405.555 78.6172 405.143 78.7422 404.789 78.9922C404.435 79.2422 404.159 79.5703 403.961 79.9766V86H402.516V74H403.961V78.5703Z" fill="#4C4D5F"/>
<path d="M208.18 75.8594H204.523V86H203.031V75.8594H199.383V74.625H208.18V75.8594ZM212.367 86.1562C211.221 86.1562 210.289 85.7812 209.57 85.0312C208.852 84.276 208.492 83.2682 208.492 82.0078V81.7422C208.492 80.9036 208.651 80.1562 208.969 79.5C209.292 78.8385 209.74 78.3229 210.312 77.9531C210.891 77.5781 211.516 77.3906 212.188 77.3906C213.286 77.3906 214.141 77.7526 214.75 78.4766C215.359 79.2005 215.664 80.237 215.664 81.5859V82.1875H209.938C209.958 83.0208 210.201 83.6953 210.664 84.2109C211.133 84.7214 211.727 84.9766 212.445 84.9766C212.956 84.9766 213.388 84.8724 213.742 84.6641C214.096 84.4557 214.406 84.1797 214.672 83.8359L215.555 84.5234C214.846 85.612 213.784 86.1562 212.367 86.1562ZM212.188 78.5781C211.604 78.5781 211.115 78.7917 210.719 79.2188C210.323 79.6406 210.078 80.2344 209.984 81H214.219V80.8906C214.177 80.1562 213.979 79.5885 213.625 79.1875C213.271 78.7812 212.792 78.5781 212.188 78.5781ZM218.703 77.5469L218.742 78.4844C219.362 77.7552 220.198 77.3906 221.25 77.3906C222.432 77.3906 223.237 77.8438 223.664 78.75C223.945 78.3438 224.31 78.0156 224.758 77.7656C225.211 77.5156 225.745 77.3906 226.359 77.3906C228.214 77.3906 229.156 78.3724 229.188 80.3359V86H227.742V80.4219C227.742 79.8177 227.604 79.3672 227.328 79.0703C227.052 78.7682 226.589 78.6172 225.938 78.6172C225.401 78.6172 224.956 78.7786 224.602 79.1016C224.247 79.4193 224.042 79.849 223.984 80.3906V86H222.531V80.4609C222.531 79.2318 221.93 78.6172 220.727 78.6172C219.779 78.6172 219.13 79.0208 218.781 79.8281V86H217.336V77.5469H218.703ZM238.516 81.8672C238.516 83.1536 238.221 84.1901 237.633 84.9766C237.044 85.763 236.247 86.1562 235.242 86.1562C234.216 86.1562 233.409 85.8307 232.82 85.1797V89.25H231.375V77.5469H232.695L232.766 78.4844C233.354 77.7552 234.172 77.3906 235.219 77.3906C236.234 77.3906 237.036 77.7734 237.625 78.5391C238.219 79.3047 238.516 80.3698 238.516 81.7344V81.8672ZM237.07 81.7031C237.07 80.75 236.867 79.9974 236.461 79.4453C236.055 78.8932 235.497 78.6172 234.789 78.6172C233.914 78.6172 233.258 79.0052 232.82 79.7812V83.8203C233.253 84.5911 233.914 84.9766 234.805 84.9766C235.497 84.9766 236.047 84.7031 236.453 84.1562C236.865 83.6042 237.07 82.7865 237.07 81.7031ZM241.93 86H240.484V74H241.93V86ZM249.469 86C249.385 85.8333 249.318 85.5365 249.266 85.1094C248.594 85.8073 247.792 86.1562 246.859 86.1562C246.026 86.1562 245.341 85.9219 244.805 85.4531C244.273 84.9792 244.008 84.3802 244.008 83.6562C244.008 82.776 244.341 82.0938 245.008 81.6094C245.68 81.1198 246.622 80.875 247.836 80.875H249.242V80.2109C249.242 79.7057 249.091 79.3047 248.789 79.0078C248.487 78.7057 248.042 78.5547 247.453 78.5547C246.938 78.5547 246.505 78.6849 246.156 78.9453C245.807 79.2057 245.633 79.5208 245.633 79.8906H244.18C244.18 79.4688 244.328 79.0625 244.625 78.6719C244.927 78.276 245.333 77.9635 245.844 77.7344C246.359 77.5052 246.924 77.3906 247.539 77.3906C248.513 77.3906 249.276 77.6354 249.828 78.125C250.38 78.6094 250.667 79.2786 250.688 80.1328V84.0234C250.688 84.7995 250.786 85.4167 250.984 85.875V86H249.469ZM247.07 84.8984C247.523 84.8984 247.953 84.7812 248.359 84.5469C248.766 84.3125 249.06 84.0078 249.242 83.6328V81.8984H248.109C246.339 81.8984 245.453 82.4167 245.453 83.4531C245.453 83.9062 245.604 84.2604 245.906 84.5156C246.208 84.7708 246.596 84.8984 247.07 84.8984ZM254.914 75.5V77.5469H256.492V78.6641H254.914V83.9062C254.914 84.2448 254.984 84.5 255.125 84.6719C255.266 84.8385 255.505 84.9219 255.844 84.9219C256.01 84.9219 256.24 84.8906 256.531 84.8281V86C256.151 86.1042 255.781 86.1562 255.422 86.1562C254.776 86.1562 254.289 85.9609 253.961 85.5703C253.633 85.1797 253.469 84.625 253.469 83.9062V78.6641H251.93V77.5469H253.469V75.5H254.914ZM261.695 86.1562C260.549 86.1562 259.617 85.7812 258.898 85.0312C258.18 84.276 257.82 83.2682 257.82 82.0078V81.7422C257.82 80.9036 257.979 80.1562 258.297 79.5C258.62 78.8385 259.068 78.3229 259.641 77.9531C260.219 77.5781 260.844 77.3906 261.516 77.3906C262.615 77.3906 263.469 77.7526 264.078 78.4766C264.688 79.2005 264.992 80.237 264.992 81.5859V82.1875H259.266C259.286 83.0208 259.529 83.6953 259.992 84.2109C260.461 84.7214 261.055 84.9766 261.773 84.9766C262.284 84.9766 262.716 84.8724 263.07 84.6641C263.424 84.4557 263.734 84.1797 264 83.8359L264.883 84.5234C264.174 85.612 263.112 86.1562 261.695 86.1562ZM261.516 78.5781C260.932 78.5781 260.443 78.7917 260.047 79.2188C259.651 79.6406 259.406 80.2344 259.312 81H263.547V80.8906C263.505 80.1562 263.307 79.5885 262.953 79.1875C262.599 78.7812 262.12 78.5781 261.516 78.5781Z" fill="#4C4D5F"/>
<path fill-rule="evenodd" clip-rule="evenodd" d="M218.275 9.07617H243.034C243.247 9.07617 243.416 9.24573 243.416 9.4605V45.2939C243.416 50.6972 239.067 55.0718 233.694 55.0718H205.148C204.934 55.0718 204.766 54.9022 204.766 54.6874V9.4605" fill="#A4D0B4"/>
<path fill-rule="evenodd" clip-rule="evenodd" d="M217.095 19.9052L221.86 16.6609L226.76 19.9052V9.09863H217.095V19.9052Z" fill="#9DC8AD"/>
<path fill-rule="evenodd" clip-rule="evenodd" d="M234.144 41.3154H212.509C212.183 41.3154 211.914 41.0441 211.914 40.7163C211.914 40.3885 212.183 40.1172 212.509 40.1172H234.144C234.47 40.1172 234.74 40.3885 234.74 40.7163C234.74 41.0554 234.47 41.3154 234.144 41.3154Z" fill="#9DC8AD"/>
<path fill-rule="evenodd" clip-rule="evenodd" d="M229.952 46.0625H212.498C212.172 46.0625 211.902 45.7912 211.902 45.4634C211.902 45.1356 212.172 44.8643 212.498 44.8643H229.952C230.278 44.8643 230.548 45.1356 230.548 45.4634C230.548 45.7912 230.289 46.0625 229.952 46.0625Z" fill="#9DC8AD"/>
<path fill-rule="evenodd" clip-rule="evenodd" d="M225.816 1.64941H250.575C250.789 1.64941 250.957 1.81897 250.957 2.03375V37.8671C250.957 43.2704 246.608 47.645 241.236 47.645H212.689C212.475 47.645 212.307 47.4755 212.307 47.2607V2.03375" fill="#FAF9F8"/>
<path fill-rule="evenodd" clip-rule="evenodd" d="M241.225 48.244H212.678C212.139 48.244 211.7 47.8032 211.7 47.2606V2.03366C211.7 1.70585 211.97 1.43455 212.296 1.43455C212.622 1.43455 212.892 1.70585 212.892 2.03366V47.0458H241.225C246.26 47.0458 250.351 42.9312 250.351 37.867V2.25974H225.805C225.479 2.25974 225.209 1.98844 225.209 1.66063C225.209 1.33282 225.479 1.06152 225.805 1.06152H250.564C251.104 1.06152 251.542 1.50238 251.542 2.04496V37.8783C251.553 43.5868 246.923 48.244 241.225 48.244Z" fill="#9DC8AD"/>
<path fill-rule="evenodd" clip-rule="evenodd" d="M241.685 33.8994H220.051C219.725 33.8994 219.455 33.6281 219.455 33.3003C219.455 32.9725 219.725 32.7012 220.051 32.7012H241.685C242.011 32.7012 242.281 32.9725 242.281 33.3003C242.281 33.6281 242.022 33.8994 241.685 33.8994Z" fill="#9DC8AD"/>
<path fill-rule="evenodd" clip-rule="evenodd" d="M237.493 38.6474H220.039C219.713 38.6474 219.444 38.3761 219.444 38.0483C219.444 37.7205 219.713 37.4492 220.039 37.4492H237.493C237.819 37.4492 238.089 37.7205 238.089 38.0483C238.1 38.3761 237.83 38.6474 237.493 38.6474Z" fill="#9DC8AD"/>
<path fill-rule="evenodd" clip-rule="evenodd" d="M57.2926 28.3659C55.1896 29.4747 55.2723 31.1082 57.4816 32.0024L64.015 34.6135C66.2243 35.4958 69.5677 35.0189 71.4462 33.5404L99.8493 10.9346C101.715 9.44421 101.917 9.67075 100.297 11.4234L77.8378 35.6746C76.2074 37.4273 76.6918 39.5615 78.9011 40.4319L79.6691 40.73C81.8902 41.5884 85.5054 43.043 87.7029 43.9492L94.9569 46.9299C97.1544 47.836 98.9632 48.5872 98.9632 48.5991C98.9632 48.611 98.9738 48.6587 98.9856 48.6587C98.9974 48.6587 99.5173 46.7749 100.145 44.4618L111.202 3.44698C111.828 1.13393 110.611 0.144332 108.508 1.26509L57.2926 28.3659Z" fill="#FAF9F8"/>
<path fill-rule="evenodd" clip-rule="evenodd" d="M101.372 9.30089C101.549 9.30089 101.715 9.37243 101.857 9.52743C102.353 10.0759 101.797 10.7316 100.77 11.8524L78.3104 36.1036C77.6724 36.7952 77.4019 37.5582 77.5543 38.2378C77.7079 38.9294 78.275 39.4897 79.1374 39.8355L79.9053 40.1336C82.1028 40.992 85.718 42.4466 87.9392 43.3528L95.1932 46.3335C96.9417 47.0489 97.9696 47.4781 98.5958 47.7404C98.7966 47.0369 99.1274 45.8208 99.5409 44.2708L110.599 3.25597C110.824 2.43329 110.776 1.77753 110.493 1.53907C110.198 1.30061 109.56 1.40792 108.815 1.80138L57.5997 28.9022C56.8318 29.3076 56.3947 29.7964 56.4062 30.2018C56.4301 30.6191 56.9145 31.0602 57.7297 31.3821L64.2631 33.9933C66.2597 34.7921 69.3775 34.339 71.0682 33.0037L99.47 10.3978C100.321 9.75397 100.911 9.30089 101.372 9.30089ZM98.9974 49.2904C98.9266 49.2904 98.8557 49.2785 98.7966 49.2546C98.7139 49.2308 98.643 49.1711 98.5721 49.1115C98.135 48.9208 96.6464 48.3008 94.7324 47.5258L87.4784 44.5451C85.2573 43.6389 81.6421 42.1843 79.4564 41.3259L78.6885 41.0278C77.4243 40.527 76.5855 39.6447 76.3256 38.5359C76.0775 37.4271 76.4555 36.2586 77.3889 35.2452L97.1544 13.8912L71.8479 34.029C69.8158 35.6386 66.2006 36.1632 63.8023 35.1975L57.2571 32.5864C55.485 31.871 55.1778 30.8456 55.1423 30.2972C55.1187 29.7487 55.3196 28.6876 56.9972 27.8053L108.213 0.704469C109.902 -0.18975 110.847 0.239475 111.273 0.573317C111.686 0.907158 112.312 1.75369 111.804 3.61366L100.746 44.6285C99.5539 49.0758 99.5539 49.0758 99.281 49.2188C99.2101 49.2665 99.1038 49.2904 98.9974 49.2904Z" fill="#9DC8AD"/>
<path fill-rule="evenodd" clip-rule="evenodd" d="M75.2507 55.2156C75.1208 55.6091 79.7284 48.4911 79.7284 48.4911C81.028 46.4881 80.2955 44.0916 78.085 43.1854L73.0639 41.1108C70.8676 40.2047 69.8149 41.2658 70.7258 43.4835C70.7258 43.4835 75.3795 54.8103 75.2507 55.2156Z" fill="#A4D0B4"/>
<path d="M64.3984 86.3311H62.8984V74.9561H64.3984V86.3311ZM66.5703 82.0342C66.5703 80.7373 66.8776 79.6956 67.4922 78.9092C68.1068 78.1175 68.9115 77.7217 69.9062 77.7217C70.8958 77.7217 71.6797 78.0602 72.2578 78.7373V74.3311H73.7031V86.3311H72.375L72.3047 85.4248C71.7266 86.1331 70.9219 86.4873 69.8906 86.4873C68.9115 86.4873 68.112 86.0863 67.4922 85.2842C66.8776 84.4821 66.5703 83.4352 66.5703 82.1436V82.0342ZM68.0156 82.1982C68.0156 83.1566 68.2135 83.9066 68.6094 84.4482C69.0052 84.9899 69.5521 85.2607 70.25 85.2607C71.1667 85.2607 71.8359 84.8493 72.2578 84.0264V80.1436C71.8255 79.3467 71.1615 78.9482 70.2656 78.9482C69.5573 78.9482 69.0052 79.2217 68.6094 79.7686C68.2135 80.3154 68.0156 81.1253 68.0156 82.1982ZM79.4609 86.4873C78.3151 86.4873 77.3828 86.1123 76.6641 85.3623C75.9453 84.6071 75.5859 83.5993 75.5859 82.3389V82.0732C75.5859 81.2347 75.7448 80.4873 76.0625 79.8311C76.3854 79.1696 76.8333 78.654 77.4062 78.2842C77.9844 77.9092 78.6094 77.7217 79.2812 77.7217C80.3802 77.7217 81.2344 78.0837 81.8438 78.8076C82.4531 79.5316 82.7578 80.568 82.7578 81.917V82.5186H77.0312C77.0521 83.3519 77.2943 84.0264 77.7578 84.542C78.2266 85.0524 78.8203 85.3076 79.5391 85.3076C80.0495 85.3076 80.4818 85.2035 80.8359 84.9951C81.1901 84.7868 81.5 84.5107 81.7656 84.167L82.6484 84.8545C81.9401 85.943 80.8776 86.4873 79.4609 86.4873ZM79.2812 78.9092C78.6979 78.9092 78.2083 79.1227 77.8125 79.5498C77.4167 79.9717 77.1719 80.5654 77.0781 81.3311H81.3125V81.2217C81.2708 80.4873 81.0729 79.9196 80.7188 79.5186C80.3646 79.1123 79.8854 78.9092 79.2812 78.9092ZM89.6562 86.3311C89.5729 86.1644 89.5052 85.8675 89.4531 85.4404C88.7812 86.1383 87.9792 86.4873 87.0469 86.4873C86.2135 86.4873 85.5286 86.2529 84.9922 85.7842C84.4609 85.3102 84.1953 84.7113 84.1953 83.9873C84.1953 83.1071 84.5286 82.4248 85.1953 81.9404C85.8672 81.4508 86.8099 81.2061 88.0234 81.2061H89.4297V80.542C89.4297 80.0368 89.2786 79.6357 88.9766 79.3389C88.6745 79.0368 88.2292 78.8857 87.6406 78.8857C87.125 78.8857 86.6927 79.016 86.3438 79.2764C85.9948 79.5368 85.8203 79.8519 85.8203 80.2217H84.3672C84.3672 79.7998 84.5156 79.3936 84.8125 79.0029C85.1146 78.6071 85.5208 78.2946 86.0312 78.0654C86.5469 77.8363 87.112 77.7217 87.7266 77.7217C88.7005 77.7217 89.4635 77.9665 90.0156 78.4561C90.5677 78.9404 90.8542 79.6097 90.875 80.4639V84.3545C90.875 85.1305 90.974 85.7477 91.1719 86.2061V86.3311H89.6562ZM87.2578 85.2295C87.7109 85.2295 88.1406 85.1123 88.5469 84.8779C88.9531 84.6436 89.2474 84.3389 89.4297 83.9639V82.2295H88.2969C86.526 82.2295 85.6406 82.7477 85.6406 83.7842C85.6406 84.2373 85.7917 84.5915 86.0938 84.8467C86.3958 85.1019 86.7839 85.2295 87.2578 85.2295Z" fill="#4C4D5F"/>
</g>
<defs>
<clipPath id="clip0">
<rect width="456" height="330" fill="white" transform="translate(0.8125 0.171875)"/>
</clipPath>
<clipPath id="clip1">
<rect width="50" height="50" fill="white" transform="translate(347 248)"/>
</clipPath>
</defs>
</svg>
