<svg width="559" height="481" viewBox="0 0 559 481" fill="none" xmlns="http://www.w3.org/2000/svg">
<g clip-path="url(#clip0)">
<path fill-rule="evenodd" clip-rule="evenodd" d="M523.802 203.5H545.163C545.508 203.5 545.785 203.78 545.785 204.126V262.804C545.785 271.651 538.642 278.821 529.829 278.821H482.974C482.631 278.821 482.352 278.542 482.352 278.198V225.447" fill="#A4D0B4"/>
<path fill-rule="evenodd" clip-rule="evenodd" d="M502.175 222L509.996 216.847L518.033 222V204.821H502.175V222Z" fill="#9DC8AD"/>
<path fill-rule="evenodd" clip-rule="evenodd" d="M531.566 256.357H495.251C494.697 256.357 494.246 255.766 494.246 255.035C494.246 254.305 494.697 253.714 495.251 253.714H531.566C532.121 253.714 532.57 254.305 532.57 255.035C532.57 255.766 532.121 256.357 531.566 256.357Z" fill="#9DC8AD"/>
<path fill-rule="evenodd" clip-rule="evenodd" d="M523.624 264.285H493.941C493.379 264.285 492.924 263.694 492.924 262.964C492.924 262.234 493.379 261.643 493.941 261.643H523.624C524.186 261.643 524.641 262.234 524.641 262.964C524.641 263.694 524.186 264.285 523.624 264.285Z" fill="#9DC8AD"/>
<path fill-rule="evenodd" clip-rule="evenodd" d="M427.955 386.687C427.73 383.012 425.372 382.11 422.707 384.672L414.844 392.265C412.189 394.83 410.73 399.848 411.617 403.424L425.342 457.721C426.242 461.291 425.803 461.436 424.369 458.042L404.513 411.107C403.086 407.712 399.756 407.043 397.119 409.628L396.203 410.518C393.568 413.103 389.204 417.294 386.523 419.833L377.676 428.198C374.995 430.741 372.787 432.812 372.764 432.81C372.744 432.805 372.68 432.792 372.667 432.807C372.654 432.82 374.988 434.741 377.853 437.076L428.639 478.448C431.504 480.784 433.665 479.693 433.44 476.02L427.955 386.687Z" fill="#FAF9F8"/>
<mask id="mask0" mask-type="alpha" maskUnits="userSpaceOnUse" x="371" y="382" width="64" height="99">
<path d="M371.745 382.214H434.549V480.999H371.745V382.214Z" fill="white"/>
</mask>
<g mask="url(#mask0)">
<path fill-rule="evenodd" clip-rule="evenodd" d="M426.773 461.153C426.657 461.41 426.456 461.586 426.146 461.691C425.05 462.052 424.48 460.847 423.566 458.681L403.694 411.567C403.131 410.223 402.231 409.366 401.155 409.151C400.085 408.938 398.926 409.381 397.891 410.397L396.972 411.295C394.362 413.864 389.991 418.071 387.274 420.653L378.419 429.053C376.289 431.078 375.031 432.274 374.252 432.977C375.125 433.702 376.623 434.934 378.542 436.501L429.37 478.034C430.39 478.868 431.346 479.225 431.863 478.963C432.379 478.701 432.651 477.722 432.571 476.412L427.081 386.735V386.733C427 385.395 426.594 384.457 425.998 384.228C425.4 383.996 424.465 384.418 423.494 385.353L415.624 392.973C413.218 395.304 411.863 400.008 412.664 403.243L426.399 457.745C426.808 459.375 427.065 460.507 426.773 461.153ZM371.831 432.572C371.875 432.473 371.934 432.383 372.01 432.304C372.102 432.206 372.224 432.131 372.361 432.078C372.909 431.573 374.732 429.855 377.062 427.64L385.918 419.242C388.627 416.667 392.988 412.469 395.593 409.904L396.512 409.006C398.025 407.52 399.811 406.892 401.542 407.235C403.277 407.582 404.685 408.852 405.506 410.812L422.998 452.285L410.758 403.715C409.795 399.82 411.363 394.375 414.255 391.573L422.125 383.954C424.26 381.893 425.913 382.1 426.709 382.407C427.502 382.713 428.862 383.666 429.041 386.615L434.531 476.293C434.714 479.251 433.498 480.325 432.756 480.701C432.014 481.079 430.427 481.428 428.122 479.545L377.295 438.012C371.783 433.508 371.783 433.508 371.748 433.047C371.735 432.884 371.765 432.719 371.831 432.572Z" fill="#9DC8AD"/>
</g>
<path fill-rule="evenodd" clip-rule="evenodd" d="M377.974 395.12C377.517 394.692 384.479 405.664 384.479 405.664C386.439 408.758 390.212 409.221 392.846 406.682L398.87 400.902C401.508 398.366 400.694 396.209 397.048 396.1C397.046 396.098 378.445 395.559 377.974 395.12Z" fill="#A4D0B4"/>
<path fill-rule="evenodd" clip-rule="evenodd" d="M430.039 137.054C428.128 137.303 426.181 137.428 424.205 137.428C399.391 137.428 379.274 117.314 379.274 92.4999C379.274 67.6872 399.391 47.5713 424.205 47.5713C449.02 47.5713 469.137 67.6872 469.137 92.4999C469.137 97.6765 468.26 102.648 466.649 107.277" fill="#FAF9F8"/>
<path fill-rule="evenodd" clip-rule="evenodd" d="M423.902 138.75C423.352 138.75 422.884 138.254 422.884 137.641C422.884 137.029 423.305 136.533 423.856 136.533C425.839 136.533 427.786 136.393 429.689 136.118C430.238 136.034 430.736 136.466 430.805 137.074C430.876 137.683 430.492 138.24 429.946 138.319C427.958 138.606 425.924 138.75 423.902 138.75Z" fill="#9DC8AD"/>
<path fill-rule="evenodd" clip-rule="evenodd" d="M405.298 53.3393C404.933 53.3393 404.586 53.1375 404.416 52.7907C404.179 52.3063 404.381 51.721 404.869 51.4843C408.691 49.6293 412.752 48.3174 416.938 47.5872C417.481 47.4899 417.979 47.8496 418.071 48.3798C418.165 48.9101 417.81 49.4165 417.276 49.5101C413.271 50.2091 409.383 51.466 405.725 53.2403C405.587 53.3081 405.441 53.3393 405.298 53.3393ZM448.945 55.8384C448.765 55.8384 448.581 55.7888 448.419 55.6861C444.983 53.499 441.267 51.8073 437.373 50.655C436.852 50.5009 436.558 49.9578 436.711 49.4403C436.865 48.9229 437.41 48.6275 437.929 48.7835C441.999 49.9871 445.883 51.7559 449.471 54.0402C449.928 54.3301 450.062 54.9338 449.769 55.3888C449.583 55.6806 449.267 55.8384 448.945 55.8384ZM383.219 77.0801C383.1 77.0801 382.978 77.0581 382.86 77.0104C382.356 76.8122 382.111 76.2452 382.31 75.7425C383.872 71.8087 385.981 68.1078 388.579 64.7409C388.909 64.3134 389.523 64.2327 389.952 64.5629C390.382 64.8914 390.462 65.506 390.132 65.9317C387.644 69.1555 385.626 72.6985 384.132 76.4636C383.979 76.8471 383.609 77.0801 383.219 77.0801ZM468.157 81.9369C467.724 81.9369 467.329 81.6506 467.213 81.2139C466.162 77.3003 464.563 73.5517 462.464 70.0674C462.186 69.6069 462.337 69.0069 462.799 68.728C463.264 68.4491 463.864 68.5995 464.144 69.0619C466.337 72.7004 468.006 76.6196 469.104 80.7094C469.242 81.2286 468.933 81.7644 468.412 81.9038C468.326 81.9277 468.241 81.9369 468.157 81.9369ZM383.022 109.457C382.629 109.457 382.257 109.219 382.108 108.828C380.593 104.874 379.642 100.725 379.278 96.4925C379.232 95.9549 379.631 95.4833 380.17 95.4375C380.698 95.3861 381.184 95.7898 381.23 96.3274C381.576 100.377 382.489 104.347 383.939 108.131C384.13 108.635 383.878 109.2 383.372 109.391C383.256 109.435 383.14 109.457 383.022 109.457ZM404.806 133.464C404.659 133.464 404.51 133.433 404.368 133.361C400.574 131.462 397.062 129.042 393.926 126.171C393.529 125.806 393.501 125.189 393.867 124.791C394.235 124.395 394.854 124.369 395.251 124.732C398.252 127.483 401.616 129.798 405.248 131.618C405.73 131.857 405.925 132.446 405.682 132.927C405.511 133.27 405.165 133.464 404.806 133.464Z" fill="#9DC8AD"/>
<path fill-rule="evenodd" clip-rule="evenodd" d="M466.276 107.036C466.155 107.036 466.033 107.019 465.913 106.979C465.336 106.795 465.034 106.213 465.235 105.682C465.938 103.811 466.518 101.873 466.954 99.9218C467.076 99.3703 467.65 99.0141 468.256 99.129C468.853 99.242 469.237 99.782 469.114 100.334C468.658 102.371 468.055 104.397 467.317 106.352C467.159 106.772 466.732 107.036 466.276 107.036Z" fill="#9DC8AD"/>
<path fill-rule="evenodd" clip-rule="evenodd" d="M469.137 128.178C469.137 136.936 462.037 144.036 453.279 144.036C444.521 144.036 437.421 136.936 437.421 128.178C437.421 119.421 444.521 112.321 453.279 112.321C462.037 112.321 469.137 119.421 469.137 128.178Z" fill="#A4D0B4"/>
<path fill-rule="evenodd" clip-rule="evenodd" d="M424.206 66.0713V92.6634L434.778 104.393" fill="#FAF9F8"/>
<path fill-rule="evenodd" clip-rule="evenodd" d="M435.149 105.714C434.906 105.714 434.663 105.616 434.477 105.42L423.161 93.4938C422.984 93.3073 422.884 93.0511 422.884 92.7854V65.7522C422.884 65.1984 423.309 64.75 423.835 64.75C424.36 64.75 424.786 65.1984 424.786 65.7522V92.371L435.82 104.004C436.192 104.394 436.192 105.029 435.82 105.42C435.635 105.616 435.392 105.714 435.149 105.714Z" fill="#9DC8AD"/>
<path fill-rule="evenodd" clip-rule="evenodd" d="M429.492 91.1792C429.492 94.0987 427.124 96.464 424.207 96.464C421.285 96.464 418.92 94.0987 418.92 91.1792C418.92 88.2597 421.285 85.8926 424.207 85.8926C427.124 85.8926 429.492 88.2597 429.492 91.1792Z" fill="#9DC8AD"/>
<path fill-rule="evenodd" clip-rule="evenodd" d="M453.081 133.464C452.832 133.464 452.594 133.363 452.418 133.183L448.268 128.947C447.901 128.573 447.901 127.967 448.268 127.593C448.635 127.22 449.227 127.219 449.594 127.593L453.081 131.153L459.607 124.494C459.974 124.12 460.568 124.12 460.933 124.494C461.3 124.868 461.3 125.474 460.933 125.848L453.744 133.183C453.569 133.363 453.331 133.464 453.081 133.464Z" fill="#9DC8AD"/>
<path fill-rule="evenodd" clip-rule="evenodd" d="M382.352 230.025L354.338 200.361C354.099 200.109 354.11 199.712 354.36 199.475L396.874 159.012C403.284 152.911 413.405 153.182 419.48 159.617L451.786 193.823C452.023 194.075 452.013 194.47 451.764 194.71L398.097 245.786" fill="#FAF9F8"/>
<path fill-rule="evenodd" clip-rule="evenodd" d="M419.423 159.879L451.52 193.849C452.126 194.491 452.099 195.506 451.458 196.114L398.14 246.837C397.748 247.211 397.13 247.195 396.759 246.801C396.388 246.408 396.404 245.787 396.795 245.415L449.855 194.937L418.005 161.228C412.347 155.241 402.892 154.989 396.926 160.666L354.945 200.601L382.532 229.799C382.903 230.191 382.889 230.812 382.496 231.184C382.105 231.557 381.486 231.542 381.115 231.148L353.281 201.688C352.675 201.048 352.703 200.033 353.342 199.425L395.58 159.241C402.328 152.822 413.025 153.107 419.423 159.879Z" fill="#9DC8AD"/>
<path fill-rule="evenodd" clip-rule="evenodd" d="M375.31 175.813L407.311 145.357L455.922 196.828L423.921 227.286L424.487 183.72C424.539 179.767 421.394 176.519 417.457 176.46L375.31 175.813Z" fill="#A4D0B4"/>
<path fill-rule="evenodd" clip-rule="evenodd" d="M423.345 178.976C424.743 180.481 425.582 182.532 425.524 184.762L424.507 223.669C424.493 224.22 424.041 224.658 423.5 224.643C422.96 224.628 422.532 224.167 422.547 223.617L423.564 184.71C423.653 181.346 421.04 178.538 417.742 178.448L392.123 177.75C391.581 177.735 391.153 177.277 391.168 176.724C391.183 176.172 391.634 175.736 392.176 175.75L417.796 176.446C419.984 176.508 421.947 177.468 423.345 178.976Z" fill="#9DC8AD"/>
<path fill-rule="evenodd" clip-rule="evenodd" d="M393.514 210.553C392.639 211.367 391.36 211.374 390.014 210.232L393.558 206.939C394.508 208.92 394.363 209.767 393.514 210.553ZM394.841 202.804C393.861 200.849 393.983 199.922 394.871 199.094C395.833 198.203 397.137 198.305 398.483 199.418L394.841 202.804ZM404.353 204.684C404.063 202.693 403.287 200.838 402.024 199.226L403.267 198.072C403.747 197.627 403.752 196.885 403.298 196.414C402.843 195.944 402.101 195.925 401.621 196.37L400.421 197.486C397.772 195.218 394.684 194.88 392.481 196.929C390.335 198.921 390.353 201.325 392.468 205.008L388.628 208.578C388.141 207.769 387.809 206.816 387.55 205.745C387.474 205.445 387.358 205.185 387.171 204.993C386.581 204.383 385.632 204.344 385.012 204.922C384.531 205.368 384.504 205.919 384.614 206.395C384.905 207.833 385.474 209.17 386.457 210.463L386.021 210.872C385.541 211.317 385.521 212.045 385.976 212.514C386.43 212.986 387.187 213.017 387.667 212.572L388.089 212.179C390.657 214.444 393.744 214.728 395.878 212.746C398.136 210.648 397.951 208.296 395.944 204.721L399.881 201.06C400.73 202.323 401.134 203.657 401.351 205.215C401.386 205.525 401.528 205.838 401.756 206.074C402.345 206.684 403.28 206.707 403.901 206.129C404.326 205.71 404.448 205.227 404.353 204.684Z" fill="#FAF9F8"/>
<path fill-rule="evenodd" clip-rule="evenodd" d="M272.721 313.319L295.104 321.23C304.054 324.393 308.761 334.253 305.614 343.251L286.636 397.529L276.523 403.036L272.065 392.379L261.383 397.685L256.497 386.878L245.958 392.234L241.357 381.526L230.819 386.883L227.3 376.558L251.77 306.571" fill="#A4D0B4"/>
<path fill-rule="evenodd" clip-rule="evenodd" d="M258.186 321.248L280.569 329.159C289.519 332.322 294.224 342.182 291.077 351.18L272.1 405.458L261.987 410.964L257.529 400.308L246.847 405.614L241.959 394.805L231.422 400.162L226.821 389.454L216.282 394.81L212.764 384.487L237.232 314.5" fill="#FAF9F8"/>
<path fill-rule="evenodd" clip-rule="evenodd" d="M261.745 412.23C261.483 412.138 261.273 411.939 261.166 411.682L257.075 401.918L247.237 406.796C246.997 406.915 246.681 406.909 246.471 406.841C246.22 406.752 246.017 406.565 245.909 406.32L241.403 396.373L231.686 401.303C231.448 401.423 231.17 401.442 230.917 401.351C230.915 401.351 230.912 401.349 230.908 401.349C230.655 401.255 230.449 401.062 230.342 400.814L226.116 390.992L216.416 395.915C216.163 396.043 215.861 396.062 215.603 395.947C215.341 395.841 215.136 395.623 215.044 395.354L211.495 384.957C211.423 384.748 211.425 384.52 211.497 384.311L236.179 313.838C236.358 313.325 236.919 313.055 237.43 313.234C237.941 313.416 238.21 313.979 238.031 314.491L213.463 384.644L216.536 393.646L226.16 388.761C226.398 388.641 226.675 388.623 226.928 388.711C226.929 388.713 226.933 388.713 226.937 388.715C227.191 388.808 227.396 389 227.503 389.25L231.73 399.072L241.43 394.149C241.906 393.908 242.544 394.134 242.766 394.621L247.275 404.578L257.139 399.687C257.381 399.566 257.676 399.577 257.918 399.646C258.17 399.742 258.375 399.937 258.48 400.188L262.555 409.916L271.471 405.071L290.485 350.776C293.475 342.239 288.989 332.856 280.486 329.855L257.91 321.888C257.399 321.708 257.132 321.145 257.311 320.631C257.49 320.12 258.051 319.849 258.561 320.029L281.137 327.996C290.662 331.356 295.686 341.868 292.339 351.427L273.197 406.083C273.116 406.315 272.954 406.506 272.74 406.624L262.538 412.167C262.295 412.299 262.007 412.323 261.745 412.23Z" fill="#9DC8AD"/>
<path fill-rule="evenodd" clip-rule="evenodd" d="M257.431 342.211C257.853 341.081 259.049 340.497 260.873 340.914L259.165 345.482C257.3 344.13 257.023 343.301 257.431 342.211ZM259.993 349.783C261.872 351.098 262.213 351.989 261.785 353.136C261.322 354.373 260.046 354.87 258.236 354.478L259.993 349.783ZM250.141 352.397C251.39 354.056 253.029 355.374 255.006 356.253L254.407 357.853C254.176 358.473 254.534 359.143 255.192 359.36C255.852 359.577 256.559 359.258 256.79 358.64L257.368 357.095C260.968 357.936 264.029 356.842 265.092 354.002C266.125 351.237 264.931 349.083 261.136 346.726L262.986 341.778C263.841 342.284 264.62 342.991 265.392 343.839C265.608 344.074 265.845 344.254 266.116 344.343C266.967 344.625 267.877 344.231 268.176 343.431C268.408 342.811 268.163 342.302 267.826 341.924C266.846 340.762 265.655 339.816 264.097 339.098L264.308 338.533C264.539 337.915 264.201 337.25 263.544 337.033C262.884 336.816 262.16 337.127 261.929 337.746L261.724 338.293C258.202 337.416 255.164 338.558 254.136 341.306C253.046 344.217 254.375 346.252 258.015 348.557L256.117 353.633C254.701 352.88 253.668 351.864 252.698 350.562C252.514 350.296 252.226 350.079 251.898 349.97C251.045 349.689 250.156 350.09 249.856 350.891C249.665 351.46 249.786 351.951 250.141 352.397Z" fill="#9DC8AD"/>
<path fill-rule="evenodd" clip-rule="evenodd" d="M268.273 376.553L234.567 365.227C234.053 365.055 233.783 364.516 233.964 364.024C234.144 363.531 234.709 363.274 235.223 363.446L268.928 374.772C269.442 374.946 269.713 375.483 269.533 375.976C269.351 376.468 268.787 376.727 268.273 376.553Z" fill="#9DC8AD"/>
<path fill-rule="evenodd" clip-rule="evenodd" d="M262.992 381.841L235.889 373.081C235.375 372.915 235.104 372.399 235.286 371.926C235.467 371.455 236.028 371.206 236.542 371.373L263.645 380.133C264.157 380.299 264.427 380.815 264.246 381.288C264.067 381.759 263.504 382.007 262.992 381.841Z" fill="#9DC8AD"/>
<path fill-rule="evenodd" clip-rule="evenodd" d="M64.5144 282.786H1.94487C1.59999 282.786 1.3215 283.066 1.3215 283.412V342.09C1.3215 350.938 8.46629 358.108 17.2783 358.108H64.1308C64.4756 358.108 64.7541 357.828 64.7541 357.484V347.092" fill="#FAF9F8"/>
<mask id="mask1" mask-type="alpha" maskUnits="userSpaceOnUse" x="0" y="280" width="66" height="78">
<path d="M0 280.746H65.0823V357.557H0V280.746Z" fill="white"/>
</mask>
<g mask="url(#mask1)">
<path fill-rule="evenodd" clip-rule="evenodd" d="M63.4856 357.557H16.8582C7.56355 357.557 -0.000274658 349.977 -0.000274658 340.661V282.347C-0.000274658 281.465 0.715545 280.746 1.59655 280.746H63.8655C64.4051 280.746 64.842 281.184 64.842 281.725C64.842 282.268 64.4051 282.704 63.8655 282.704H1.95446V340.661C1.95446 348.899 8.63912 355.6 16.8582 355.6H63.1295V345.634C63.1295 345.093 63.5645 344.653 64.1041 344.653C64.6456 344.653 65.0824 345.093 65.0824 345.634V355.958C65.0824 356.84 64.3647 357.557 63.4856 357.557Z" fill="#9DC8AD"/>
</g>
<mask id="mask2" mask-type="alpha" maskUnits="userSpaceOnUse" x="0" y="0" width="559" height="483">
<path d="M0 482.321H559V0H0V482.321Z" fill="white"/>
</mask>
<g mask="url(#mask2)">
<path fill-rule="evenodd" clip-rule="evenodd" d="M10.5721 329.036H56.8251V294.679H10.5721V329.036Z" fill="#FAF9F8"/>
<path fill-rule="evenodd" clip-rule="evenodd" d="M11.2466 328.385H56.1524V295.332H11.2466V328.385ZM57.1495 330.357H10.2495C9.69851 330.357 9.25058 329.916 9.25058 329.371V294.345C9.25058 293.8 9.69851 293.357 10.2495 293.357H57.1495C57.7024 293.357 58.1466 293.8 58.1466 294.345V329.371C58.1466 329.916 57.7024 330.357 57.1495 330.357Z" fill="#9DC8AD"/>
<path fill-rule="evenodd" clip-rule="evenodd" d="M18.5012 330.357C17.7709 330.357 17.1797 329.924 17.1797 329.388V295.648C17.1797 295.112 17.7709 294.679 18.5012 294.679C19.2315 294.679 19.8227 295.112 19.8227 295.648V329.388C19.8227 329.924 19.2315 330.357 18.5012 330.357Z" fill="#9DC8AD"/>
<path fill-rule="evenodd" clip-rule="evenodd" d="M40.9669 330.357C40.2366 330.357 39.6454 329.924 39.6454 329.388V295.648C39.6454 295.112 40.2366 294.679 40.9669 294.679C41.6972 294.679 42.2884 295.112 42.2884 295.648V329.388C42.2884 329.924 41.6972 330.357 40.9669 330.357Z" fill="#9DC8AD"/>
<path fill-rule="evenodd" clip-rule="evenodd" d="M57.1634 301.285H11.5553C11.0119 301.285 10.5721 300.694 10.5721 299.964C10.5721 299.234 11.0119 298.643 11.5553 298.643H57.1634C57.7067 298.643 58.1466 299.234 58.1466 299.964C58.1466 300.694 57.7067 301.285 57.1634 301.285Z" fill="#9DC8AD"/>
<path fill-rule="evenodd" clip-rule="evenodd" d="M43.4903 340.929L39.6454 351.5L50.2175 347.867" fill="#FAF9F8"/>
<path fill-rule="evenodd" clip-rule="evenodd" d="M39.2597 351.5C39.0082 351.5 38.7655 351.396 38.5862 351.206C38.3365 350.939 38.2573 350.549 38.3822 350.201L42.0275 340.23C42.2086 339.734 42.7485 339.485 43.2321 339.667C43.7156 339.855 43.9601 340.409 43.7807 340.905L40.8247 348.992L48.9858 346.201C49.4817 346.033 50.0057 346.305 50.1692 346.807C50.3328 347.312 50.0672 347.854 49.5784 348.021L39.5551 351.452C39.4584 351.484 39.3581 351.5 39.2597 351.5Z" fill="#9DC8AD"/>
<path fill-rule="evenodd" clip-rule="evenodd" d="M48.9297 347.536L42.2884 340.895L77.9356 305.25L84.5768 311.891L48.9297 347.536Z" fill="#A4D0B4"/>
<path fill-rule="evenodd" clip-rule="evenodd" d="M43.3746 341.067L48.7616 346.452L85.4342 309.78C86.9201 308.294 86.9201 305.879 85.4342 304.393C83.9521 302.911 81.535 302.909 80.0473 304.393L43.3746 341.067ZM48.7616 348.858C48.5068 348.858 48.2519 348.76 48.0571 348.567L41.2592 341.771C41.0718 341.584 40.9669 341.331 40.9669 341.067C40.9669 340.801 41.0718 340.55 41.2592 340.36L78.6382 302.984C80.9017 300.718 84.5817 300.722 86.8452 302.984C89.1068 305.245 89.1068 308.927 86.8452 311.189L49.4661 348.567C49.2713 348.76 49.0164 348.858 48.7616 348.858Z" fill="#9DC8AD"/>
<path fill-rule="evenodd" clip-rule="evenodd" d="M88.4941 145.006L99.0916 105.33C99.1818 104.994 98.9848 104.649 98.6554 104.558L42.346 89.1014C33.8577 86.7711 25.1118 91.8572 22.813 100.462L10.5941 146.214C10.5039 146.551 10.699 146.896 11.0321 146.988L82.1095 166.5" fill="#FAF9F8"/>
<path fill-rule="evenodd" clip-rule="evenodd" d="M42.5094 87.806L99.2423 103.135C100.101 103.368 100.611 104.252 100.379 105.109L89.6997 144.457C89.5587 144.983 89.0173 145.294 88.4888 145.151C87.964 145.009 87.6524 144.468 87.7952 143.941L98.3782 104.942L41.9938 89.7064C33.9792 87.5414 25.6938 92.2858 23.5242 100.283L11.3057 145.31L82.5714 164.565C83.0999 164.706 83.4096 165.246 83.2668 165.772C83.124 166.297 82.5825 166.606 82.0559 166.466L10.4415 147.114C9.58294 146.883 9.07484 145.999 9.30664 145.142L21.6197 99.7687C24.0731 90.7241 33.4451 85.358 42.5094 87.806Z" fill="#9DC8AD"/>
<path fill-rule="evenodd" clip-rule="evenodd" d="M71.7808 116.286L85.8983 120.076L77.5502 150.643L63.4326 146.853L71.7808 116.286Z" fill="#A4D0B4"/>
<path fill-rule="evenodd" clip-rule="evenodd" d="M47.1743 124.214L60.7896 128.024L55.9038 146.678L42.2884 142.868L47.1743 124.214Z" fill="#FAF9F8"/>
<path fill-rule="evenodd" clip-rule="evenodd" d="M60.0749 127.194L48.5977 123.796L44.3237 141.056L55.8008 144.451L60.0749 127.194ZM48.194 121.606L61.4354 125.526C61.9233 125.671 62.2102 126.219 62.0796 126.752L57.3263 145.939C57.194 146.474 56.6924 146.788 56.2062 146.643L42.9631 142.724C42.4753 142.579 42.1884 142.031 42.3206 141.497L47.0723 122.309C47.2046 121.777 47.7062 121.462 48.194 121.606Z" fill="#9DC8AD"/>
<path fill-rule="evenodd" clip-rule="evenodd" d="M27.4178 112.321L40.9669 116.114L34.6933 140.071L21.1442 136.278L27.4178 112.321Z" fill="#FAF9F8"/>
<path fill-rule="evenodd" clip-rule="evenodd" d="M40.1319 116.572L27.9693 113.206L21.9791 135.821L34.1398 139.189L40.1319 116.572ZM27.5416 111.034L41.5735 114.919C42.0905 115.061 42.3944 115.604 42.2543 116.134L35.758 140.66C35.6178 141.189 35.0863 141.501 34.5694 141.358L20.5375 137.475C20.0223 137.332 19.7166 136.788 19.8567 136.26L26.353 111.732C26.4932 111.203 27.0247 110.893 27.5416 111.034Z" fill="#9DC8AD"/>
<path fill-rule="evenodd" clip-rule="evenodd" d="M66.0461 138.75L80.6123 142.583L77.9988 151.964L63.4326 148.131L66.0461 138.75Z" fill="#9DC8AD"/>
<path fill-rule="evenodd" clip-rule="evenodd" d="M42.5236 136.107L56.825 139.83L55.2684 145.357L40.9669 141.638L42.5236 136.107Z" fill="#9DC8AD"/>
<path fill-rule="evenodd" clip-rule="evenodd" d="M23.0978 130.821L37.0024 134.445L35.0487 141.393L21.1442 137.769L23.0978 130.821Z" fill="#9DC8AD"/>
<path fill-rule="evenodd" clip-rule="evenodd" d="M158.921 187.748L198.58 177.093C198.916 177.003 199.261 177.2 199.352 177.529L213.296 227.945C216.529 239.637 209.534 251.697 197.671 254.886L157.842 265.585C157.507 265.675 157.161 265.482 157.07 265.149L137.437 194.162" fill="#A4D0B4"/>
<path fill-rule="evenodd" clip-rule="evenodd" d="M162.883 203.5L168.595 196.8L177.083 199.596L172.781 183.679L158.582 187.583L162.883 203.5Z" fill="#9DC8AD"/>
<path fill-rule="evenodd" clip-rule="evenodd" d="M197.513 230.411L163.767 239.146C163.253 239.28 162.721 238.992 162.581 238.502C162.439 238.012 162.744 237.508 163.26 237.376L197.005 228.641C197.521 228.506 198.051 228.794 198.193 229.284C198.333 229.774 198.029 230.278 197.513 230.411Z" fill="#9DC8AD"/>
<path fill-rule="evenodd" clip-rule="evenodd" d="M193.518 241.058L165.142 248.395C164.604 248.533 164.049 248.233 163.903 247.725C163.757 247.214 164.074 246.69 164.612 246.55L192.988 239.212C193.526 239.074 194.079 239.374 194.227 239.884C194.373 240.393 194.056 240.918 193.518 241.058Z" fill="#9DC8AD"/>
<path fill-rule="evenodd" clip-rule="evenodd" d="M144.365 177.175L183.987 166.522C184.323 166.432 184.67 166.627 184.759 166.956L200.299 223.193C202.64 231.671 197.573 240.419 188.979 242.727L143.287 255.013C142.953 255.105 142.607 254.91 142.515 254.579L122.901 183.589" fill="#FAF9F8"/>
<path fill-rule="evenodd" clip-rule="evenodd" d="M190.997 243.921L145.683 256.3C144.829 256.534 143.943 256.028 143.71 255.17L124.258 183.642C124.113 183.118 124.422 182.575 124.947 182.432C125.472 182.29 126.012 182.599 126.154 183.125L145.513 254.303L190.479 242.018C198.466 239.837 203.191 231.551 201.015 223.547L185.7 167.233L146.751 177.872C146.226 178.015 145.686 177.706 145.544 177.181C145.4 176.655 145.71 176.114 146.234 175.971L185.529 165.236C186.385 165.002 187.27 165.508 187.503 166.366L202.914 223.028C205.375 232.081 200.028 241.453 190.997 243.921Z" fill="#9DC8AD"/>
<path fill-rule="evenodd" clip-rule="evenodd" d="M182.977 223.804L149.23 232.538C148.716 232.673 148.185 232.385 148.044 231.895C147.904 231.405 148.207 230.901 148.723 230.768L182.468 222.032C182.984 221.9 183.515 222.188 183.656 222.676C183.796 223.166 183.493 223.67 182.977 223.804Z" fill="#9DC8AD"/>
<path fill-rule="evenodd" clip-rule="evenodd" d="M177.496 209.865L143.749 218.599C143.235 218.733 142.705 218.445 142.563 217.955C142.423 217.465 142.727 216.961 143.243 216.829L176.988 208.093C177.504 207.96 178.034 208.248 178.176 208.736C178.316 209.227 178.012 209.73 177.496 209.865Z" fill="#9DC8AD"/>
<path fill-rule="evenodd" clip-rule="evenodd" d="M180.303 231.807L151.927 239.145C151.389 239.283 150.836 238.983 150.688 238.473C150.542 237.964 150.86 237.438 151.396 237.3L179.773 229.963C180.311 229.823 180.864 230.123 181.012 230.633C181.158 231.144 180.841 231.668 180.303 231.807Z" fill="#9DC8AD"/>
<path fill-rule="evenodd" clip-rule="evenodd" d="M174.823 217.868L146.446 225.207C145.908 225.345 145.355 225.045 145.208 224.535C145.062 224.026 145.38 223.5 145.916 223.361L174.292 216.025C174.83 215.885 175.384 216.185 175.531 216.695C175.677 217.205 175.361 217.73 174.823 217.868Z" fill="#9DC8AD"/>
<path fill-rule="evenodd" clip-rule="evenodd" d="M173.386 196.162L139.639 204.896C139.125 205.03 138.595 204.742 138.453 204.252C138.313 203.762 138.616 203.258 139.132 203.125L172.877 194.39C173.393 194.257 173.924 194.545 174.066 195.033C174.205 195.523 173.902 196.027 173.386 196.162Z" fill="#9DC8AD"/>
<path fill-rule="evenodd" clip-rule="evenodd" d="M170.713 204.164L142.336 211.502C141.798 211.641 141.245 211.341 141.097 210.83C140.951 210.322 141.27 209.795 141.806 209.657L170.182 202.321C170.72 202.18 171.273 202.48 171.421 202.991C171.567 203.501 171.251 204.026 170.713 204.164Z" fill="#9DC8AD"/>
<path fill-rule="evenodd" clip-rule="evenodd" d="M109.041 95.2207C86.6446 103.477 66.5197 116.963 54.8647 138.663C42.8369 161.056 44.8409 176.2 54.848 185.583C64.9696 195.071 83.2788 198.662 103.535 197.895" fill="#FAF9F8"/>
<path d="M109.041 95.2207C86.6446 103.477 66.5197 116.963 54.8647 138.663C42.8369 161.056 44.8409 176.2 54.848 185.583C64.9696 195.071 83.2788 198.662 103.535 197.895" stroke="#9DC8AD"/>
<path fill-rule="evenodd" clip-rule="evenodd" d="M192.941 165.179C185.006 171.132 177.807 176.055 171.491 179.519C155.794 188.134 135.111 194.38 114.972 196.893L126.193 170.293L192.941 165.179Z" fill="#FAF9F8"/>
<path d="M257.695 130.821L407.026 395.107" stroke="#9DC8AD"/>
<path fill-rule="evenodd" clip-rule="evenodd" d="M216.728 153.285C199.211 153.285 185.012 139.073 185.012 121.544V108.382C185.012 90.8534 199.211 76.6426 216.728 76.6426C234.245 76.6426 248.444 90.8534 248.444 108.382V121.544C248.444 139.073 234.245 153.285 216.728 153.285Z" fill="#A4D0B4"/>
<path fill-rule="evenodd" clip-rule="evenodd" d="M224.657 145.357C207.14 145.357 192.941 131.146 192.941 113.617V100.455C192.941 82.9247 207.14 68.7139 224.657 68.7139C242.174 68.7139 256.374 82.9247 256.374 100.455V113.617C256.374 131.146 242.174 145.357 224.657 145.357Z" fill="#FAF9F8"/>
<path fill-rule="evenodd" clip-rule="evenodd" d="M213.39 70.6762C203.172 70.6762 194.858 79.1837 194.858 89.6407V125.751C194.858 136.208 203.172 144.716 213.39 144.716H235.924C246.143 144.716 254.456 136.208 254.456 125.751V89.6407C254.456 79.1837 246.143 70.6762 235.924 70.6762H213.39ZM235.924 146.678H213.39C202.114 146.678 192.941 137.291 192.941 125.751V89.6407C192.941 78.1012 202.114 68.7139 213.39 68.7139H235.924C247.2 68.7139 256.374 78.1012 256.374 89.6407V125.751C256.374 137.291 247.2 146.678 235.924 146.678Z" fill="#9DC8AD"/>
<path fill-rule="evenodd" clip-rule="evenodd" d="M212.764 97.7861L206.061 105.715L202.191 101.136" fill="#FAF9F8"/>
<path fill-rule="evenodd" clip-rule="evenodd" d="M205.958 107.036C205.708 107.036 205.471 106.935 205.295 106.756L201.145 102.519C200.778 102.145 200.778 101.539 201.145 101.165C201.512 100.793 202.104 100.791 202.471 101.165L205.958 104.725L212.484 98.0669C212.849 97.6929 213.443 97.6929 213.81 98.0651C214.177 98.4391 214.177 99.0451 213.81 99.4191L206.621 106.756C206.444 106.935 206.206 107.036 205.958 107.036Z" fill="#9DC8AD"/>
<path fill-rule="evenodd" clip-rule="evenodd" d="M248.79 101.75H222.991C222.451 101.75 222.014 101.157 222.014 100.426C222.014 99.6986 222.451 99.1074 222.991 99.1074H248.79C249.329 99.1074 249.766 99.6986 249.766 100.426C249.766 101.157 249.329 101.75 248.79 101.75Z" fill="#9DC8AD"/>
<path fill-rule="evenodd" clip-rule="evenodd" d="M212.764 117.607L206.061 125.536L202.191 120.957" fill="#FAF9F8"/>
<path fill-rule="evenodd" clip-rule="evenodd" d="M205.958 124.214C205.708 124.214 205.471 124.113 205.295 123.935L201.145 119.697C200.778 119.325 200.778 118.717 201.145 118.345C201.512 117.97 202.104 117.97 202.471 118.345L205.958 121.903L212.484 115.244C212.849 114.87 213.443 114.87 213.81 115.244C214.177 115.618 214.177 116.224 213.81 116.598L206.621 123.935C206.444 124.113 206.206 124.214 205.958 124.214Z" fill="#9DC8AD"/>
<path fill-rule="evenodd" clip-rule="evenodd" d="M238.221 122.893H221.665C221.128 122.893 220.693 122.302 220.693 121.571C220.693 120.841 221.128 120.25 221.665 120.25H238.221C238.759 120.25 239.194 120.841 239.194 121.571C239.194 122.302 238.759 122.893 238.221 122.893Z" fill="#9DC8AD"/>
<path fill-rule="evenodd" clip-rule="evenodd" d="M256.374 89.8571H194.262L195.362 83.25H254.565L256.374 89.8571Z" fill="#9DC8AD"/>
<path d="M190.298 25.7829C191.572 23.2117 195.264 23.0989 196.698 25.5883L235.229 92.5004" stroke="#9DC8AD"/>
<path fill-rule="evenodd" clip-rule="evenodd" d="M508.783 233.371C416.735 258.871 352.815 11.52 273.553 1.32129Z" fill="#FAF9F8"/>
<path d="M223.996 85.9458C223.996 85.9458 93.0568 68.0554 54.546 139.617C16.0334 211.177 121.299 208.623 172.647 180.509C223.996 152.395 334.397 27.1629 424.258 37.3865C514.118 47.6101 601.41 208.623 508.983 234.181C416.554 259.738 352.368 11.8275 272.778 1.60573C193.187 -8.61786 206.024 259.738 249.67 326.187C293.318 392.637 434.526 282.74 434.526 282.74H64.8145L190.191 25.6409C191.457 23.0418 195.136 22.9297 196.563 25.4442L234.926 93.0832" stroke="#9DC8AD"/>
<path fill-rule="evenodd" clip-rule="evenodd" d="M516.425 192.929H557.057C557.4 192.929 557.679 193.208 557.679 193.554V252.231C557.679 261.078 550.536 268.25 541.722 268.25H494.869C494.524 268.25 494.246 267.969 494.246 267.624V193.554" fill="#FAF9F8"/>
<path fill-rule="evenodd" clip-rule="evenodd" d="M542.228 269.572H495.833C494.958 269.572 494.246 268.842 494.246 267.945V193.23C494.246 192.681 494.68 192.235 495.217 192.235C495.754 192.235 496.189 192.681 496.189 193.23V267.583H542.228C550.406 267.583 557.057 260.782 557.057 252.42V193.594H517.18C516.643 193.594 516.208 193.15 516.208 192.601C516.208 192.052 516.643 191.607 517.18 191.607H557.411C558.288 191.607 559 192.334 559 193.23V252.42C559 261.876 551.476 269.572 542.228 269.572Z" fill="#9DC8AD"/>
<path fill-rule="evenodd" clip-rule="evenodd" d="M515.39 210.107L523.212 204.954L531.248 210.107V192.929H515.39V210.107Z" fill="#9DC8AD"/>
<path fill-rule="evenodd" clip-rule="evenodd" d="M543.46 245.785H507.143C506.588 245.785 506.139 245.194 506.139 244.465C506.139 243.734 506.588 243.143 507.143 243.143H543.46C544.014 243.143 544.463 243.734 544.463 244.465C544.463 245.194 544.014 245.785 543.46 245.785Z" fill="#9DC8AD"/>
<path fill-rule="evenodd" clip-rule="evenodd" d="M536.839 252.393H507.158C506.594 252.393 506.139 251.802 506.139 251.071C506.139 250.341 506.594 249.75 507.158 249.75H536.839C537.401 249.75 537.856 250.341 537.856 251.071C537.856 251.802 537.401 252.393 536.839 252.393Z" fill="#9DC8AD"/>
</g>
</g>
<defs>
<clipPath id="clip0">
<rect width="559" height="481" fill="white"/>
</clipPath>
</defs>
</svg>
