<svg width="70" height="70" viewBox="0 0 70 70" fill="none" xmlns="http://www.w3.org/2000/svg">
<rect width="70" height="70" rx="15" fill="#9DC8AD"/>
<path d="M34.5729 45.9588C34.4521 45.9586 34.3323 45.9375 34.2188 45.8963C33.9997 45.8161 33.814 45.6647 33.6912 45.4664C33.5684 45.2681 33.5158 45.0343 33.5417 44.8025L34.3438 37.4171H28.2083C28.0191 37.4174 27.8334 37.3661 27.6711 37.2688C27.5088 37.1715 27.376 37.0318 27.2872 36.8647C27.1983 36.6976 27.1566 36.5095 27.1665 36.3205C27.1765 36.1316 27.2378 35.9489 27.3438 35.7921L35.5625 23.5004C35.6925 23.3081 35.883 23.1647 36.1038 23.0929C36.3246 23.0212 36.563 23.0253 36.7812 23.1046C36.991 23.1825 37.1701 23.3258 37.2921 23.5134C37.414 23.701 37.4723 23.9229 37.4583 24.1463L36.6562 31.5838H42.7917C42.9809 31.5835 43.1666 31.6347 43.3289 31.7321C43.4912 31.8294 43.624 31.9691 43.7128 32.1361C43.8017 32.3032 43.8434 32.4913 43.8335 32.6803C43.8235 32.8693 43.7622 33.052 43.6562 33.2088L35.4375 45.5004C35.3419 45.6418 35.2131 45.7575 35.0624 45.8374C34.9116 45.9174 34.7435 45.959 34.5729 45.9588ZM30.1563 35.3338H35.5C35.6454 35.3341 35.789 35.3649 35.9218 35.4241C36.0545 35.4833 36.1734 35.5696 36.2708 35.6775C36.3691 35.7869 36.4432 35.9158 36.488 36.0559C36.5329 36.1959 36.5477 36.3439 36.5312 36.49L36.0625 40.8129L40.8437 33.6671H35.5C35.353 33.668 35.2075 33.6378 35.073 33.5784C34.9385 33.519 34.8181 33.4319 34.7198 33.3227C34.6214 33.2135 34.5472 33.0847 34.5022 32.9447C34.4571 32.8048 34.4422 32.6569 34.4583 32.5108L34.9271 28.1879L30.1563 35.3338Z" fill="#149211"/>
</svg>
