<svg viewBox="0 0 85 25" xmlns="http://www.w3.org/2000/svg">
  <symbol id="icon-logo" viewBox="0 0 85 25">
    <circle cx="53.5" cy="13.5" r="2.5" fill="#FBB300"/>
    <path d="M18.984 18.834C19.376 18.834 19.698 18.988 19.95 19.296C20.202 19.604 20.328 19.996 20.328 20.472C20.328 21.284 19.824 21.97 18.816 22.53C17.836 23.09 16.758 23.524 15.582 23.832C14.434 24.14 13.328 24.294 12.264 24.294C9.016 24.294 6.454 23.356 4.578 21.48C2.702 19.576 1.764 16.986 1.764 13.71C1.764 11.61 2.17 9.748 2.982 8.124C3.822 6.5 4.984 5.24 6.468 4.344C7.98 3.448 9.688 3 11.592 3C14.336 3 16.506 3.882 18.102 5.646C19.698 7.41 20.496 9.79 20.496 12.786C20.496 13.906 19.992 14.466 18.984 14.466H6.006C6.286 18.806 8.372 20.976 12.264 20.976C13.3 20.976 14.196 20.836 14.952 20.556C15.708 20.276 16.506 19.912 17.346 19.464C17.43 19.408 17.654 19.296 18.018 19.128C18.41 18.932 18.732 18.834 18.984 18.834ZM11.676 6.108C10.052 6.108 8.75 6.626 7.77 7.662C6.79 8.698 6.202 10.154 6.006 12.03H16.842C16.758 10.126 16.268 8.67 15.372 7.662C14.504 6.626 13.272 6.108 11.676 6.108ZM27.2587 14.508C26.6147 14.508 26.1247 14.368 25.7887 14.088C25.4527 13.78 25.2847 13.36 25.2847 12.828C25.2847 12.296 25.4527 11.876 25.7887 11.568C26.1247 11.26 26.6147 11.106 27.2587 11.106H36.2047C36.8487 11.106 37.3387 11.26 37.6747 11.568C38.0107 11.876 38.1787 12.296 38.1787 12.828C38.1787 13.36 38.0107 13.78 37.6747 14.088C37.3387 14.368 36.8487 14.508 36.2047 14.508H27.2587ZM53.0618 24.294C51.0738 24.294 49.3238 23.86 47.8118 22.992C46.3278 22.124 45.1658 20.892 44.3258 19.296C43.5138 17.7 43.1078 15.852 43.1078 13.752C43.1078 11.624 43.5278 9.748 44.3678 8.124C45.2358 6.5 46.4398 5.24 47.9798 4.344C49.5198 3.448 51.2838 3 53.2718 3C54.3358 3 55.3998 3.154 56.4638 3.462C57.5558 3.77 58.5218 4.19 59.3618 4.722C60.2578 5.338 60.7058 6.052 60.7058 6.864C60.7058 7.34 60.5798 7.746 60.3278 8.082C60.0758 8.39 59.7538 8.544 59.3618 8.544C59.1098 8.544 58.8578 8.488 58.6058 8.376C58.3538 8.236 58.0318 8.04 57.6398 7.788C56.9398 7.34 56.2818 7.004 55.6658 6.78C55.0778 6.528 54.3638 6.402 53.5238 6.402C51.6198 6.402 50.1358 7.046 49.0718 8.334C48.0358 9.622 47.5177 11.414 47.5177 13.71C47.5177 16.006 48.0358 17.784 49.0718 19.044C50.1078 20.276 51.5778 20.892 53.4818 20.892C54.3218 20.892 55.0638 20.766 55.7078 20.514C56.3518 20.262 57.0098 19.926 57.6818 19.506C57.9898 19.31 58.2978 19.142 58.6058 19.002C58.9138 18.862 59.1938 18.792 59.4458 18.792C59.8378 18.792 60.1598 18.96 60.4118 19.296C60.6638 19.604 60.7898 19.996 60.7898 20.472C60.7898 20.864 60.6778 21.228 60.4538 21.564C60.2578 21.872 59.9078 22.194 59.4038 22.53C58.5638 23.09 57.5838 23.524 56.4638 23.832C55.3438 24.14 54.2098 24.294 53.0618 24.294ZM79.1605 4.344C79.3285 3.924 79.5665 3.616 79.8745 3.42C80.2105 3.224 80.5605 3.126 80.9245 3.126C81.4565 3.126 81.9185 3.308 82.3105 3.672C82.7305 4.036 82.9405 4.47 82.9405 4.974C82.9405 5.254 82.8845 5.52 82.7725 5.772L74.7505 22.782C74.5545 23.23 74.2465 23.58 73.8265 23.832C73.4345 24.056 73.0145 24.168 72.5665 24.168C72.1185 24.168 71.6845 24.056 71.2645 23.832C70.8725 23.58 70.5785 23.23 70.3825 22.782L62.3605 5.772C62.2485 5.548 62.1925 5.282 62.1925 4.974C62.1925 4.47 62.4165 4.036 62.8645 3.672C63.3125 3.308 63.8165 3.126 64.3765 3.126C65.1885 3.126 65.7905 3.518 66.1825 4.302L72.6925 18.75L79.1605 4.344Z"/>
  </symbol>
  <symbol id="icon-github" viewBox='0 0 512 512'>
    <path d='M256 32C132.3 32 32 134.9 32 261.7c0 101.5 64.2 187.5 153.2 217.9a17.56 17.56 0 003.8.4c8.3 0 11.5-6.1 11.5-11.4 0-5.5-.2-19.9-.3-39.1a102.4 102.4 0 01-22.6 2.7c-43.1 0-52.9-33.5-52.9-33.5-10.2-26.5-24.9-33.6-24.9-33.6-19.5-13.7-.1-14.1 1.4-14.1h.1c22.5 2 34.3 23.8 34.3 23.8 11.2 19.6 26.2 25.1 39.6 25.1a63 63 0 0025.6-6c2-14.8 7.8-24.9 14.2-30.7-49.7-5.8-102-25.5-102-113.5 0-25.1 8.7-45.6 23-61.6-2.3-5.8-10-29.2 2.2-60.8a18.64 18.64 0 015-.5c8.1 0 26.4 3.1 56.6 24.1a208.21 208.21 0 01112.2 0c30.2-21 48.5-24.1 56.6-24.1a18.64 18.64 0 015 .5c12.2 31.6 4.5 55 2.2 60.8 14.3 16.1 23 36.6 23 61.6 0 88.2-52.4 107.6-102.3 113.3 8 7.1 15.2 21.1 15.2 42.5 0 30.7-.3 55.5-.3 63 0 5.4 3.1 11.5 11.4 11.5a19.35 19.35 0 004-.4C415.9 449.2 480 363.1 480 261.7 480 134.9 379.7 32 256 32z'/>
  </symbol>
</svg>
